%FSLAX45Y45*%
G04 Gerber Fmt 4.5, Leading zero omitted, Abs format (unit mm)*
G04 Created by KiCad (PCBNEW 5.1.5+dfsg1-2build2) date 2021-12-20 12:55:27*
%MOMM*%
%LPD*%
G04 APERTURE LIST*
%TA.AperFunction,Profile*%
%ADD10C,0.050000*%
%TD*%
%ADD11C,0.200000*%
%ADD12C,0.300000*%
G04 APERTURE END LIST*
D10*
X13000000Y-6091000D02*
G75*
G03X12809000Y-5900000I-191000J0D01*
G01*
X12809000Y-11400000D02*
G75*
G03X13000000Y-11209000I0J191000D01*
G01*
X4000000Y-11209000D02*
G75*
G03X4191000Y-11400000I191000J0D01*
G01*
X4191000Y-5900000D02*
G75*
G03X4000000Y-6091000I0J-191000D01*
G01*
X4000000Y-6091000D02*
X4000000Y-11209000D01*
X13000000Y-6091000D02*
X13000000Y-11209000D01*
X4191000Y-11400000D02*
X12809000Y-11400000D01*
X4191000Y-5900000D02*
X12809000Y-5900000D01*
D11*
X5888000Y-8649000D02*
X5928000Y-8689000D01*
X5928000Y-8649000D02*
X5888000Y-8689000D01*
X7824405Y-11056595D02*
X7864405Y-11096595D01*
X7864405Y-11056595D02*
X7824405Y-11096595D01*
X8088100Y-6661000D02*
G75*
G03X8088100Y-6661000I-38100J0D01*
G01*
X8088100Y-6915000D02*
G75*
G03X8088100Y-6915000I-38100J0D01*
G01*
X8088100Y-7169000D02*
G75*
G03X8088100Y-7169000I-38100J0D01*
G01*
X8088100Y-7423000D02*
G75*
G03X8088100Y-7423000I-38100J0D01*
G01*
X8088100Y-7677000D02*
G75*
G03X8088100Y-7677000I-38100J0D01*
G01*
X8088100Y-7931000D02*
G75*
G03X8088100Y-7931000I-38100J0D01*
G01*
X8088100Y-8185000D02*
G75*
G03X8088100Y-8185000I-38100J0D01*
G01*
X8088100Y-8439000D02*
G75*
G03X8088100Y-8439000I-38100J0D01*
G01*
X8088100Y-8693000D02*
G75*
G03X8088100Y-8693000I-38100J0D01*
G01*
X8088100Y-8947000D02*
G75*
G03X8088100Y-8947000I-38100J0D01*
G01*
X8088100Y-9201000D02*
G75*
G03X8088100Y-9201000I-38100J0D01*
G01*
X8088100Y-9455000D02*
G75*
G03X8088100Y-9455000I-38100J0D01*
G01*
X8088100Y-9709000D02*
G75*
G03X8088100Y-9709000I-38100J0D01*
G01*
X8088100Y-9963000D02*
G75*
G03X8088100Y-9963000I-38100J0D01*
G01*
X8088100Y-10217000D02*
G75*
G03X8088100Y-10217000I-38100J0D01*
G01*
X8088100Y-10471000D02*
G75*
G03X8088100Y-10471000I-38100J0D01*
G01*
X4798100Y-10097000D02*
G75*
G03X4798100Y-10097000I-38100J0D01*
G01*
X4798100Y-10859000D02*
G75*
G03X4798100Y-10859000I-38100J0D01*
G01*
X4798100Y-11113000D02*
G75*
G03X4798100Y-11113000I-38100J0D01*
G01*
X5052100Y-10097000D02*
G75*
G03X5052100Y-10097000I-38100J0D01*
G01*
X5306100Y-10097000D02*
G75*
G03X5306100Y-10097000I-38100J0D01*
G01*
X5560100Y-10097000D02*
G75*
G03X5560100Y-10097000I-38100J0D01*
G01*
X5814100Y-10097000D02*
G75*
G03X5814100Y-10097000I-38100J0D01*
G01*
X6068100Y-10097000D02*
G75*
G03X6068100Y-10097000I-38100J0D01*
G01*
X6322100Y-10097000D02*
G75*
G03X6322100Y-10097000I-38100J0D01*
G01*
X6322100Y-10859000D02*
G75*
G03X6322100Y-10859000I-38100J0D01*
G01*
X6322100Y-11113000D02*
G75*
G03X6322100Y-11113000I-38100J0D01*
G01*
X4657100Y-6159000D02*
G75*
G03X4657100Y-6159000I-38100J0D01*
G01*
X4657100Y-6413000D02*
G75*
G03X4657100Y-6413000I-38100J0D01*
G01*
X4657100Y-6667000D02*
G75*
G03X4657100Y-6667000I-38100J0D01*
G01*
X4657100Y-6921000D02*
G75*
G03X4657100Y-6921000I-38100J0D01*
G01*
X4657100Y-7175000D02*
G75*
G03X4657100Y-7175000I-38100J0D01*
G01*
X4657100Y-7429000D02*
G75*
G03X4657100Y-7429000I-38100J0D01*
G01*
X4657100Y-7683000D02*
G75*
G03X4657100Y-7683000I-38100J0D01*
G01*
X4657100Y-7937000D02*
G75*
G03X4657100Y-7937000I-38100J0D01*
G01*
X4657100Y-8191000D02*
G75*
G03X4657100Y-8191000I-38100J0D01*
G01*
X4657100Y-8445000D02*
G75*
G03X4657100Y-8445000I-38100J0D01*
G01*
X4657100Y-8699000D02*
G75*
G03X4657100Y-8699000I-38100J0D01*
G01*
X4657100Y-8953000D02*
G75*
G03X4657100Y-8953000I-38100J0D01*
G01*
X6435100Y-6159000D02*
G75*
G03X6435100Y-6159000I-38100J0D01*
G01*
X6435100Y-6413000D02*
G75*
G03X6435100Y-6413000I-38100J0D01*
G01*
X6435100Y-6667000D02*
G75*
G03X6435100Y-6667000I-38100J0D01*
G01*
X6435100Y-6921000D02*
G75*
G03X6435100Y-6921000I-38100J0D01*
G01*
X6435100Y-7175000D02*
G75*
G03X6435100Y-7175000I-38100J0D01*
G01*
X6435100Y-7429000D02*
G75*
G03X6435100Y-7429000I-38100J0D01*
G01*
X6435100Y-7683000D02*
G75*
G03X6435100Y-7683000I-38100J0D01*
G01*
X6435100Y-7937000D02*
G75*
G03X6435100Y-7937000I-38100J0D01*
G01*
X6435100Y-8191000D02*
G75*
G03X6435100Y-8191000I-38100J0D01*
G01*
X6435100Y-8445000D02*
G75*
G03X6435100Y-8445000I-38100J0D01*
G01*
X6435100Y-8699000D02*
G75*
G03X6435100Y-8699000I-38100J0D01*
G01*
X6435100Y-8953000D02*
G75*
G03X6435100Y-8953000I-38100J0D01*
G01*
X6792000Y-7009000D02*
X6792000Y-7089000D01*
X6752000Y-7049000D02*
X6832000Y-7049000D01*
X7554000Y-7009000D02*
X7554000Y-7089000D01*
X7514000Y-7049000D02*
X7594000Y-7049000D01*
X6792000Y-7390000D02*
X6792000Y-7470000D01*
X6752000Y-7430000D02*
X6832000Y-7430000D01*
X7554000Y-7390000D02*
X7554000Y-7470000D01*
X7514000Y-7430000D02*
X7594000Y-7430000D01*
X4633000Y-9549000D02*
X4633000Y-9629000D01*
X4593000Y-9589000D02*
X4673000Y-9589000D01*
X5395000Y-9549000D02*
X5395000Y-9629000D01*
X5355000Y-9589000D02*
X5435000Y-9589000D01*
X6792000Y-6628000D02*
X6792000Y-6708000D01*
X6752000Y-6668000D02*
X6832000Y-6668000D01*
X7554000Y-6628000D02*
X7554000Y-6708000D01*
X7514000Y-6668000D02*
X7594000Y-6668000D01*
X6792000Y-6247000D02*
X6792000Y-6327000D01*
X6752000Y-6287000D02*
X6832000Y-6287000D01*
X7554000Y-6247000D02*
X7554000Y-6327000D01*
X7514000Y-6287000D02*
X7594000Y-6287000D01*
X5649000Y-9549000D02*
X5649000Y-9629000D01*
X5609000Y-9589000D02*
X5689000Y-9589000D01*
X6411000Y-9549000D02*
X6411000Y-9629000D01*
X6371000Y-9589000D02*
X6451000Y-9589000D01*
X6792000Y-7771000D02*
X6792000Y-7851000D01*
X6752000Y-7811000D02*
X6832000Y-7811000D01*
X7554000Y-7771000D02*
X7554000Y-7851000D01*
X7514000Y-7811000D02*
X7594000Y-7811000D01*
X8986356Y-11101356D02*
X8986356Y-11030644D01*
X8915644Y-11030644D01*
X8915644Y-11101356D01*
X8986356Y-11101356D01*
X9240356Y-11101356D02*
X9240356Y-11030644D01*
X9169644Y-11030644D01*
X9169644Y-11101356D01*
X9240356Y-11101356D01*
X9494356Y-11101356D02*
X9494356Y-11030644D01*
X9423644Y-11030644D01*
X9423644Y-11101356D01*
X9494356Y-11101356D01*
X9748356Y-11101356D02*
X9748356Y-11030644D01*
X9677644Y-11030644D01*
X9677644Y-11101356D01*
X9748356Y-11101356D01*
X10002356Y-11101356D02*
X10002356Y-11030644D01*
X9931644Y-11030644D01*
X9931644Y-11101356D01*
X10002356Y-11101356D01*
X10256356Y-11101356D02*
X10256356Y-11030644D01*
X10185644Y-11030644D01*
X10185644Y-11101356D01*
X10256356Y-11101356D01*
X10510356Y-11101356D02*
X10510356Y-11030644D01*
X10439644Y-11030644D01*
X10439644Y-11101356D01*
X10510356Y-11101356D01*
X10764356Y-11101356D02*
X10764356Y-11030644D01*
X10693644Y-11030644D01*
X10693644Y-11101356D01*
X10764356Y-11101356D01*
X11018356Y-11101356D02*
X11018356Y-11030644D01*
X10947644Y-11030644D01*
X10947644Y-11101356D01*
X11018356Y-11101356D01*
X11272356Y-11101356D02*
X11272356Y-11030644D01*
X11201644Y-11030644D01*
X11201644Y-11101356D01*
X11272356Y-11101356D01*
X11526356Y-11101356D02*
X11526356Y-11030644D01*
X11455644Y-11030644D01*
X11455644Y-11101356D01*
X11526356Y-11101356D01*
X11780356Y-11101356D02*
X11780356Y-11030644D01*
X11709644Y-11030644D01*
X11709644Y-11101356D01*
X11780356Y-11101356D01*
X7208356Y-10132356D02*
X7208356Y-10061644D01*
X7137644Y-10061644D01*
X7137644Y-10132356D01*
X7208356Y-10132356D01*
X7462356Y-10132356D02*
X7462356Y-10061644D01*
X7391644Y-10061644D01*
X7391644Y-10132356D01*
X7462356Y-10132356D01*
X6919000Y-10660000D02*
X6974000Y-10605000D01*
X6919000Y-10550000D01*
X6864000Y-10605000D01*
X6919000Y-10660000D01*
X6919000Y-11110000D02*
X6974000Y-11055000D01*
X6919000Y-11000000D01*
X6864000Y-11055000D01*
X6919000Y-11110000D01*
X7569000Y-10660000D02*
X7624000Y-10605000D01*
X7569000Y-10550000D01*
X7514000Y-10605000D01*
X7569000Y-10660000D01*
X7569000Y-11110000D02*
X7624000Y-11055000D01*
X7569000Y-11000000D01*
X7514000Y-11055000D01*
X7569000Y-11110000D01*
X12590000Y-10990000D02*
X12810000Y-11210000D01*
X12810000Y-10990000D02*
X12590000Y-11210000D01*
X12810000Y-11100000D02*
G75*
G03X12810000Y-11100000I-110000J0D01*
G01*
X4190000Y-10990000D02*
X4410000Y-11210000D01*
X4410000Y-10990000D02*
X4190000Y-11210000D01*
X4410000Y-11100000D02*
G75*
G03X4410000Y-11100000I-110000J0D01*
G01*
X12290000Y-6450000D02*
X12510000Y-6670000D01*
X12510000Y-6450000D02*
X12290000Y-6670000D01*
X12510000Y-6560000D02*
G75*
G03X12510000Y-6560000I-110000J0D01*
G01*
X4190000Y-6090000D02*
X4410000Y-6310000D01*
X4410000Y-6090000D02*
X4190000Y-6310000D01*
X4410000Y-6200000D02*
G75*
G03X4410000Y-6200000I-110000J0D01*
G01*
D12*
X4283928Y-11868214D02*
X4283928Y-11568214D01*
X4355357Y-11568214D01*
X4398214Y-11582500D01*
X4426786Y-11611071D01*
X4441071Y-11639643D01*
X4455357Y-11696786D01*
X4455357Y-11739643D01*
X4441071Y-11796786D01*
X4426786Y-11825357D01*
X4398214Y-11853929D01*
X4355357Y-11868214D01*
X4283928Y-11868214D01*
X4583928Y-11868214D02*
X4583928Y-11668214D01*
X4583928Y-11725357D02*
X4598214Y-11696786D01*
X4612500Y-11682500D01*
X4641071Y-11668214D01*
X4669643Y-11668214D01*
X4769643Y-11868214D02*
X4769643Y-11668214D01*
X4769643Y-11568214D02*
X4755357Y-11582500D01*
X4769643Y-11596786D01*
X4783928Y-11582500D01*
X4769643Y-11568214D01*
X4769643Y-11596786D01*
X4955357Y-11868214D02*
X4926786Y-11853929D01*
X4912500Y-11825357D01*
X4912500Y-11568214D01*
X5112500Y-11868214D02*
X5083928Y-11853929D01*
X5069643Y-11825357D01*
X5069643Y-11568214D01*
X5455357Y-11868214D02*
X5455357Y-11568214D01*
X5555357Y-11782500D01*
X5655357Y-11568214D01*
X5655357Y-11868214D01*
X5926786Y-11868214D02*
X5926786Y-11711071D01*
X5912500Y-11682500D01*
X5883928Y-11668214D01*
X5826786Y-11668214D01*
X5798214Y-11682500D01*
X5926786Y-11853929D02*
X5898214Y-11868214D01*
X5826786Y-11868214D01*
X5798214Y-11853929D01*
X5783928Y-11825357D01*
X5783928Y-11796786D01*
X5798214Y-11768214D01*
X5826786Y-11753929D01*
X5898214Y-11753929D01*
X5926786Y-11739643D01*
X6069643Y-11668214D02*
X6069643Y-11968214D01*
X6069643Y-11682500D02*
X6098214Y-11668214D01*
X6155357Y-11668214D01*
X6183928Y-11682500D01*
X6198214Y-11696786D01*
X6212500Y-11725357D01*
X6212500Y-11811071D01*
X6198214Y-11839643D01*
X6183928Y-11853929D01*
X6155357Y-11868214D01*
X6098214Y-11868214D01*
X6069643Y-11853929D01*
X6341071Y-11839643D02*
X6355357Y-11853929D01*
X6341071Y-11868214D01*
X6326786Y-11853929D01*
X6341071Y-11839643D01*
X6341071Y-11868214D01*
X6341071Y-11682500D02*
X6355357Y-11696786D01*
X6341071Y-11711071D01*
X6326786Y-11696786D01*
X6341071Y-11682500D01*
X6341071Y-11711071D01*
X3957500Y-12342500D02*
X3997500Y-12382500D01*
X3997500Y-12342500D02*
X3957500Y-12382500D01*
X4341071Y-12198214D02*
X4369643Y-12198214D01*
X4398214Y-12212500D01*
X4412500Y-12226786D01*
X4426786Y-12255357D01*
X4441071Y-12312500D01*
X4441071Y-12383929D01*
X4426786Y-12441071D01*
X4412500Y-12469643D01*
X4398214Y-12483929D01*
X4369643Y-12498214D01*
X4341071Y-12498214D01*
X4312500Y-12483929D01*
X4298214Y-12469643D01*
X4283928Y-12441071D01*
X4269643Y-12383929D01*
X4269643Y-12312500D01*
X4283928Y-12255357D01*
X4298214Y-12226786D01*
X4312500Y-12212500D01*
X4341071Y-12198214D01*
X4569643Y-12469643D02*
X4583928Y-12483929D01*
X4569643Y-12498214D01*
X4555357Y-12483929D01*
X4569643Y-12469643D01*
X4569643Y-12498214D01*
X4841071Y-12298214D02*
X4841071Y-12498214D01*
X4769643Y-12183929D02*
X4698214Y-12398214D01*
X4883928Y-12398214D01*
X5055357Y-12198214D02*
X5083928Y-12198214D01*
X5112500Y-12212500D01*
X5126786Y-12226786D01*
X5141071Y-12255357D01*
X5155357Y-12312500D01*
X5155357Y-12383929D01*
X5141071Y-12441071D01*
X5126786Y-12469643D01*
X5112500Y-12483929D01*
X5083928Y-12498214D01*
X5055357Y-12498214D01*
X5026786Y-12483929D01*
X5012500Y-12469643D01*
X4998214Y-12441071D01*
X4983928Y-12383929D01*
X4983928Y-12312500D01*
X4998214Y-12255357D01*
X5012500Y-12226786D01*
X5026786Y-12212500D01*
X5055357Y-12198214D01*
X5283928Y-12498214D02*
X5283928Y-12298214D01*
X5283928Y-12326786D02*
X5298214Y-12312500D01*
X5326786Y-12298214D01*
X5369643Y-12298214D01*
X5398214Y-12312500D01*
X5412500Y-12341071D01*
X5412500Y-12498214D01*
X5412500Y-12341071D02*
X5426786Y-12312500D01*
X5455357Y-12298214D01*
X5498214Y-12298214D01*
X5526786Y-12312500D01*
X5541071Y-12341071D01*
X5541071Y-12498214D01*
X5683928Y-12498214D02*
X5683928Y-12298214D01*
X5683928Y-12326786D02*
X5698214Y-12312500D01*
X5726786Y-12298214D01*
X5769643Y-12298214D01*
X5798214Y-12312500D01*
X5812500Y-12341071D01*
X5812500Y-12498214D01*
X5812500Y-12341071D02*
X5826786Y-12312500D01*
X5855357Y-12298214D01*
X5898214Y-12298214D01*
X5926786Y-12312500D01*
X5941071Y-12341071D01*
X5941071Y-12498214D01*
X6526786Y-12183929D02*
X6269643Y-12569643D01*
X6912500Y-12198214D02*
X6941071Y-12198214D01*
X6969643Y-12212500D01*
X6983928Y-12226786D01*
X6998214Y-12255357D01*
X7012500Y-12312500D01*
X7012500Y-12383929D01*
X6998214Y-12441071D01*
X6983928Y-12469643D01*
X6969643Y-12483929D01*
X6941071Y-12498214D01*
X6912500Y-12498214D01*
X6883928Y-12483929D01*
X6869643Y-12469643D01*
X6855357Y-12441071D01*
X6841071Y-12383929D01*
X6841071Y-12312500D01*
X6855357Y-12255357D01*
X6869643Y-12226786D01*
X6883928Y-12212500D01*
X6912500Y-12198214D01*
X7141071Y-12469643D02*
X7155357Y-12483929D01*
X7141071Y-12498214D01*
X7126786Y-12483929D01*
X7141071Y-12469643D01*
X7141071Y-12498214D01*
X7341071Y-12198214D02*
X7369643Y-12198214D01*
X7398214Y-12212500D01*
X7412500Y-12226786D01*
X7426786Y-12255357D01*
X7441071Y-12312500D01*
X7441071Y-12383929D01*
X7426786Y-12441071D01*
X7412500Y-12469643D01*
X7398214Y-12483929D01*
X7369643Y-12498214D01*
X7341071Y-12498214D01*
X7312500Y-12483929D01*
X7298214Y-12469643D01*
X7283928Y-12441071D01*
X7269643Y-12383929D01*
X7269643Y-12312500D01*
X7283928Y-12255357D01*
X7298214Y-12226786D01*
X7312500Y-12212500D01*
X7341071Y-12198214D01*
X7726786Y-12498214D02*
X7555357Y-12498214D01*
X7641071Y-12498214D02*
X7641071Y-12198214D01*
X7612500Y-12241071D01*
X7583928Y-12269643D01*
X7555357Y-12283929D01*
X7983928Y-12198214D02*
X7926786Y-12198214D01*
X7898214Y-12212500D01*
X7883928Y-12226786D01*
X7855357Y-12269643D01*
X7841071Y-12326786D01*
X7841071Y-12441071D01*
X7855357Y-12469643D01*
X7869643Y-12483929D01*
X7898214Y-12498214D01*
X7955357Y-12498214D01*
X7983928Y-12483929D01*
X7998214Y-12469643D01*
X8012500Y-12441071D01*
X8012500Y-12369643D01*
X7998214Y-12341071D01*
X7983928Y-12326786D01*
X7955357Y-12312500D01*
X7898214Y-12312500D01*
X7869643Y-12326786D01*
X7855357Y-12341071D01*
X7841071Y-12369643D01*
X8126786Y-12198214D02*
X8126786Y-12255357D01*
X8241071Y-12198214D02*
X8241071Y-12255357D01*
X8683928Y-12612500D02*
X8669643Y-12598214D01*
X8641071Y-12555357D01*
X8626786Y-12526786D01*
X8612500Y-12483929D01*
X8598214Y-12412500D01*
X8598214Y-12355357D01*
X8612500Y-12283929D01*
X8626786Y-12241071D01*
X8641071Y-12212500D01*
X8669643Y-12169643D01*
X8683928Y-12155357D01*
X8783928Y-12226786D02*
X8798214Y-12212500D01*
X8826786Y-12198214D01*
X8898214Y-12198214D01*
X8926786Y-12212500D01*
X8941071Y-12226786D01*
X8955357Y-12255357D01*
X8955357Y-12283929D01*
X8941071Y-12326786D01*
X8769643Y-12498214D01*
X8955357Y-12498214D01*
X9312500Y-12498214D02*
X9312500Y-12198214D01*
X9441071Y-12498214D02*
X9441071Y-12341071D01*
X9426786Y-12312500D01*
X9398214Y-12298214D01*
X9355357Y-12298214D01*
X9326786Y-12312500D01*
X9312500Y-12326786D01*
X9626786Y-12498214D02*
X9598214Y-12483929D01*
X9583928Y-12469643D01*
X9569643Y-12441071D01*
X9569643Y-12355357D01*
X9583928Y-12326786D01*
X9598214Y-12312500D01*
X9626786Y-12298214D01*
X9669643Y-12298214D01*
X9698214Y-12312500D01*
X9712500Y-12326786D01*
X9726786Y-12355357D01*
X9726786Y-12441071D01*
X9712500Y-12469643D01*
X9698214Y-12483929D01*
X9669643Y-12498214D01*
X9626786Y-12498214D01*
X9898214Y-12498214D02*
X9869643Y-12483929D01*
X9855357Y-12455357D01*
X9855357Y-12198214D01*
X10126786Y-12483929D02*
X10098214Y-12498214D01*
X10041071Y-12498214D01*
X10012500Y-12483929D01*
X9998214Y-12455357D01*
X9998214Y-12341071D01*
X10012500Y-12312500D01*
X10041071Y-12298214D01*
X10098214Y-12298214D01*
X10126786Y-12312500D01*
X10141071Y-12341071D01*
X10141071Y-12369643D01*
X9998214Y-12398214D01*
X10255357Y-12483929D02*
X10283928Y-12498214D01*
X10341071Y-12498214D01*
X10369643Y-12483929D01*
X10383928Y-12455357D01*
X10383928Y-12441071D01*
X10369643Y-12412500D01*
X10341071Y-12398214D01*
X10298214Y-12398214D01*
X10269643Y-12383929D01*
X10255357Y-12355357D01*
X10255357Y-12341071D01*
X10269643Y-12312500D01*
X10298214Y-12298214D01*
X10341071Y-12298214D01*
X10369643Y-12312500D01*
X10483928Y-12612500D02*
X10498214Y-12598214D01*
X10526786Y-12555357D01*
X10541071Y-12526786D01*
X10555357Y-12483929D01*
X10569643Y-12412500D01*
X10569643Y-12355357D01*
X10555357Y-12283929D01*
X10541071Y-12241071D01*
X10526786Y-12212500D01*
X10498214Y-12169643D01*
X10483928Y-12155357D01*
X3997500Y-12758500D02*
G75*
G03X3997500Y-12758500I-38100J0D01*
G01*
X4341071Y-12594214D02*
X4369643Y-12594214D01*
X4398214Y-12608500D01*
X4412500Y-12622786D01*
X4426786Y-12651357D01*
X4441071Y-12708500D01*
X4441071Y-12779929D01*
X4426786Y-12837071D01*
X4412500Y-12865643D01*
X4398214Y-12879929D01*
X4369643Y-12894214D01*
X4341071Y-12894214D01*
X4312500Y-12879929D01*
X4298214Y-12865643D01*
X4283928Y-12837071D01*
X4269643Y-12779929D01*
X4269643Y-12708500D01*
X4283928Y-12651357D01*
X4298214Y-12622786D01*
X4312500Y-12608500D01*
X4341071Y-12594214D01*
X4569643Y-12865643D02*
X4583928Y-12879929D01*
X4569643Y-12894214D01*
X4555357Y-12879929D01*
X4569643Y-12865643D01*
X4569643Y-12894214D01*
X4683928Y-12594214D02*
X4883928Y-12594214D01*
X4755357Y-12894214D01*
X5126786Y-12594214D02*
X5069643Y-12594214D01*
X5041071Y-12608500D01*
X5026786Y-12622786D01*
X4998214Y-12665643D01*
X4983928Y-12722786D01*
X4983928Y-12837071D01*
X4998214Y-12865643D01*
X5012500Y-12879929D01*
X5041071Y-12894214D01*
X5098214Y-12894214D01*
X5126786Y-12879929D01*
X5141071Y-12865643D01*
X5155357Y-12837071D01*
X5155357Y-12765643D01*
X5141071Y-12737071D01*
X5126786Y-12722786D01*
X5098214Y-12708500D01*
X5041071Y-12708500D01*
X5012500Y-12722786D01*
X4998214Y-12737071D01*
X4983928Y-12765643D01*
X5283928Y-12894214D02*
X5283928Y-12694214D01*
X5283928Y-12722786D02*
X5298214Y-12708500D01*
X5326786Y-12694214D01*
X5369643Y-12694214D01*
X5398214Y-12708500D01*
X5412500Y-12737071D01*
X5412500Y-12894214D01*
X5412500Y-12737071D02*
X5426786Y-12708500D01*
X5455357Y-12694214D01*
X5498214Y-12694214D01*
X5526786Y-12708500D01*
X5541071Y-12737071D01*
X5541071Y-12894214D01*
X5683928Y-12894214D02*
X5683928Y-12694214D01*
X5683928Y-12722786D02*
X5698214Y-12708500D01*
X5726786Y-12694214D01*
X5769643Y-12694214D01*
X5798214Y-12708500D01*
X5812500Y-12737071D01*
X5812500Y-12894214D01*
X5812500Y-12737071D02*
X5826786Y-12708500D01*
X5855357Y-12694214D01*
X5898214Y-12694214D01*
X5926786Y-12708500D01*
X5941071Y-12737071D01*
X5941071Y-12894214D01*
X6526786Y-12579929D02*
X6269643Y-12965643D01*
X6912500Y-12594214D02*
X6941071Y-12594214D01*
X6969643Y-12608500D01*
X6983928Y-12622786D01*
X6998214Y-12651357D01*
X7012500Y-12708500D01*
X7012500Y-12779929D01*
X6998214Y-12837071D01*
X6983928Y-12865643D01*
X6969643Y-12879929D01*
X6941071Y-12894214D01*
X6912500Y-12894214D01*
X6883928Y-12879929D01*
X6869643Y-12865643D01*
X6855357Y-12837071D01*
X6841071Y-12779929D01*
X6841071Y-12708500D01*
X6855357Y-12651357D01*
X6869643Y-12622786D01*
X6883928Y-12608500D01*
X6912500Y-12594214D01*
X7141071Y-12865643D02*
X7155357Y-12879929D01*
X7141071Y-12894214D01*
X7126786Y-12879929D01*
X7141071Y-12865643D01*
X7141071Y-12894214D01*
X7341071Y-12594214D02*
X7369643Y-12594214D01*
X7398214Y-12608500D01*
X7412500Y-12622786D01*
X7426786Y-12651357D01*
X7441071Y-12708500D01*
X7441071Y-12779929D01*
X7426786Y-12837071D01*
X7412500Y-12865643D01*
X7398214Y-12879929D01*
X7369643Y-12894214D01*
X7341071Y-12894214D01*
X7312500Y-12879929D01*
X7298214Y-12865643D01*
X7283928Y-12837071D01*
X7269643Y-12779929D01*
X7269643Y-12708500D01*
X7283928Y-12651357D01*
X7298214Y-12622786D01*
X7312500Y-12608500D01*
X7341071Y-12594214D01*
X7541071Y-12594214D02*
X7726786Y-12594214D01*
X7626786Y-12708500D01*
X7669643Y-12708500D01*
X7698214Y-12722786D01*
X7712500Y-12737071D01*
X7726786Y-12765643D01*
X7726786Y-12837071D01*
X7712500Y-12865643D01*
X7698214Y-12879929D01*
X7669643Y-12894214D01*
X7583928Y-12894214D01*
X7555357Y-12879929D01*
X7541071Y-12865643D01*
X7912500Y-12594214D02*
X7941071Y-12594214D01*
X7969643Y-12608500D01*
X7983928Y-12622786D01*
X7998214Y-12651357D01*
X8012500Y-12708500D01*
X8012500Y-12779929D01*
X7998214Y-12837071D01*
X7983928Y-12865643D01*
X7969643Y-12879929D01*
X7941071Y-12894214D01*
X7912500Y-12894214D01*
X7883928Y-12879929D01*
X7869643Y-12865643D01*
X7855357Y-12837071D01*
X7841071Y-12779929D01*
X7841071Y-12708500D01*
X7855357Y-12651357D01*
X7869643Y-12622786D01*
X7883928Y-12608500D01*
X7912500Y-12594214D01*
X8126786Y-12594214D02*
X8126786Y-12651357D01*
X8241071Y-12594214D02*
X8241071Y-12651357D01*
X8683928Y-13008500D02*
X8669643Y-12994214D01*
X8641071Y-12951357D01*
X8626786Y-12922786D01*
X8612500Y-12879929D01*
X8598214Y-12808500D01*
X8598214Y-12751357D01*
X8612500Y-12679929D01*
X8626786Y-12637071D01*
X8641071Y-12608500D01*
X8669643Y-12565643D01*
X8683928Y-12551357D01*
X8941071Y-12594214D02*
X8798214Y-12594214D01*
X8783928Y-12737071D01*
X8798214Y-12722786D01*
X8826786Y-12708500D01*
X8898214Y-12708500D01*
X8926786Y-12722786D01*
X8941071Y-12737071D01*
X8955357Y-12765643D01*
X8955357Y-12837071D01*
X8941071Y-12865643D01*
X8926786Y-12879929D01*
X8898214Y-12894214D01*
X8826786Y-12894214D01*
X8798214Y-12879929D01*
X8783928Y-12865643D01*
X9241071Y-12894214D02*
X9069643Y-12894214D01*
X9155357Y-12894214D02*
X9155357Y-12594214D01*
X9126786Y-12637071D01*
X9098214Y-12665643D01*
X9069643Y-12679929D01*
X9598214Y-12894214D02*
X9598214Y-12594214D01*
X9726786Y-12894214D02*
X9726786Y-12737071D01*
X9712500Y-12708500D01*
X9683928Y-12694214D01*
X9641071Y-12694214D01*
X9612500Y-12708500D01*
X9598214Y-12722786D01*
X9912500Y-12894214D02*
X9883928Y-12879929D01*
X9869643Y-12865643D01*
X9855357Y-12837071D01*
X9855357Y-12751357D01*
X9869643Y-12722786D01*
X9883928Y-12708500D01*
X9912500Y-12694214D01*
X9955357Y-12694214D01*
X9983928Y-12708500D01*
X9998214Y-12722786D01*
X10012500Y-12751357D01*
X10012500Y-12837071D01*
X9998214Y-12865643D01*
X9983928Y-12879929D01*
X9955357Y-12894214D01*
X9912500Y-12894214D01*
X10183928Y-12894214D02*
X10155357Y-12879929D01*
X10141071Y-12851357D01*
X10141071Y-12594214D01*
X10412500Y-12879929D02*
X10383928Y-12894214D01*
X10326786Y-12894214D01*
X10298214Y-12879929D01*
X10283928Y-12851357D01*
X10283928Y-12737071D01*
X10298214Y-12708500D01*
X10326786Y-12694214D01*
X10383928Y-12694214D01*
X10412500Y-12708500D01*
X10426786Y-12737071D01*
X10426786Y-12765643D01*
X10283928Y-12794214D01*
X10541071Y-12879929D02*
X10569643Y-12894214D01*
X10626786Y-12894214D01*
X10655357Y-12879929D01*
X10669643Y-12851357D01*
X10669643Y-12837071D01*
X10655357Y-12808500D01*
X10626786Y-12794214D01*
X10583928Y-12794214D01*
X10555357Y-12779929D01*
X10541071Y-12751357D01*
X10541071Y-12737071D01*
X10555357Y-12708500D01*
X10583928Y-12694214D01*
X10626786Y-12694214D01*
X10655357Y-12708500D01*
X10769643Y-13008500D02*
X10783928Y-12994214D01*
X10812500Y-12951357D01*
X10826786Y-12922786D01*
X10841071Y-12879929D01*
X10855357Y-12808500D01*
X10855357Y-12751357D01*
X10841071Y-12679929D01*
X10826786Y-12637071D01*
X10812500Y-12608500D01*
X10783928Y-12565643D01*
X10769643Y-12551357D01*
X3957500Y-13114500D02*
X3957500Y-13194500D01*
X3917500Y-13154500D02*
X3997500Y-13154500D01*
X4341071Y-12990214D02*
X4369643Y-12990214D01*
X4398214Y-13004500D01*
X4412500Y-13018786D01*
X4426786Y-13047357D01*
X4441071Y-13104500D01*
X4441071Y-13175929D01*
X4426786Y-13233071D01*
X4412500Y-13261643D01*
X4398214Y-13275929D01*
X4369643Y-13290214D01*
X4341071Y-13290214D01*
X4312500Y-13275929D01*
X4298214Y-13261643D01*
X4283928Y-13233071D01*
X4269643Y-13175929D01*
X4269643Y-13104500D01*
X4283928Y-13047357D01*
X4298214Y-13018786D01*
X4312500Y-13004500D01*
X4341071Y-12990214D01*
X4569643Y-13261643D02*
X4583928Y-13275929D01*
X4569643Y-13290214D01*
X4555357Y-13275929D01*
X4569643Y-13261643D01*
X4569643Y-13290214D01*
X4755357Y-13118786D02*
X4726786Y-13104500D01*
X4712500Y-13090214D01*
X4698214Y-13061643D01*
X4698214Y-13047357D01*
X4712500Y-13018786D01*
X4726786Y-13004500D01*
X4755357Y-12990214D01*
X4812500Y-12990214D01*
X4841071Y-13004500D01*
X4855357Y-13018786D01*
X4869643Y-13047357D01*
X4869643Y-13061643D01*
X4855357Y-13090214D01*
X4841071Y-13104500D01*
X4812500Y-13118786D01*
X4755357Y-13118786D01*
X4726786Y-13133071D01*
X4712500Y-13147357D01*
X4698214Y-13175929D01*
X4698214Y-13233071D01*
X4712500Y-13261643D01*
X4726786Y-13275929D01*
X4755357Y-13290214D01*
X4812500Y-13290214D01*
X4841071Y-13275929D01*
X4855357Y-13261643D01*
X4869643Y-13233071D01*
X4869643Y-13175929D01*
X4855357Y-13147357D01*
X4841071Y-13133071D01*
X4812500Y-13118786D01*
X5055357Y-12990214D02*
X5083928Y-12990214D01*
X5112500Y-13004500D01*
X5126786Y-13018786D01*
X5141071Y-13047357D01*
X5155357Y-13104500D01*
X5155357Y-13175929D01*
X5141071Y-13233071D01*
X5126786Y-13261643D01*
X5112500Y-13275929D01*
X5083928Y-13290214D01*
X5055357Y-13290214D01*
X5026786Y-13275929D01*
X5012500Y-13261643D01*
X4998214Y-13233071D01*
X4983928Y-13175929D01*
X4983928Y-13104500D01*
X4998214Y-13047357D01*
X5012500Y-13018786D01*
X5026786Y-13004500D01*
X5055357Y-12990214D01*
X5283928Y-13290214D02*
X5283928Y-13090214D01*
X5283928Y-13118786D02*
X5298214Y-13104500D01*
X5326786Y-13090214D01*
X5369643Y-13090214D01*
X5398214Y-13104500D01*
X5412500Y-13133071D01*
X5412500Y-13290214D01*
X5412500Y-13133071D02*
X5426786Y-13104500D01*
X5455357Y-13090214D01*
X5498214Y-13090214D01*
X5526786Y-13104500D01*
X5541071Y-13133071D01*
X5541071Y-13290214D01*
X5683928Y-13290214D02*
X5683928Y-13090214D01*
X5683928Y-13118786D02*
X5698214Y-13104500D01*
X5726786Y-13090214D01*
X5769643Y-13090214D01*
X5798214Y-13104500D01*
X5812500Y-13133071D01*
X5812500Y-13290214D01*
X5812500Y-13133071D02*
X5826786Y-13104500D01*
X5855357Y-13090214D01*
X5898214Y-13090214D01*
X5926786Y-13104500D01*
X5941071Y-13133071D01*
X5941071Y-13290214D01*
X6526786Y-12975929D02*
X6269643Y-13361643D01*
X6912500Y-12990214D02*
X6941071Y-12990214D01*
X6969643Y-13004500D01*
X6983928Y-13018786D01*
X6998214Y-13047357D01*
X7012500Y-13104500D01*
X7012500Y-13175929D01*
X6998214Y-13233071D01*
X6983928Y-13261643D01*
X6969643Y-13275929D01*
X6941071Y-13290214D01*
X6912500Y-13290214D01*
X6883928Y-13275929D01*
X6869643Y-13261643D01*
X6855357Y-13233071D01*
X6841071Y-13175929D01*
X6841071Y-13104500D01*
X6855357Y-13047357D01*
X6869643Y-13018786D01*
X6883928Y-13004500D01*
X6912500Y-12990214D01*
X7141071Y-13261643D02*
X7155357Y-13275929D01*
X7141071Y-13290214D01*
X7126786Y-13275929D01*
X7141071Y-13261643D01*
X7141071Y-13290214D01*
X7341071Y-12990214D02*
X7369643Y-12990214D01*
X7398214Y-13004500D01*
X7412500Y-13018786D01*
X7426786Y-13047357D01*
X7441071Y-13104500D01*
X7441071Y-13175929D01*
X7426786Y-13233071D01*
X7412500Y-13261643D01*
X7398214Y-13275929D01*
X7369643Y-13290214D01*
X7341071Y-13290214D01*
X7312500Y-13275929D01*
X7298214Y-13261643D01*
X7283928Y-13233071D01*
X7269643Y-13175929D01*
X7269643Y-13104500D01*
X7283928Y-13047357D01*
X7298214Y-13018786D01*
X7312500Y-13004500D01*
X7341071Y-12990214D01*
X7541071Y-12990214D02*
X7726786Y-12990214D01*
X7626786Y-13104500D01*
X7669643Y-13104500D01*
X7698214Y-13118786D01*
X7712500Y-13133071D01*
X7726786Y-13161643D01*
X7726786Y-13233071D01*
X7712500Y-13261643D01*
X7698214Y-13275929D01*
X7669643Y-13290214D01*
X7583928Y-13290214D01*
X7555357Y-13275929D01*
X7541071Y-13261643D01*
X8012500Y-13290214D02*
X7841071Y-13290214D01*
X7926786Y-13290214D02*
X7926786Y-12990214D01*
X7898214Y-13033071D01*
X7869643Y-13061643D01*
X7841071Y-13075929D01*
X8126786Y-12990214D02*
X8126786Y-13047357D01*
X8241071Y-12990214D02*
X8241071Y-13047357D01*
X8683928Y-13404500D02*
X8669643Y-13390214D01*
X8641071Y-13347357D01*
X8626786Y-13318786D01*
X8612500Y-13275929D01*
X8598214Y-13204500D01*
X8598214Y-13147357D01*
X8612500Y-13075929D01*
X8626786Y-13033071D01*
X8641071Y-13004500D01*
X8669643Y-12961643D01*
X8683928Y-12947357D01*
X8955357Y-13290214D02*
X8783928Y-13290214D01*
X8869643Y-13290214D02*
X8869643Y-12990214D01*
X8841071Y-13033071D01*
X8812500Y-13061643D01*
X8783928Y-13075929D01*
X9212500Y-13090214D02*
X9212500Y-13290214D01*
X9141071Y-12975929D02*
X9069643Y-13190214D01*
X9255357Y-13190214D01*
X9598214Y-13290214D02*
X9598214Y-12990214D01*
X9726786Y-13290214D02*
X9726786Y-13133071D01*
X9712500Y-13104500D01*
X9683928Y-13090214D01*
X9641071Y-13090214D01*
X9612500Y-13104500D01*
X9598214Y-13118786D01*
X9912500Y-13290214D02*
X9883928Y-13275929D01*
X9869643Y-13261643D01*
X9855357Y-13233071D01*
X9855357Y-13147357D01*
X9869643Y-13118786D01*
X9883928Y-13104500D01*
X9912500Y-13090214D01*
X9955357Y-13090214D01*
X9983928Y-13104500D01*
X9998214Y-13118786D01*
X10012500Y-13147357D01*
X10012500Y-13233071D01*
X9998214Y-13261643D01*
X9983928Y-13275929D01*
X9955357Y-13290214D01*
X9912500Y-13290214D01*
X10183928Y-13290214D02*
X10155357Y-13275929D01*
X10141071Y-13247357D01*
X10141071Y-12990214D01*
X10412500Y-13275929D02*
X10383928Y-13290214D01*
X10326786Y-13290214D01*
X10298214Y-13275929D01*
X10283928Y-13247357D01*
X10283928Y-13133071D01*
X10298214Y-13104500D01*
X10326786Y-13090214D01*
X10383928Y-13090214D01*
X10412500Y-13104500D01*
X10426786Y-13133071D01*
X10426786Y-13161643D01*
X10283928Y-13190214D01*
X10541071Y-13275929D02*
X10569643Y-13290214D01*
X10626786Y-13290214D01*
X10655357Y-13275929D01*
X10669643Y-13247357D01*
X10669643Y-13233071D01*
X10655357Y-13204500D01*
X10626786Y-13190214D01*
X10583928Y-13190214D01*
X10555357Y-13175929D01*
X10541071Y-13147357D01*
X10541071Y-13133071D01*
X10555357Y-13104500D01*
X10583928Y-13090214D01*
X10626786Y-13090214D01*
X10655357Y-13104500D01*
X10769643Y-13404500D02*
X10783928Y-13390214D01*
X10812500Y-13347357D01*
X10826786Y-13318786D01*
X10841071Y-13275929D01*
X10855357Y-13204500D01*
X10855357Y-13147357D01*
X10841071Y-13075929D01*
X10826786Y-13033071D01*
X10812500Y-13004500D01*
X10783928Y-12961643D01*
X10769643Y-12947357D01*
X3982856Y-13585856D02*
X3982856Y-13515144D01*
X3912144Y-13515144D01*
X3912144Y-13585856D01*
X3982856Y-13585856D01*
X4441071Y-13686214D02*
X4269643Y-13686214D01*
X4355357Y-13686214D02*
X4355357Y-13386214D01*
X4326786Y-13429071D01*
X4298214Y-13457643D01*
X4269643Y-13471929D01*
X4569643Y-13657643D02*
X4583928Y-13671929D01*
X4569643Y-13686214D01*
X4555357Y-13671929D01*
X4569643Y-13657643D01*
X4569643Y-13686214D01*
X4769643Y-13386214D02*
X4798214Y-13386214D01*
X4826786Y-13400500D01*
X4841071Y-13414786D01*
X4855357Y-13443357D01*
X4869643Y-13500500D01*
X4869643Y-13571929D01*
X4855357Y-13629071D01*
X4841071Y-13657643D01*
X4826786Y-13671929D01*
X4798214Y-13686214D01*
X4769643Y-13686214D01*
X4741071Y-13671929D01*
X4726786Y-13657643D01*
X4712500Y-13629071D01*
X4698214Y-13571929D01*
X4698214Y-13500500D01*
X4712500Y-13443357D01*
X4726786Y-13414786D01*
X4741071Y-13400500D01*
X4769643Y-13386214D01*
X5055357Y-13386214D02*
X5083928Y-13386214D01*
X5112500Y-13400500D01*
X5126786Y-13414786D01*
X5141071Y-13443357D01*
X5155357Y-13500500D01*
X5155357Y-13571929D01*
X5141071Y-13629071D01*
X5126786Y-13657643D01*
X5112500Y-13671929D01*
X5083928Y-13686214D01*
X5055357Y-13686214D01*
X5026786Y-13671929D01*
X5012500Y-13657643D01*
X4998214Y-13629071D01*
X4983928Y-13571929D01*
X4983928Y-13500500D01*
X4998214Y-13443357D01*
X5012500Y-13414786D01*
X5026786Y-13400500D01*
X5055357Y-13386214D01*
X5283928Y-13686214D02*
X5283928Y-13486214D01*
X5283928Y-13514786D02*
X5298214Y-13500500D01*
X5326786Y-13486214D01*
X5369643Y-13486214D01*
X5398214Y-13500500D01*
X5412500Y-13529071D01*
X5412500Y-13686214D01*
X5412500Y-13529071D02*
X5426786Y-13500500D01*
X5455357Y-13486214D01*
X5498214Y-13486214D01*
X5526786Y-13500500D01*
X5541071Y-13529071D01*
X5541071Y-13686214D01*
X5683928Y-13686214D02*
X5683928Y-13486214D01*
X5683928Y-13514786D02*
X5698214Y-13500500D01*
X5726786Y-13486214D01*
X5769643Y-13486214D01*
X5798214Y-13500500D01*
X5812500Y-13529071D01*
X5812500Y-13686214D01*
X5812500Y-13529071D02*
X5826786Y-13500500D01*
X5855357Y-13486214D01*
X5898214Y-13486214D01*
X5926786Y-13500500D01*
X5941071Y-13529071D01*
X5941071Y-13686214D01*
X6526786Y-13371929D02*
X6269643Y-13757643D01*
X6912500Y-13386214D02*
X6941071Y-13386214D01*
X6969643Y-13400500D01*
X6983928Y-13414786D01*
X6998214Y-13443357D01*
X7012500Y-13500500D01*
X7012500Y-13571929D01*
X6998214Y-13629071D01*
X6983928Y-13657643D01*
X6969643Y-13671929D01*
X6941071Y-13686214D01*
X6912500Y-13686214D01*
X6883928Y-13671929D01*
X6869643Y-13657643D01*
X6855357Y-13629071D01*
X6841071Y-13571929D01*
X6841071Y-13500500D01*
X6855357Y-13443357D01*
X6869643Y-13414786D01*
X6883928Y-13400500D01*
X6912500Y-13386214D01*
X7141071Y-13657643D02*
X7155357Y-13671929D01*
X7141071Y-13686214D01*
X7126786Y-13671929D01*
X7141071Y-13657643D01*
X7141071Y-13686214D01*
X7341071Y-13386214D02*
X7369643Y-13386214D01*
X7398214Y-13400500D01*
X7412500Y-13414786D01*
X7426786Y-13443357D01*
X7441071Y-13500500D01*
X7441071Y-13571929D01*
X7426786Y-13629071D01*
X7412500Y-13657643D01*
X7398214Y-13671929D01*
X7369643Y-13686214D01*
X7341071Y-13686214D01*
X7312500Y-13671929D01*
X7298214Y-13657643D01*
X7283928Y-13629071D01*
X7269643Y-13571929D01*
X7269643Y-13500500D01*
X7283928Y-13443357D01*
X7298214Y-13414786D01*
X7312500Y-13400500D01*
X7341071Y-13386214D01*
X7541071Y-13386214D02*
X7726786Y-13386214D01*
X7626786Y-13500500D01*
X7669643Y-13500500D01*
X7698214Y-13514786D01*
X7712500Y-13529071D01*
X7726786Y-13557643D01*
X7726786Y-13629071D01*
X7712500Y-13657643D01*
X7698214Y-13671929D01*
X7669643Y-13686214D01*
X7583928Y-13686214D01*
X7555357Y-13671929D01*
X7541071Y-13657643D01*
X7869643Y-13686214D02*
X7926786Y-13686214D01*
X7955357Y-13671929D01*
X7969643Y-13657643D01*
X7998214Y-13614786D01*
X8012500Y-13557643D01*
X8012500Y-13443357D01*
X7998214Y-13414786D01*
X7983928Y-13400500D01*
X7955357Y-13386214D01*
X7898214Y-13386214D01*
X7869643Y-13400500D01*
X7855357Y-13414786D01*
X7841071Y-13443357D01*
X7841071Y-13514786D01*
X7855357Y-13543357D01*
X7869643Y-13557643D01*
X7898214Y-13571929D01*
X7955357Y-13571929D01*
X7983928Y-13557643D01*
X7998214Y-13543357D01*
X8012500Y-13514786D01*
X8126786Y-13386214D02*
X8126786Y-13443357D01*
X8241071Y-13386214D02*
X8241071Y-13443357D01*
X8683928Y-13800500D02*
X8669643Y-13786214D01*
X8641071Y-13743357D01*
X8626786Y-13714786D01*
X8612500Y-13671929D01*
X8598214Y-13600500D01*
X8598214Y-13543357D01*
X8612500Y-13471929D01*
X8626786Y-13429071D01*
X8641071Y-13400500D01*
X8669643Y-13357643D01*
X8683928Y-13343357D01*
X8955357Y-13686214D02*
X8783928Y-13686214D01*
X8869643Y-13686214D02*
X8869643Y-13386214D01*
X8841071Y-13429071D01*
X8812500Y-13457643D01*
X8783928Y-13471929D01*
X9212500Y-13486214D02*
X9212500Y-13686214D01*
X9141071Y-13371929D02*
X9069643Y-13586214D01*
X9255357Y-13586214D01*
X9598214Y-13686214D02*
X9598214Y-13386214D01*
X9726786Y-13686214D02*
X9726786Y-13529071D01*
X9712500Y-13500500D01*
X9683928Y-13486214D01*
X9641071Y-13486214D01*
X9612500Y-13500500D01*
X9598214Y-13514786D01*
X9912500Y-13686214D02*
X9883928Y-13671929D01*
X9869643Y-13657643D01*
X9855357Y-13629071D01*
X9855357Y-13543357D01*
X9869643Y-13514786D01*
X9883928Y-13500500D01*
X9912500Y-13486214D01*
X9955357Y-13486214D01*
X9983928Y-13500500D01*
X9998214Y-13514786D01*
X10012500Y-13543357D01*
X10012500Y-13629071D01*
X9998214Y-13657643D01*
X9983928Y-13671929D01*
X9955357Y-13686214D01*
X9912500Y-13686214D01*
X10183928Y-13686214D02*
X10155357Y-13671929D01*
X10141071Y-13643357D01*
X10141071Y-13386214D01*
X10412500Y-13671929D02*
X10383928Y-13686214D01*
X10326786Y-13686214D01*
X10298214Y-13671929D01*
X10283928Y-13643357D01*
X10283928Y-13529071D01*
X10298214Y-13500500D01*
X10326786Y-13486214D01*
X10383928Y-13486214D01*
X10412500Y-13500500D01*
X10426786Y-13529071D01*
X10426786Y-13557643D01*
X10283928Y-13586214D01*
X10541071Y-13671929D02*
X10569643Y-13686214D01*
X10626786Y-13686214D01*
X10655357Y-13671929D01*
X10669643Y-13643357D01*
X10669643Y-13629071D01*
X10655357Y-13600500D01*
X10626786Y-13586214D01*
X10583928Y-13586214D01*
X10555357Y-13571929D01*
X10541071Y-13543357D01*
X10541071Y-13529071D01*
X10555357Y-13500500D01*
X10583928Y-13486214D01*
X10626786Y-13486214D01*
X10655357Y-13500500D01*
X10769643Y-13800500D02*
X10783928Y-13786214D01*
X10812500Y-13743357D01*
X10826786Y-13714786D01*
X10841071Y-13671929D01*
X10855357Y-13600500D01*
X10855357Y-13543357D01*
X10841071Y-13471929D01*
X10826786Y-13429071D01*
X10812500Y-13400500D01*
X10783928Y-13357643D01*
X10769643Y-13343357D01*
X3942500Y-14001500D02*
X3997500Y-13946500D01*
X3942500Y-13891500D01*
X3887500Y-13946500D01*
X3942500Y-14001500D01*
X4441071Y-14082214D02*
X4269643Y-14082214D01*
X4355357Y-14082214D02*
X4355357Y-13782214D01*
X4326786Y-13825071D01*
X4298214Y-13853643D01*
X4269643Y-13867929D01*
X4569643Y-14053643D02*
X4583928Y-14067929D01*
X4569643Y-14082214D01*
X4555357Y-14067929D01*
X4569643Y-14053643D01*
X4569643Y-14082214D01*
X4869643Y-14082214D02*
X4698214Y-14082214D01*
X4783928Y-14082214D02*
X4783928Y-13782214D01*
X4755357Y-13825071D01*
X4726786Y-13853643D01*
X4698214Y-13867929D01*
X5055357Y-13782214D02*
X5083928Y-13782214D01*
X5112500Y-13796500D01*
X5126786Y-13810786D01*
X5141071Y-13839357D01*
X5155357Y-13896500D01*
X5155357Y-13967929D01*
X5141071Y-14025071D01*
X5126786Y-14053643D01*
X5112500Y-14067929D01*
X5083928Y-14082214D01*
X5055357Y-14082214D01*
X5026786Y-14067929D01*
X5012500Y-14053643D01*
X4998214Y-14025071D01*
X4983928Y-13967929D01*
X4983928Y-13896500D01*
X4998214Y-13839357D01*
X5012500Y-13810786D01*
X5026786Y-13796500D01*
X5055357Y-13782214D01*
X5283928Y-14082214D02*
X5283928Y-13882214D01*
X5283928Y-13910786D02*
X5298214Y-13896500D01*
X5326786Y-13882214D01*
X5369643Y-13882214D01*
X5398214Y-13896500D01*
X5412500Y-13925071D01*
X5412500Y-14082214D01*
X5412500Y-13925071D02*
X5426786Y-13896500D01*
X5455357Y-13882214D01*
X5498214Y-13882214D01*
X5526786Y-13896500D01*
X5541071Y-13925071D01*
X5541071Y-14082214D01*
X5683928Y-14082214D02*
X5683928Y-13882214D01*
X5683928Y-13910786D02*
X5698214Y-13896500D01*
X5726786Y-13882214D01*
X5769643Y-13882214D01*
X5798214Y-13896500D01*
X5812500Y-13925071D01*
X5812500Y-14082214D01*
X5812500Y-13925071D02*
X5826786Y-13896500D01*
X5855357Y-13882214D01*
X5898214Y-13882214D01*
X5926786Y-13896500D01*
X5941071Y-13925071D01*
X5941071Y-14082214D01*
X6526786Y-13767929D02*
X6269643Y-14153643D01*
X6912500Y-13782214D02*
X6941071Y-13782214D01*
X6969643Y-13796500D01*
X6983928Y-13810786D01*
X6998214Y-13839357D01*
X7012500Y-13896500D01*
X7012500Y-13967929D01*
X6998214Y-14025071D01*
X6983928Y-14053643D01*
X6969643Y-14067929D01*
X6941071Y-14082214D01*
X6912500Y-14082214D01*
X6883928Y-14067929D01*
X6869643Y-14053643D01*
X6855357Y-14025071D01*
X6841071Y-13967929D01*
X6841071Y-13896500D01*
X6855357Y-13839357D01*
X6869643Y-13810786D01*
X6883928Y-13796500D01*
X6912500Y-13782214D01*
X7141071Y-14053643D02*
X7155357Y-14067929D01*
X7141071Y-14082214D01*
X7126786Y-14067929D01*
X7141071Y-14053643D01*
X7141071Y-14082214D01*
X7341071Y-13782214D02*
X7369643Y-13782214D01*
X7398214Y-13796500D01*
X7412500Y-13810786D01*
X7426786Y-13839357D01*
X7441071Y-13896500D01*
X7441071Y-13967929D01*
X7426786Y-14025071D01*
X7412500Y-14053643D01*
X7398214Y-14067929D01*
X7369643Y-14082214D01*
X7341071Y-14082214D01*
X7312500Y-14067929D01*
X7298214Y-14053643D01*
X7283928Y-14025071D01*
X7269643Y-13967929D01*
X7269643Y-13896500D01*
X7283928Y-13839357D01*
X7298214Y-13810786D01*
X7312500Y-13796500D01*
X7341071Y-13782214D01*
X7698214Y-13882214D02*
X7698214Y-14082214D01*
X7626786Y-13767929D02*
X7555357Y-13982214D01*
X7741071Y-13982214D01*
X7826786Y-13782214D02*
X8012500Y-13782214D01*
X7912500Y-13896500D01*
X7955357Y-13896500D01*
X7983928Y-13910786D01*
X7998214Y-13925071D01*
X8012500Y-13953643D01*
X8012500Y-14025071D01*
X7998214Y-14053643D01*
X7983928Y-14067929D01*
X7955357Y-14082214D01*
X7869643Y-14082214D01*
X7841071Y-14067929D01*
X7826786Y-14053643D01*
X8126786Y-13782214D02*
X8126786Y-13839357D01*
X8241071Y-13782214D02*
X8241071Y-13839357D01*
X8683928Y-14196500D02*
X8669643Y-14182214D01*
X8641071Y-14139357D01*
X8626786Y-14110786D01*
X8612500Y-14067929D01*
X8598214Y-13996500D01*
X8598214Y-13939357D01*
X8612500Y-13867929D01*
X8626786Y-13825071D01*
X8641071Y-13796500D01*
X8669643Y-13753643D01*
X8683928Y-13739357D01*
X8926786Y-13882214D02*
X8926786Y-14082214D01*
X8855357Y-13767929D02*
X8783928Y-13982214D01*
X8969643Y-13982214D01*
X9312500Y-14082214D02*
X9312500Y-13782214D01*
X9441071Y-14082214D02*
X9441071Y-13925071D01*
X9426786Y-13896500D01*
X9398214Y-13882214D01*
X9355357Y-13882214D01*
X9326786Y-13896500D01*
X9312500Y-13910786D01*
X9626786Y-14082214D02*
X9598214Y-14067929D01*
X9583928Y-14053643D01*
X9569643Y-14025071D01*
X9569643Y-13939357D01*
X9583928Y-13910786D01*
X9598214Y-13896500D01*
X9626786Y-13882214D01*
X9669643Y-13882214D01*
X9698214Y-13896500D01*
X9712500Y-13910786D01*
X9726786Y-13939357D01*
X9726786Y-14025071D01*
X9712500Y-14053643D01*
X9698214Y-14067929D01*
X9669643Y-14082214D01*
X9626786Y-14082214D01*
X9898214Y-14082214D02*
X9869643Y-14067929D01*
X9855357Y-14039357D01*
X9855357Y-13782214D01*
X10126786Y-14067929D02*
X10098214Y-14082214D01*
X10041071Y-14082214D01*
X10012500Y-14067929D01*
X9998214Y-14039357D01*
X9998214Y-13925071D01*
X10012500Y-13896500D01*
X10041071Y-13882214D01*
X10098214Y-13882214D01*
X10126786Y-13896500D01*
X10141071Y-13925071D01*
X10141071Y-13953643D01*
X9998214Y-13982214D01*
X10255357Y-14067929D02*
X10283928Y-14082214D01*
X10341071Y-14082214D01*
X10369643Y-14067929D01*
X10383928Y-14039357D01*
X10383928Y-14025071D01*
X10369643Y-13996500D01*
X10341071Y-13982214D01*
X10298214Y-13982214D01*
X10269643Y-13967929D01*
X10255357Y-13939357D01*
X10255357Y-13925071D01*
X10269643Y-13896500D01*
X10298214Y-13882214D01*
X10341071Y-13882214D01*
X10369643Y-13896500D01*
X10483928Y-14196500D02*
X10498214Y-14182214D01*
X10526786Y-14139357D01*
X10541071Y-14110786D01*
X10555357Y-14067929D01*
X10569643Y-13996500D01*
X10569643Y-13939357D01*
X10555357Y-13867929D01*
X10541071Y-13825071D01*
X10526786Y-13796500D01*
X10498214Y-13753643D01*
X10483928Y-13739357D01*
X3777500Y-14232500D02*
X3997500Y-14452500D01*
X3997500Y-14232500D02*
X3777500Y-14452500D01*
X3997500Y-14342500D02*
G75*
G03X3997500Y-14342500I-110000J0D01*
G01*
X4269643Y-14206786D02*
X4283928Y-14192500D01*
X4312500Y-14178214D01*
X4383928Y-14178214D01*
X4412500Y-14192500D01*
X4426786Y-14206786D01*
X4441071Y-14235357D01*
X4441071Y-14263929D01*
X4426786Y-14306786D01*
X4255357Y-14478214D01*
X4441071Y-14478214D01*
X4569643Y-14449643D02*
X4583928Y-14463929D01*
X4569643Y-14478214D01*
X4555357Y-14463929D01*
X4569643Y-14449643D01*
X4569643Y-14478214D01*
X4698214Y-14206786D02*
X4712500Y-14192500D01*
X4741071Y-14178214D01*
X4812500Y-14178214D01*
X4841071Y-14192500D01*
X4855357Y-14206786D01*
X4869643Y-14235357D01*
X4869643Y-14263929D01*
X4855357Y-14306786D01*
X4683928Y-14478214D01*
X4869643Y-14478214D01*
X5055357Y-14178214D02*
X5083928Y-14178214D01*
X5112500Y-14192500D01*
X5126786Y-14206786D01*
X5141071Y-14235357D01*
X5155357Y-14292500D01*
X5155357Y-14363929D01*
X5141071Y-14421071D01*
X5126786Y-14449643D01*
X5112500Y-14463929D01*
X5083928Y-14478214D01*
X5055357Y-14478214D01*
X5026786Y-14463929D01*
X5012500Y-14449643D01*
X4998214Y-14421071D01*
X4983928Y-14363929D01*
X4983928Y-14292500D01*
X4998214Y-14235357D01*
X5012500Y-14206786D01*
X5026786Y-14192500D01*
X5055357Y-14178214D01*
X5283928Y-14478214D02*
X5283928Y-14278214D01*
X5283928Y-14306786D02*
X5298214Y-14292500D01*
X5326786Y-14278214D01*
X5369643Y-14278214D01*
X5398214Y-14292500D01*
X5412500Y-14321071D01*
X5412500Y-14478214D01*
X5412500Y-14321071D02*
X5426786Y-14292500D01*
X5455357Y-14278214D01*
X5498214Y-14278214D01*
X5526786Y-14292500D01*
X5541071Y-14321071D01*
X5541071Y-14478214D01*
X5683928Y-14478214D02*
X5683928Y-14278214D01*
X5683928Y-14306786D02*
X5698214Y-14292500D01*
X5726786Y-14278214D01*
X5769643Y-14278214D01*
X5798214Y-14292500D01*
X5812500Y-14321071D01*
X5812500Y-14478214D01*
X5812500Y-14321071D02*
X5826786Y-14292500D01*
X5855357Y-14278214D01*
X5898214Y-14278214D01*
X5926786Y-14292500D01*
X5941071Y-14321071D01*
X5941071Y-14478214D01*
X6526786Y-14163929D02*
X6269643Y-14549643D01*
X6912500Y-14178214D02*
X6941071Y-14178214D01*
X6969643Y-14192500D01*
X6983928Y-14206786D01*
X6998214Y-14235357D01*
X7012500Y-14292500D01*
X7012500Y-14363929D01*
X6998214Y-14421071D01*
X6983928Y-14449643D01*
X6969643Y-14463929D01*
X6941071Y-14478214D01*
X6912500Y-14478214D01*
X6883928Y-14463929D01*
X6869643Y-14449643D01*
X6855357Y-14421071D01*
X6841071Y-14363929D01*
X6841071Y-14292500D01*
X6855357Y-14235357D01*
X6869643Y-14206786D01*
X6883928Y-14192500D01*
X6912500Y-14178214D01*
X7141071Y-14449643D02*
X7155357Y-14463929D01*
X7141071Y-14478214D01*
X7126786Y-14463929D01*
X7141071Y-14449643D01*
X7141071Y-14478214D01*
X7341071Y-14178214D02*
X7369643Y-14178214D01*
X7398214Y-14192500D01*
X7412500Y-14206786D01*
X7426786Y-14235357D01*
X7441071Y-14292500D01*
X7441071Y-14363929D01*
X7426786Y-14421071D01*
X7412500Y-14449643D01*
X7398214Y-14463929D01*
X7369643Y-14478214D01*
X7341071Y-14478214D01*
X7312500Y-14463929D01*
X7298214Y-14449643D01*
X7283928Y-14421071D01*
X7269643Y-14363929D01*
X7269643Y-14292500D01*
X7283928Y-14235357D01*
X7298214Y-14206786D01*
X7312500Y-14192500D01*
X7341071Y-14178214D01*
X7612500Y-14306786D02*
X7583928Y-14292500D01*
X7569643Y-14278214D01*
X7555357Y-14249643D01*
X7555357Y-14235357D01*
X7569643Y-14206786D01*
X7583928Y-14192500D01*
X7612500Y-14178214D01*
X7669643Y-14178214D01*
X7698214Y-14192500D01*
X7712500Y-14206786D01*
X7726786Y-14235357D01*
X7726786Y-14249643D01*
X7712500Y-14278214D01*
X7698214Y-14292500D01*
X7669643Y-14306786D01*
X7612500Y-14306786D01*
X7583928Y-14321071D01*
X7569643Y-14335357D01*
X7555357Y-14363929D01*
X7555357Y-14421071D01*
X7569643Y-14449643D01*
X7583928Y-14463929D01*
X7612500Y-14478214D01*
X7669643Y-14478214D01*
X7698214Y-14463929D01*
X7712500Y-14449643D01*
X7726786Y-14421071D01*
X7726786Y-14363929D01*
X7712500Y-14335357D01*
X7698214Y-14321071D01*
X7669643Y-14306786D01*
X7826786Y-14178214D02*
X8026786Y-14178214D01*
X7898214Y-14478214D01*
X8126786Y-14178214D02*
X8126786Y-14235357D01*
X8241071Y-14178214D02*
X8241071Y-14235357D01*
X8683928Y-14592500D02*
X8669643Y-14578214D01*
X8641071Y-14535357D01*
X8626786Y-14506786D01*
X8612500Y-14463929D01*
X8598214Y-14392500D01*
X8598214Y-14335357D01*
X8612500Y-14263929D01*
X8626786Y-14221071D01*
X8641071Y-14192500D01*
X8669643Y-14149643D01*
X8683928Y-14135357D01*
X8926786Y-14278214D02*
X8926786Y-14478214D01*
X8855357Y-14163929D02*
X8783928Y-14378214D01*
X8969643Y-14378214D01*
X9312500Y-14478214D02*
X9312500Y-14178214D01*
X9441071Y-14478214D02*
X9441071Y-14321071D01*
X9426786Y-14292500D01*
X9398214Y-14278214D01*
X9355357Y-14278214D01*
X9326786Y-14292500D01*
X9312500Y-14306786D01*
X9626786Y-14478214D02*
X9598214Y-14463929D01*
X9583928Y-14449643D01*
X9569643Y-14421071D01*
X9569643Y-14335357D01*
X9583928Y-14306786D01*
X9598214Y-14292500D01*
X9626786Y-14278214D01*
X9669643Y-14278214D01*
X9698214Y-14292500D01*
X9712500Y-14306786D01*
X9726786Y-14335357D01*
X9726786Y-14421071D01*
X9712500Y-14449643D01*
X9698214Y-14463929D01*
X9669643Y-14478214D01*
X9626786Y-14478214D01*
X9898214Y-14478214D02*
X9869643Y-14463929D01*
X9855357Y-14435357D01*
X9855357Y-14178214D01*
X10126786Y-14463929D02*
X10098214Y-14478214D01*
X10041071Y-14478214D01*
X10012500Y-14463929D01*
X9998214Y-14435357D01*
X9998214Y-14321071D01*
X10012500Y-14292500D01*
X10041071Y-14278214D01*
X10098214Y-14278214D01*
X10126786Y-14292500D01*
X10141071Y-14321071D01*
X10141071Y-14349643D01*
X9998214Y-14378214D01*
X10255357Y-14463929D02*
X10283928Y-14478214D01*
X10341071Y-14478214D01*
X10369643Y-14463929D01*
X10383928Y-14435357D01*
X10383928Y-14421071D01*
X10369643Y-14392500D01*
X10341071Y-14378214D01*
X10298214Y-14378214D01*
X10269643Y-14363929D01*
X10255357Y-14335357D01*
X10255357Y-14321071D01*
X10269643Y-14292500D01*
X10298214Y-14278214D01*
X10341071Y-14278214D01*
X10369643Y-14292500D01*
X10483928Y-14592500D02*
X10498214Y-14578214D01*
X10526786Y-14535357D01*
X10541071Y-14506786D01*
X10555357Y-14463929D01*
X10569643Y-14392500D01*
X10569643Y-14335357D01*
X10555357Y-14263929D01*
X10541071Y-14221071D01*
X10526786Y-14192500D01*
X10498214Y-14149643D01*
X10483928Y-14135357D01*
M02*
