G04 #@! TF.GenerationSoftware,KiCad,Pcbnew,5.1.5+dfsg1-2build2*
G04 #@! TF.CreationDate,2021-12-20T12:54:09+09:00*
G04 #@! TF.ProjectId,genesis-sound-card-rev2,67656e65-7369-4732-9d73-6f756e642d63,rev?*
G04 #@! TF.SameCoordinates,Original*
G04 #@! TF.FileFunction,Legend,Top*
G04 #@! TF.FilePolarity,Positive*
%FSLAX46Y46*%
G04 Gerber Fmt 4.6, Leading zero omitted, Abs format (unit mm)*
G04 Created by KiCad (PCBNEW 5.1.5+dfsg1-2build2) date 2021-12-20 12:54:09*
%MOMM*%
%LPD*%
G04 APERTURE LIST*
%ADD10C,0.150000*%
%ADD11C,0.100000*%
%ADD12C,0.120000*%
%ADD13R,1.724000X1.724000*%
%ADD14C,1.724000*%
%ADD15O,1.800000X1.800000*%
%ADD16C,1.800000*%
%ADD17O,1.900000X1.900000*%
%ADD18R,1.900000X1.900000*%
%ADD19C,2.200000*%
%ADD20C,3.700000*%
G04 APERTURE END LIST*
D10*
X68937023Y-82766904D02*
X68479880Y-82766904D01*
X68708452Y-82766904D02*
X68708452Y-81966904D01*
X68632261Y-82081190D01*
X68556071Y-82157380D01*
X68479880Y-82195476D01*
X69241785Y-82043095D02*
X69279880Y-82005000D01*
X69356071Y-81966904D01*
X69546547Y-81966904D01*
X69622738Y-82005000D01*
X69660833Y-82043095D01*
X69698928Y-82119285D01*
X69698928Y-82195476D01*
X69660833Y-82309761D01*
X69203690Y-82766904D01*
X69698928Y-82766904D01*
X70537023Y-81966904D02*
X70803690Y-82766904D01*
X71070357Y-81966904D01*
X71679880Y-82728809D02*
X71603690Y-82766904D01*
X71451309Y-82766904D01*
X71375119Y-82728809D01*
X71337023Y-82690714D01*
X71298928Y-82614523D01*
X71298928Y-82385952D01*
X71337023Y-82309761D01*
X71375119Y-82271666D01*
X71451309Y-82233571D01*
X71603690Y-82233571D01*
X71679880Y-82271666D01*
X72365595Y-82728809D02*
X72289404Y-82766904D01*
X72137023Y-82766904D01*
X72060833Y-82728809D01*
X72022738Y-82690714D01*
X71984642Y-82614523D01*
X71984642Y-82385952D01*
X72022738Y-82309761D01*
X72060833Y-82271666D01*
X72137023Y-82233571D01*
X72289404Y-82233571D01*
X72365595Y-82271666D01*
X72937023Y-83071666D02*
X72898928Y-83033571D01*
X72822738Y-82919285D01*
X72784642Y-82843095D01*
X72746547Y-82728809D01*
X72708452Y-82538333D01*
X72708452Y-82385952D01*
X72746547Y-82195476D01*
X72784642Y-82081190D01*
X72822738Y-82005000D01*
X72898928Y-81890714D01*
X72937023Y-81852619D01*
X73165595Y-81966904D02*
X73660833Y-81966904D01*
X73394166Y-82271666D01*
X73508452Y-82271666D01*
X73584642Y-82309761D01*
X73622738Y-82347857D01*
X73660833Y-82424047D01*
X73660833Y-82614523D01*
X73622738Y-82690714D01*
X73584642Y-82728809D01*
X73508452Y-82766904D01*
X73279880Y-82766904D01*
X73203690Y-82728809D01*
X73165595Y-82690714D01*
X74003690Y-82690714D02*
X74041785Y-82728809D01*
X74003690Y-82766904D01*
X73965595Y-82728809D01*
X74003690Y-82690714D01*
X74003690Y-82766904D01*
X74308452Y-81966904D02*
X74803690Y-81966904D01*
X74537023Y-82271666D01*
X74651309Y-82271666D01*
X74727500Y-82309761D01*
X74765595Y-82347857D01*
X74803690Y-82424047D01*
X74803690Y-82614523D01*
X74765595Y-82690714D01*
X74727500Y-82728809D01*
X74651309Y-82766904D01*
X74422738Y-82766904D01*
X74346547Y-82728809D01*
X74308452Y-82690714D01*
X75032261Y-81966904D02*
X75298928Y-82766904D01*
X75565595Y-81966904D01*
X75756071Y-83071666D02*
X75794166Y-83033571D01*
X75870357Y-82919285D01*
X75908452Y-82843095D01*
X75946547Y-82728809D01*
X75984642Y-82538333D01*
X75984642Y-82385952D01*
X75946547Y-82195476D01*
X75908452Y-82081190D01*
X75870357Y-82005000D01*
X75794166Y-81890714D01*
X75756071Y-81852619D01*
X68937023Y-84116904D02*
X68479880Y-84116904D01*
X68708452Y-84116904D02*
X68708452Y-83316904D01*
X68632261Y-83431190D01*
X68556071Y-83507380D01*
X68479880Y-83545476D01*
X69698928Y-84116904D02*
X69241785Y-84116904D01*
X69470357Y-84116904D02*
X69470357Y-83316904D01*
X69394166Y-83431190D01*
X69317976Y-83507380D01*
X69241785Y-83545476D01*
X71070357Y-83355000D02*
X70994166Y-83316904D01*
X70879880Y-83316904D01*
X70765595Y-83355000D01*
X70689404Y-83431190D01*
X70651309Y-83507380D01*
X70613214Y-83659761D01*
X70613214Y-83774047D01*
X70651309Y-83926428D01*
X70689404Y-84002619D01*
X70765595Y-84078809D01*
X70879880Y-84116904D01*
X70956071Y-84116904D01*
X71070357Y-84078809D01*
X71108452Y-84040714D01*
X71108452Y-83774047D01*
X70956071Y-83774047D01*
X71451309Y-84116904D02*
X71451309Y-83316904D01*
X71908452Y-84116904D01*
X71908452Y-83316904D01*
X72289404Y-84116904D02*
X72289404Y-83316904D01*
X72479880Y-83316904D01*
X72594166Y-83355000D01*
X72670357Y-83431190D01*
X72708452Y-83507380D01*
X72746547Y-83659761D01*
X72746547Y-83774047D01*
X72708452Y-83926428D01*
X72670357Y-84002619D01*
X72594166Y-84078809D01*
X72479880Y-84116904D01*
X72289404Y-84116904D01*
X68937023Y-85466904D02*
X68479880Y-85466904D01*
X68708452Y-85466904D02*
X68708452Y-84666904D01*
X68632261Y-84781190D01*
X68556071Y-84857380D01*
X68479880Y-84895476D01*
X69432261Y-84666904D02*
X69508452Y-84666904D01*
X69584642Y-84705000D01*
X69622738Y-84743095D01*
X69660833Y-84819285D01*
X69698928Y-84971666D01*
X69698928Y-85162142D01*
X69660833Y-85314523D01*
X69622738Y-85390714D01*
X69584642Y-85428809D01*
X69508452Y-85466904D01*
X69432261Y-85466904D01*
X69356071Y-85428809D01*
X69317976Y-85390714D01*
X69279880Y-85314523D01*
X69241785Y-85162142D01*
X69241785Y-84971666D01*
X69279880Y-84819285D01*
X69317976Y-84743095D01*
X69356071Y-84705000D01*
X69432261Y-84666904D01*
X71070357Y-84705000D02*
X70994166Y-84666904D01*
X70879880Y-84666904D01*
X70765595Y-84705000D01*
X70689404Y-84781190D01*
X70651309Y-84857380D01*
X70613214Y-85009761D01*
X70613214Y-85124047D01*
X70651309Y-85276428D01*
X70689404Y-85352619D01*
X70765595Y-85428809D01*
X70879880Y-85466904D01*
X70956071Y-85466904D01*
X71070357Y-85428809D01*
X71108452Y-85390714D01*
X71108452Y-85124047D01*
X70956071Y-85124047D01*
X71413214Y-84743095D02*
X71451309Y-84705000D01*
X71527500Y-84666904D01*
X71717976Y-84666904D01*
X71794166Y-84705000D01*
X71832261Y-84743095D01*
X71870357Y-84819285D01*
X71870357Y-84895476D01*
X71832261Y-85009761D01*
X71375119Y-85466904D01*
X71870357Y-85466904D01*
X72365595Y-84666904D02*
X72441785Y-84666904D01*
X72517976Y-84705000D01*
X72556071Y-84743095D01*
X72594166Y-84819285D01*
X72632261Y-84971666D01*
X72632261Y-85162142D01*
X72594166Y-85314523D01*
X72556071Y-85390714D01*
X72517976Y-85428809D01*
X72441785Y-85466904D01*
X72365595Y-85466904D01*
X72289404Y-85428809D01*
X72251309Y-85390714D01*
X72213214Y-85314523D01*
X72175119Y-85162142D01*
X72175119Y-84971666D01*
X72213214Y-84819285D01*
X72251309Y-84743095D01*
X72289404Y-84705000D01*
X72365595Y-84666904D01*
X73203690Y-85771666D02*
X73165595Y-85733571D01*
X73089404Y-85619285D01*
X73051309Y-85543095D01*
X73013214Y-85428809D01*
X72975119Y-85238333D01*
X72975119Y-85085952D01*
X73013214Y-84895476D01*
X73051309Y-84781190D01*
X73089404Y-84705000D01*
X73165595Y-84590714D01*
X73203690Y-84552619D01*
X73965595Y-85466904D02*
X73698928Y-85085952D01*
X73508452Y-85466904D02*
X73508452Y-84666904D01*
X73813214Y-84666904D01*
X73889404Y-84705000D01*
X73927500Y-84743095D01*
X73965595Y-84819285D01*
X73965595Y-84933571D01*
X73927500Y-85009761D01*
X73889404Y-85047857D01*
X73813214Y-85085952D01*
X73508452Y-85085952D01*
X74232261Y-84666904D02*
X74765595Y-85466904D01*
X74765595Y-84666904D02*
X74232261Y-85466904D01*
X75222738Y-84666904D02*
X75298928Y-84666904D01*
X75375119Y-84705000D01*
X75413214Y-84743095D01*
X75451309Y-84819285D01*
X75489404Y-84971666D01*
X75489404Y-85162142D01*
X75451309Y-85314523D01*
X75413214Y-85390714D01*
X75375119Y-85428809D01*
X75298928Y-85466904D01*
X75222738Y-85466904D01*
X75146547Y-85428809D01*
X75108452Y-85390714D01*
X75070357Y-85314523D01*
X75032261Y-85162142D01*
X75032261Y-84971666D01*
X75070357Y-84819285D01*
X75108452Y-84743095D01*
X75146547Y-84705000D01*
X75222738Y-84666904D01*
X75756071Y-85771666D02*
X75794166Y-85733571D01*
X75870357Y-85619285D01*
X75908452Y-85543095D01*
X75946547Y-85428809D01*
X75984642Y-85238333D01*
X75984642Y-85085952D01*
X75946547Y-84895476D01*
X75908452Y-84781190D01*
X75870357Y-84705000D01*
X75794166Y-84590714D01*
X75756071Y-84552619D01*
X68670357Y-86016904D02*
X68746547Y-86016904D01*
X68822738Y-86055000D01*
X68860833Y-86093095D01*
X68898928Y-86169285D01*
X68937023Y-86321666D01*
X68937023Y-86512142D01*
X68898928Y-86664523D01*
X68860833Y-86740714D01*
X68822738Y-86778809D01*
X68746547Y-86816904D01*
X68670357Y-86816904D01*
X68594166Y-86778809D01*
X68556071Y-86740714D01*
X68517976Y-86664523D01*
X68479880Y-86512142D01*
X68479880Y-86321666D01*
X68517976Y-86169285D01*
X68556071Y-86093095D01*
X68594166Y-86055000D01*
X68670357Y-86016904D01*
X69317976Y-86816904D02*
X69470357Y-86816904D01*
X69546547Y-86778809D01*
X69584642Y-86740714D01*
X69660833Y-86626428D01*
X69698928Y-86474047D01*
X69698928Y-86169285D01*
X69660833Y-86093095D01*
X69622738Y-86055000D01*
X69546547Y-86016904D01*
X69394166Y-86016904D01*
X69317976Y-86055000D01*
X69279880Y-86093095D01*
X69241785Y-86169285D01*
X69241785Y-86359761D01*
X69279880Y-86435952D01*
X69317976Y-86474047D01*
X69394166Y-86512142D01*
X69546547Y-86512142D01*
X69622738Y-86474047D01*
X69660833Y-86435952D01*
X69698928Y-86359761D01*
X71070357Y-86055000D02*
X70994166Y-86016904D01*
X70879880Y-86016904D01*
X70765595Y-86055000D01*
X70689404Y-86131190D01*
X70651309Y-86207380D01*
X70613214Y-86359761D01*
X70613214Y-86474047D01*
X70651309Y-86626428D01*
X70689404Y-86702619D01*
X70765595Y-86778809D01*
X70879880Y-86816904D01*
X70956071Y-86816904D01*
X71070357Y-86778809D01*
X71108452Y-86740714D01*
X71108452Y-86474047D01*
X70956071Y-86474047D01*
X71413214Y-86093095D02*
X71451309Y-86055000D01*
X71527500Y-86016904D01*
X71717976Y-86016904D01*
X71794166Y-86055000D01*
X71832261Y-86093095D01*
X71870357Y-86169285D01*
X71870357Y-86245476D01*
X71832261Y-86359761D01*
X71375119Y-86816904D01*
X71870357Y-86816904D01*
X72632261Y-86816904D02*
X72175119Y-86816904D01*
X72403690Y-86816904D02*
X72403690Y-86016904D01*
X72327500Y-86131190D01*
X72251309Y-86207380D01*
X72175119Y-86245476D01*
X73203690Y-87121666D02*
X73165595Y-87083571D01*
X73089404Y-86969285D01*
X73051309Y-86893095D01*
X73013214Y-86778809D01*
X72975119Y-86588333D01*
X72975119Y-86435952D01*
X73013214Y-86245476D01*
X73051309Y-86131190D01*
X73089404Y-86055000D01*
X73165595Y-85940714D01*
X73203690Y-85902619D01*
X73394166Y-86016904D02*
X73851309Y-86016904D01*
X73622738Y-86816904D02*
X73622738Y-86016904D01*
X74041785Y-86016904D02*
X74575119Y-86816904D01*
X74575119Y-86016904D02*
X74041785Y-86816904D01*
X75032261Y-86016904D02*
X75108452Y-86016904D01*
X75184642Y-86055000D01*
X75222738Y-86093095D01*
X75260833Y-86169285D01*
X75298928Y-86321666D01*
X75298928Y-86512142D01*
X75260833Y-86664523D01*
X75222738Y-86740714D01*
X75184642Y-86778809D01*
X75108452Y-86816904D01*
X75032261Y-86816904D01*
X74956071Y-86778809D01*
X74917976Y-86740714D01*
X74879880Y-86664523D01*
X74841785Y-86512142D01*
X74841785Y-86321666D01*
X74879880Y-86169285D01*
X74917976Y-86093095D01*
X74956071Y-86055000D01*
X75032261Y-86016904D01*
X75565595Y-87121666D02*
X75603690Y-87083571D01*
X75679880Y-86969285D01*
X75717976Y-86893095D01*
X75756071Y-86778809D01*
X75794166Y-86588333D01*
X75794166Y-86435952D01*
X75756071Y-86245476D01*
X75717976Y-86131190D01*
X75679880Y-86055000D01*
X75603690Y-85940714D01*
X75565595Y-85902619D01*
X68670357Y-87366904D02*
X68746547Y-87366904D01*
X68822738Y-87405000D01*
X68860833Y-87443095D01*
X68898928Y-87519285D01*
X68937023Y-87671666D01*
X68937023Y-87862142D01*
X68898928Y-88014523D01*
X68860833Y-88090714D01*
X68822738Y-88128809D01*
X68746547Y-88166904D01*
X68670357Y-88166904D01*
X68594166Y-88128809D01*
X68556071Y-88090714D01*
X68517976Y-88014523D01*
X68479880Y-87862142D01*
X68479880Y-87671666D01*
X68517976Y-87519285D01*
X68556071Y-87443095D01*
X68594166Y-87405000D01*
X68670357Y-87366904D01*
X69394166Y-87709761D02*
X69317976Y-87671666D01*
X69279880Y-87633571D01*
X69241785Y-87557380D01*
X69241785Y-87519285D01*
X69279880Y-87443095D01*
X69317976Y-87405000D01*
X69394166Y-87366904D01*
X69546547Y-87366904D01*
X69622738Y-87405000D01*
X69660833Y-87443095D01*
X69698928Y-87519285D01*
X69698928Y-87557380D01*
X69660833Y-87633571D01*
X69622738Y-87671666D01*
X69546547Y-87709761D01*
X69394166Y-87709761D01*
X69317976Y-87747857D01*
X69279880Y-87785952D01*
X69241785Y-87862142D01*
X69241785Y-88014523D01*
X69279880Y-88090714D01*
X69317976Y-88128809D01*
X69394166Y-88166904D01*
X69546547Y-88166904D01*
X69622738Y-88128809D01*
X69660833Y-88090714D01*
X69698928Y-88014523D01*
X69698928Y-87862142D01*
X69660833Y-87785952D01*
X69622738Y-87747857D01*
X69546547Y-87709761D01*
X71070357Y-87405000D02*
X70994166Y-87366904D01*
X70879880Y-87366904D01*
X70765595Y-87405000D01*
X70689404Y-87481190D01*
X70651309Y-87557380D01*
X70613214Y-87709761D01*
X70613214Y-87824047D01*
X70651309Y-87976428D01*
X70689404Y-88052619D01*
X70765595Y-88128809D01*
X70879880Y-88166904D01*
X70956071Y-88166904D01*
X71070357Y-88128809D01*
X71108452Y-88090714D01*
X71108452Y-87824047D01*
X70956071Y-87824047D01*
X71794166Y-87633571D02*
X71794166Y-88166904D01*
X71603690Y-87328809D02*
X71413214Y-87900238D01*
X71908452Y-87900238D01*
X72441785Y-88471666D02*
X72403690Y-88433571D01*
X72327500Y-88319285D01*
X72289404Y-88243095D01*
X72251309Y-88128809D01*
X72213214Y-87938333D01*
X72213214Y-87785952D01*
X72251309Y-87595476D01*
X72289404Y-87481190D01*
X72327500Y-87405000D01*
X72403690Y-87290714D01*
X72441785Y-87252619D01*
X72708452Y-88128809D02*
X72822738Y-88166904D01*
X73013214Y-88166904D01*
X73089404Y-88128809D01*
X73127500Y-88090714D01*
X73165595Y-88014523D01*
X73165595Y-87938333D01*
X73127500Y-87862142D01*
X73089404Y-87824047D01*
X73013214Y-87785952D01*
X72860833Y-87747857D01*
X72784642Y-87709761D01*
X72746547Y-87671666D01*
X72708452Y-87595476D01*
X72708452Y-87519285D01*
X72746547Y-87443095D01*
X72784642Y-87405000D01*
X72860833Y-87366904D01*
X73051309Y-87366904D01*
X73165595Y-87405000D01*
X73965595Y-88090714D02*
X73927500Y-88128809D01*
X73813214Y-88166904D01*
X73737023Y-88166904D01*
X73622738Y-88128809D01*
X73546547Y-88052619D01*
X73508452Y-87976428D01*
X73470357Y-87824047D01*
X73470357Y-87709761D01*
X73508452Y-87557380D01*
X73546547Y-87481190D01*
X73622738Y-87405000D01*
X73737023Y-87366904D01*
X73813214Y-87366904D01*
X73927500Y-87405000D01*
X73965595Y-87443095D01*
X74689404Y-88166904D02*
X74308452Y-88166904D01*
X74308452Y-87366904D01*
X74956071Y-88166904D02*
X74956071Y-87366904D01*
X75413214Y-88166904D02*
X75070357Y-87709761D01*
X75413214Y-87366904D02*
X74956071Y-87824047D01*
X75679880Y-88471666D02*
X75717976Y-88433571D01*
X75794166Y-88319285D01*
X75832261Y-88243095D01*
X75870357Y-88128809D01*
X75908452Y-87938333D01*
X75908452Y-87785952D01*
X75870357Y-87595476D01*
X75832261Y-87481190D01*
X75794166Y-87405000D01*
X75717976Y-87290714D01*
X75679880Y-87252619D01*
X68670357Y-88716904D02*
X68746547Y-88716904D01*
X68822738Y-88755000D01*
X68860833Y-88793095D01*
X68898928Y-88869285D01*
X68937023Y-89021666D01*
X68937023Y-89212142D01*
X68898928Y-89364523D01*
X68860833Y-89440714D01*
X68822738Y-89478809D01*
X68746547Y-89516904D01*
X68670357Y-89516904D01*
X68594166Y-89478809D01*
X68556071Y-89440714D01*
X68517976Y-89364523D01*
X68479880Y-89212142D01*
X68479880Y-89021666D01*
X68517976Y-88869285D01*
X68556071Y-88793095D01*
X68594166Y-88755000D01*
X68670357Y-88716904D01*
X69203690Y-88716904D02*
X69737023Y-88716904D01*
X69394166Y-89516904D01*
X71070357Y-88755000D02*
X70994166Y-88716904D01*
X70879880Y-88716904D01*
X70765595Y-88755000D01*
X70689404Y-88831190D01*
X70651309Y-88907380D01*
X70613214Y-89059761D01*
X70613214Y-89174047D01*
X70651309Y-89326428D01*
X70689404Y-89402619D01*
X70765595Y-89478809D01*
X70879880Y-89516904D01*
X70956071Y-89516904D01*
X71070357Y-89478809D01*
X71108452Y-89440714D01*
X71108452Y-89174047D01*
X70956071Y-89174047D01*
X71832261Y-88716904D02*
X71451309Y-88716904D01*
X71413214Y-89097857D01*
X71451309Y-89059761D01*
X71527500Y-89021666D01*
X71717976Y-89021666D01*
X71794166Y-89059761D01*
X71832261Y-89097857D01*
X71870357Y-89174047D01*
X71870357Y-89364523D01*
X71832261Y-89440714D01*
X71794166Y-89478809D01*
X71717976Y-89516904D01*
X71527500Y-89516904D01*
X71451309Y-89478809D01*
X71413214Y-89440714D01*
X72441785Y-89821666D02*
X72403690Y-89783571D01*
X72327500Y-89669285D01*
X72289404Y-89593095D01*
X72251309Y-89478809D01*
X72213214Y-89288333D01*
X72213214Y-89135952D01*
X72251309Y-88945476D01*
X72289404Y-88831190D01*
X72327500Y-88755000D01*
X72403690Y-88640714D01*
X72441785Y-88602619D01*
X72746547Y-89516904D02*
X72746547Y-88716904D01*
X73013214Y-89288333D01*
X73279880Y-88716904D01*
X73279880Y-89516904D01*
X73813214Y-88716904D02*
X73965595Y-88716904D01*
X74041785Y-88755000D01*
X74117976Y-88831190D01*
X74156071Y-88983571D01*
X74156071Y-89250238D01*
X74117976Y-89402619D01*
X74041785Y-89478809D01*
X73965595Y-89516904D01*
X73813214Y-89516904D01*
X73737023Y-89478809D01*
X73660833Y-89402619D01*
X73622738Y-89250238D01*
X73622738Y-88983571D01*
X73660833Y-88831190D01*
X73737023Y-88755000D01*
X73813214Y-88716904D01*
X74460833Y-89478809D02*
X74575119Y-89516904D01*
X74765595Y-89516904D01*
X74841785Y-89478809D01*
X74879880Y-89440714D01*
X74917976Y-89364523D01*
X74917976Y-89288333D01*
X74879880Y-89212142D01*
X74841785Y-89174047D01*
X74765595Y-89135952D01*
X74613214Y-89097857D01*
X74537023Y-89059761D01*
X74498928Y-89021666D01*
X74460833Y-88945476D01*
X74460833Y-88869285D01*
X74498928Y-88793095D01*
X74537023Y-88755000D01*
X74613214Y-88716904D01*
X74803690Y-88716904D01*
X74917976Y-88755000D01*
X75260833Y-89516904D02*
X75260833Y-88716904D01*
X75565595Y-89821666D02*
X75603690Y-89783571D01*
X75679880Y-89669285D01*
X75717976Y-89593095D01*
X75756071Y-89478809D01*
X75794166Y-89288333D01*
X75794166Y-89135952D01*
X75756071Y-88945476D01*
X75717976Y-88831190D01*
X75679880Y-88755000D01*
X75603690Y-88640714D01*
X75565595Y-88602619D01*
X68670357Y-90066904D02*
X68746547Y-90066904D01*
X68822738Y-90105000D01*
X68860833Y-90143095D01*
X68898928Y-90219285D01*
X68937023Y-90371666D01*
X68937023Y-90562142D01*
X68898928Y-90714523D01*
X68860833Y-90790714D01*
X68822738Y-90828809D01*
X68746547Y-90866904D01*
X68670357Y-90866904D01*
X68594166Y-90828809D01*
X68556071Y-90790714D01*
X68517976Y-90714523D01*
X68479880Y-90562142D01*
X68479880Y-90371666D01*
X68517976Y-90219285D01*
X68556071Y-90143095D01*
X68594166Y-90105000D01*
X68670357Y-90066904D01*
X69622738Y-90066904D02*
X69470357Y-90066904D01*
X69394166Y-90105000D01*
X69356071Y-90143095D01*
X69279880Y-90257380D01*
X69241785Y-90409761D01*
X69241785Y-90714523D01*
X69279880Y-90790714D01*
X69317976Y-90828809D01*
X69394166Y-90866904D01*
X69546547Y-90866904D01*
X69622738Y-90828809D01*
X69660833Y-90790714D01*
X69698928Y-90714523D01*
X69698928Y-90524047D01*
X69660833Y-90447857D01*
X69622738Y-90409761D01*
X69546547Y-90371666D01*
X69394166Y-90371666D01*
X69317976Y-90409761D01*
X69279880Y-90447857D01*
X69241785Y-90524047D01*
X71070357Y-90105000D02*
X70994166Y-90066904D01*
X70879880Y-90066904D01*
X70765595Y-90105000D01*
X70689404Y-90181190D01*
X70651309Y-90257380D01*
X70613214Y-90409761D01*
X70613214Y-90524047D01*
X70651309Y-90676428D01*
X70689404Y-90752619D01*
X70765595Y-90828809D01*
X70879880Y-90866904D01*
X70956071Y-90866904D01*
X71070357Y-90828809D01*
X71108452Y-90790714D01*
X71108452Y-90524047D01*
X70956071Y-90524047D01*
X71794166Y-90066904D02*
X71641785Y-90066904D01*
X71565595Y-90105000D01*
X71527500Y-90143095D01*
X71451309Y-90257380D01*
X71413214Y-90409761D01*
X71413214Y-90714523D01*
X71451309Y-90790714D01*
X71489404Y-90828809D01*
X71565595Y-90866904D01*
X71717976Y-90866904D01*
X71794166Y-90828809D01*
X71832261Y-90790714D01*
X71870357Y-90714523D01*
X71870357Y-90524047D01*
X71832261Y-90447857D01*
X71794166Y-90409761D01*
X71717976Y-90371666D01*
X71565595Y-90371666D01*
X71489404Y-90409761D01*
X71451309Y-90447857D01*
X71413214Y-90524047D01*
X72441785Y-91171666D02*
X72403690Y-91133571D01*
X72327500Y-91019285D01*
X72289404Y-90943095D01*
X72251309Y-90828809D01*
X72213214Y-90638333D01*
X72213214Y-90485952D01*
X72251309Y-90295476D01*
X72289404Y-90181190D01*
X72327500Y-90105000D01*
X72403690Y-89990714D01*
X72441785Y-89952619D01*
X72746547Y-90866904D02*
X72746547Y-90066904D01*
X73013214Y-90638333D01*
X73279880Y-90066904D01*
X73279880Y-90866904D01*
X73660833Y-90866904D02*
X73660833Y-90066904D01*
X74003690Y-90828809D02*
X74117976Y-90866904D01*
X74308452Y-90866904D01*
X74384642Y-90828809D01*
X74422738Y-90790714D01*
X74460833Y-90714523D01*
X74460833Y-90638333D01*
X74422738Y-90562142D01*
X74384642Y-90524047D01*
X74308452Y-90485952D01*
X74156071Y-90447857D01*
X74079880Y-90409761D01*
X74041785Y-90371666D01*
X74003690Y-90295476D01*
X74003690Y-90219285D01*
X74041785Y-90143095D01*
X74079880Y-90105000D01*
X74156071Y-90066904D01*
X74346547Y-90066904D01*
X74460833Y-90105000D01*
X74956071Y-90066904D02*
X75108452Y-90066904D01*
X75184642Y-90105000D01*
X75260833Y-90181190D01*
X75298928Y-90333571D01*
X75298928Y-90600238D01*
X75260833Y-90752619D01*
X75184642Y-90828809D01*
X75108452Y-90866904D01*
X74956071Y-90866904D01*
X74879880Y-90828809D01*
X74803690Y-90752619D01*
X74765595Y-90600238D01*
X74765595Y-90333571D01*
X74803690Y-90181190D01*
X74879880Y-90105000D01*
X74956071Y-90066904D01*
X75565595Y-91171666D02*
X75603690Y-91133571D01*
X75679880Y-91019285D01*
X75717976Y-90943095D01*
X75756071Y-90828809D01*
X75794166Y-90638333D01*
X75794166Y-90485952D01*
X75756071Y-90295476D01*
X75717976Y-90181190D01*
X75679880Y-90105000D01*
X75603690Y-89990714D01*
X75565595Y-89952619D01*
X68670357Y-91416904D02*
X68746547Y-91416904D01*
X68822738Y-91455000D01*
X68860833Y-91493095D01*
X68898928Y-91569285D01*
X68937023Y-91721666D01*
X68937023Y-91912142D01*
X68898928Y-92064523D01*
X68860833Y-92140714D01*
X68822738Y-92178809D01*
X68746547Y-92216904D01*
X68670357Y-92216904D01*
X68594166Y-92178809D01*
X68556071Y-92140714D01*
X68517976Y-92064523D01*
X68479880Y-91912142D01*
X68479880Y-91721666D01*
X68517976Y-91569285D01*
X68556071Y-91493095D01*
X68594166Y-91455000D01*
X68670357Y-91416904D01*
X69660833Y-91416904D02*
X69279880Y-91416904D01*
X69241785Y-91797857D01*
X69279880Y-91759761D01*
X69356071Y-91721666D01*
X69546547Y-91721666D01*
X69622738Y-91759761D01*
X69660833Y-91797857D01*
X69698928Y-91874047D01*
X69698928Y-92064523D01*
X69660833Y-92140714D01*
X69622738Y-92178809D01*
X69546547Y-92216904D01*
X69356071Y-92216904D01*
X69279880Y-92178809D01*
X69241785Y-92140714D01*
X71070357Y-91455000D02*
X70994166Y-91416904D01*
X70879880Y-91416904D01*
X70765595Y-91455000D01*
X70689404Y-91531190D01*
X70651309Y-91607380D01*
X70613214Y-91759761D01*
X70613214Y-91874047D01*
X70651309Y-92026428D01*
X70689404Y-92102619D01*
X70765595Y-92178809D01*
X70879880Y-92216904D01*
X70956071Y-92216904D01*
X71070357Y-92178809D01*
X71108452Y-92140714D01*
X71108452Y-91874047D01*
X70956071Y-91874047D01*
X71603690Y-91416904D02*
X71679880Y-91416904D01*
X71756071Y-91455000D01*
X71794166Y-91493095D01*
X71832261Y-91569285D01*
X71870357Y-91721666D01*
X71870357Y-91912142D01*
X71832261Y-92064523D01*
X71794166Y-92140714D01*
X71756071Y-92178809D01*
X71679880Y-92216904D01*
X71603690Y-92216904D01*
X71527500Y-92178809D01*
X71489404Y-92140714D01*
X71451309Y-92064523D01*
X71413214Y-91912142D01*
X71413214Y-91721666D01*
X71451309Y-91569285D01*
X71489404Y-91493095D01*
X71527500Y-91455000D01*
X71603690Y-91416904D01*
X68670357Y-92766904D02*
X68746547Y-92766904D01*
X68822738Y-92805000D01*
X68860833Y-92843095D01*
X68898928Y-92919285D01*
X68937023Y-93071666D01*
X68937023Y-93262142D01*
X68898928Y-93414523D01*
X68860833Y-93490714D01*
X68822738Y-93528809D01*
X68746547Y-93566904D01*
X68670357Y-93566904D01*
X68594166Y-93528809D01*
X68556071Y-93490714D01*
X68517976Y-93414523D01*
X68479880Y-93262142D01*
X68479880Y-93071666D01*
X68517976Y-92919285D01*
X68556071Y-92843095D01*
X68594166Y-92805000D01*
X68670357Y-92766904D01*
X69622738Y-93033571D02*
X69622738Y-93566904D01*
X69432261Y-92728809D02*
X69241785Y-93300238D01*
X69737023Y-93300238D01*
X71070357Y-92805000D02*
X70994166Y-92766904D01*
X70879880Y-92766904D01*
X70765595Y-92805000D01*
X70689404Y-92881190D01*
X70651309Y-92957380D01*
X70613214Y-93109761D01*
X70613214Y-93224047D01*
X70651309Y-93376428D01*
X70689404Y-93452619D01*
X70765595Y-93528809D01*
X70879880Y-93566904D01*
X70956071Y-93566904D01*
X71070357Y-93528809D01*
X71108452Y-93490714D01*
X71108452Y-93224047D01*
X70956071Y-93224047D01*
X71451309Y-93566904D02*
X71451309Y-92766904D01*
X71908452Y-93566904D01*
X71908452Y-92766904D01*
X72289404Y-93566904D02*
X72289404Y-92766904D01*
X72479880Y-92766904D01*
X72594166Y-92805000D01*
X72670357Y-92881190D01*
X72708452Y-92957380D01*
X72746547Y-93109761D01*
X72746547Y-93224047D01*
X72708452Y-93376428D01*
X72670357Y-93452619D01*
X72594166Y-93528809D01*
X72479880Y-93566904D01*
X72289404Y-93566904D01*
X68670357Y-94116904D02*
X68746547Y-94116904D01*
X68822738Y-94155000D01*
X68860833Y-94193095D01*
X68898928Y-94269285D01*
X68937023Y-94421666D01*
X68937023Y-94612142D01*
X68898928Y-94764523D01*
X68860833Y-94840714D01*
X68822738Y-94878809D01*
X68746547Y-94916904D01*
X68670357Y-94916904D01*
X68594166Y-94878809D01*
X68556071Y-94840714D01*
X68517976Y-94764523D01*
X68479880Y-94612142D01*
X68479880Y-94421666D01*
X68517976Y-94269285D01*
X68556071Y-94193095D01*
X68594166Y-94155000D01*
X68670357Y-94116904D01*
X69203690Y-94116904D02*
X69698928Y-94116904D01*
X69432261Y-94421666D01*
X69546547Y-94421666D01*
X69622738Y-94459761D01*
X69660833Y-94497857D01*
X69698928Y-94574047D01*
X69698928Y-94764523D01*
X69660833Y-94840714D01*
X69622738Y-94878809D01*
X69546547Y-94916904D01*
X69317976Y-94916904D01*
X69241785Y-94878809D01*
X69203690Y-94840714D01*
X70537023Y-94116904D02*
X70803690Y-94916904D01*
X71070357Y-94116904D01*
X71679880Y-94878809D02*
X71603690Y-94916904D01*
X71451309Y-94916904D01*
X71375119Y-94878809D01*
X71337023Y-94840714D01*
X71298928Y-94764523D01*
X71298928Y-94535952D01*
X71337023Y-94459761D01*
X71375119Y-94421666D01*
X71451309Y-94383571D01*
X71603690Y-94383571D01*
X71679880Y-94421666D01*
X72365595Y-94878809D02*
X72289404Y-94916904D01*
X72137023Y-94916904D01*
X72060833Y-94878809D01*
X72022738Y-94840714D01*
X71984642Y-94764523D01*
X71984642Y-94535952D01*
X72022738Y-94459761D01*
X72060833Y-94421666D01*
X72137023Y-94383571D01*
X72289404Y-94383571D01*
X72365595Y-94421666D01*
X72937023Y-95221666D02*
X72898928Y-95183571D01*
X72822738Y-95069285D01*
X72784642Y-94993095D01*
X72746547Y-94878809D01*
X72708452Y-94688333D01*
X72708452Y-94535952D01*
X72746547Y-94345476D01*
X72784642Y-94231190D01*
X72822738Y-94155000D01*
X72898928Y-94040714D01*
X72937023Y-94002619D01*
X73622738Y-94116904D02*
X73241785Y-94116904D01*
X73203690Y-94497857D01*
X73241785Y-94459761D01*
X73317976Y-94421666D01*
X73508452Y-94421666D01*
X73584642Y-94459761D01*
X73622738Y-94497857D01*
X73660833Y-94574047D01*
X73660833Y-94764523D01*
X73622738Y-94840714D01*
X73584642Y-94878809D01*
X73508452Y-94916904D01*
X73317976Y-94916904D01*
X73241785Y-94878809D01*
X73203690Y-94840714D01*
X73889404Y-94116904D02*
X74156071Y-94916904D01*
X74422738Y-94116904D01*
X74613214Y-95221666D02*
X74651309Y-95183571D01*
X74727500Y-95069285D01*
X74765595Y-94993095D01*
X74803690Y-94878809D01*
X74841785Y-94688333D01*
X74841785Y-94535952D01*
X74803690Y-94345476D01*
X74765595Y-94231190D01*
X74727500Y-94155000D01*
X74651309Y-94040714D01*
X74613214Y-94002619D01*
X68670357Y-95466904D02*
X68746547Y-95466904D01*
X68822738Y-95505000D01*
X68860833Y-95543095D01*
X68898928Y-95619285D01*
X68937023Y-95771666D01*
X68937023Y-95962142D01*
X68898928Y-96114523D01*
X68860833Y-96190714D01*
X68822738Y-96228809D01*
X68746547Y-96266904D01*
X68670357Y-96266904D01*
X68594166Y-96228809D01*
X68556071Y-96190714D01*
X68517976Y-96114523D01*
X68479880Y-95962142D01*
X68479880Y-95771666D01*
X68517976Y-95619285D01*
X68556071Y-95543095D01*
X68594166Y-95505000D01*
X68670357Y-95466904D01*
X69241785Y-95543095D02*
X69279880Y-95505000D01*
X69356071Y-95466904D01*
X69546547Y-95466904D01*
X69622738Y-95505000D01*
X69660833Y-95543095D01*
X69698928Y-95619285D01*
X69698928Y-95695476D01*
X69660833Y-95809761D01*
X69203690Y-96266904D01*
X69698928Y-96266904D01*
X71070357Y-95505000D02*
X70994166Y-95466904D01*
X70879880Y-95466904D01*
X70765595Y-95505000D01*
X70689404Y-95581190D01*
X70651309Y-95657380D01*
X70613214Y-95809761D01*
X70613214Y-95924047D01*
X70651309Y-96076428D01*
X70689404Y-96152619D01*
X70765595Y-96228809D01*
X70879880Y-96266904D01*
X70956071Y-96266904D01*
X71070357Y-96228809D01*
X71108452Y-96190714D01*
X71108452Y-95924047D01*
X70956071Y-95924047D01*
X71870357Y-96266904D02*
X71413214Y-96266904D01*
X71641785Y-96266904D02*
X71641785Y-95466904D01*
X71565595Y-95581190D01*
X71489404Y-95657380D01*
X71413214Y-95695476D01*
X72327500Y-95809761D02*
X72251309Y-95771666D01*
X72213214Y-95733571D01*
X72175119Y-95657380D01*
X72175119Y-95619285D01*
X72213214Y-95543095D01*
X72251309Y-95505000D01*
X72327500Y-95466904D01*
X72479880Y-95466904D01*
X72556071Y-95505000D01*
X72594166Y-95543095D01*
X72632261Y-95619285D01*
X72632261Y-95657380D01*
X72594166Y-95733571D01*
X72556071Y-95771666D01*
X72479880Y-95809761D01*
X72327500Y-95809761D01*
X72251309Y-95847857D01*
X72213214Y-95885952D01*
X72175119Y-95962142D01*
X72175119Y-96114523D01*
X72213214Y-96190714D01*
X72251309Y-96228809D01*
X72327500Y-96266904D01*
X72479880Y-96266904D01*
X72556071Y-96228809D01*
X72594166Y-96190714D01*
X72632261Y-96114523D01*
X72632261Y-95962142D01*
X72594166Y-95885952D01*
X72556071Y-95847857D01*
X72479880Y-95809761D01*
X73203690Y-96571666D02*
X73165595Y-96533571D01*
X73089404Y-96419285D01*
X73051309Y-96343095D01*
X73013214Y-96228809D01*
X72975119Y-96038333D01*
X72975119Y-95885952D01*
X73013214Y-95695476D01*
X73051309Y-95581190D01*
X73089404Y-95505000D01*
X73165595Y-95390714D01*
X73203690Y-95352619D01*
X73508452Y-96266904D02*
X73508452Y-95466904D01*
X73698928Y-95466904D01*
X73813214Y-95505000D01*
X73889404Y-95581190D01*
X73927500Y-95657380D01*
X73965595Y-95809761D01*
X73965595Y-95924047D01*
X73927500Y-96076428D01*
X73889404Y-96152619D01*
X73813214Y-96228809D01*
X73698928Y-96266904D01*
X73508452Y-96266904D01*
X74308452Y-95962142D02*
X74917976Y-95962142D01*
X75222738Y-96571666D02*
X75260833Y-96533571D01*
X75337023Y-96419285D01*
X75375119Y-96343095D01*
X75413214Y-96228809D01*
X75451309Y-96038333D01*
X75451309Y-95885952D01*
X75413214Y-95695476D01*
X75375119Y-95581190D01*
X75337023Y-95505000D01*
X75260833Y-95390714D01*
X75222738Y-95352619D01*
X68670357Y-96816904D02*
X68746547Y-96816904D01*
X68822738Y-96855000D01*
X68860833Y-96893095D01*
X68898928Y-96969285D01*
X68937023Y-97121666D01*
X68937023Y-97312142D01*
X68898928Y-97464523D01*
X68860833Y-97540714D01*
X68822738Y-97578809D01*
X68746547Y-97616904D01*
X68670357Y-97616904D01*
X68594166Y-97578809D01*
X68556071Y-97540714D01*
X68517976Y-97464523D01*
X68479880Y-97312142D01*
X68479880Y-97121666D01*
X68517976Y-96969285D01*
X68556071Y-96893095D01*
X68594166Y-96855000D01*
X68670357Y-96816904D01*
X69698928Y-97616904D02*
X69241785Y-97616904D01*
X69470357Y-97616904D02*
X69470357Y-96816904D01*
X69394166Y-96931190D01*
X69317976Y-97007380D01*
X69241785Y-97045476D01*
X71070357Y-96855000D02*
X70994166Y-96816904D01*
X70879880Y-96816904D01*
X70765595Y-96855000D01*
X70689404Y-96931190D01*
X70651309Y-97007380D01*
X70613214Y-97159761D01*
X70613214Y-97274047D01*
X70651309Y-97426428D01*
X70689404Y-97502619D01*
X70765595Y-97578809D01*
X70879880Y-97616904D01*
X70956071Y-97616904D01*
X71070357Y-97578809D01*
X71108452Y-97540714D01*
X71108452Y-97274047D01*
X70956071Y-97274047D01*
X71870357Y-97616904D02*
X71413214Y-97616904D01*
X71641785Y-97616904D02*
X71641785Y-96816904D01*
X71565595Y-96931190D01*
X71489404Y-97007380D01*
X71413214Y-97045476D01*
X72251309Y-97616904D02*
X72403690Y-97616904D01*
X72479880Y-97578809D01*
X72517976Y-97540714D01*
X72594166Y-97426428D01*
X72632261Y-97274047D01*
X72632261Y-96969285D01*
X72594166Y-96893095D01*
X72556071Y-96855000D01*
X72479880Y-96816904D01*
X72327500Y-96816904D01*
X72251309Y-96855000D01*
X72213214Y-96893095D01*
X72175119Y-96969285D01*
X72175119Y-97159761D01*
X72213214Y-97235952D01*
X72251309Y-97274047D01*
X72327500Y-97312142D01*
X72479880Y-97312142D01*
X72556071Y-97274047D01*
X72594166Y-97235952D01*
X72632261Y-97159761D01*
X73203690Y-97921666D02*
X73165595Y-97883571D01*
X73089404Y-97769285D01*
X73051309Y-97693095D01*
X73013214Y-97578809D01*
X72975119Y-97388333D01*
X72975119Y-97235952D01*
X73013214Y-97045476D01*
X73051309Y-96931190D01*
X73089404Y-96855000D01*
X73165595Y-96740714D01*
X73203690Y-96702619D01*
X73508452Y-97616904D02*
X73508452Y-96816904D01*
X73698928Y-96816904D01*
X73813214Y-96855000D01*
X73889404Y-96931190D01*
X73927500Y-97007380D01*
X73965595Y-97159761D01*
X73965595Y-97274047D01*
X73927500Y-97426428D01*
X73889404Y-97502619D01*
X73813214Y-97578809D01*
X73698928Y-97616904D01*
X73508452Y-97616904D01*
X74308452Y-97312142D02*
X74917976Y-97312142D01*
X74613214Y-97616904D02*
X74613214Y-97007380D01*
X75222738Y-97921666D02*
X75260833Y-97883571D01*
X75337023Y-97769285D01*
X75375119Y-97693095D01*
X75413214Y-97578809D01*
X75451309Y-97388333D01*
X75451309Y-97235952D01*
X75413214Y-97045476D01*
X75375119Y-96931190D01*
X75337023Y-96855000D01*
X75260833Y-96740714D01*
X75222738Y-96702619D01*
X70942857Y-112998571D02*
X71085714Y-113046190D01*
X71133333Y-113093809D01*
X71180952Y-113189047D01*
X71180952Y-113331904D01*
X71133333Y-113427142D01*
X71085714Y-113474761D01*
X70990476Y-113522380D01*
X70609523Y-113522380D01*
X70609523Y-112522380D01*
X70942857Y-112522380D01*
X71038095Y-112570000D01*
X71085714Y-112617619D01*
X71133333Y-112712857D01*
X71133333Y-112808095D01*
X71085714Y-112903333D01*
X71038095Y-112950952D01*
X70942857Y-112998571D01*
X70609523Y-112998571D01*
X71800000Y-112522380D02*
X71990476Y-112522380D01*
X72085714Y-112570000D01*
X72180952Y-112665238D01*
X72228571Y-112855714D01*
X72228571Y-113189047D01*
X72180952Y-113379523D01*
X72085714Y-113474761D01*
X71990476Y-113522380D01*
X71800000Y-113522380D01*
X71704761Y-113474761D01*
X71609523Y-113379523D01*
X71561904Y-113189047D01*
X71561904Y-112855714D01*
X71609523Y-112665238D01*
X71704761Y-112570000D01*
X71800000Y-112522380D01*
X72847619Y-112522380D02*
X73038095Y-112522380D01*
X73133333Y-112570000D01*
X73228571Y-112665238D01*
X73276190Y-112855714D01*
X73276190Y-113189047D01*
X73228571Y-113379523D01*
X73133333Y-113474761D01*
X73038095Y-113522380D01*
X72847619Y-113522380D01*
X72752380Y-113474761D01*
X72657142Y-113379523D01*
X72609523Y-113189047D01*
X72609523Y-112855714D01*
X72657142Y-112665238D01*
X72752380Y-112570000D01*
X72847619Y-112522380D01*
X73561904Y-112522380D02*
X74133333Y-112522380D01*
X73847619Y-113522380D02*
X73847619Y-112522380D01*
D11*
X80269761Y-109778571D02*
X80245952Y-109802380D01*
X80174523Y-109826190D01*
X80126904Y-109826190D01*
X80055476Y-109802380D01*
X80007857Y-109754761D01*
X79984047Y-109707142D01*
X79960238Y-109611904D01*
X79960238Y-109540476D01*
X79984047Y-109445238D01*
X80007857Y-109397619D01*
X80055476Y-109350000D01*
X80126904Y-109326190D01*
X80174523Y-109326190D01*
X80245952Y-109350000D01*
X80269761Y-109373809D01*
X80579285Y-109326190D02*
X80674523Y-109326190D01*
X80722142Y-109350000D01*
X80769761Y-109397619D01*
X80793571Y-109492857D01*
X80793571Y-109659523D01*
X80769761Y-109754761D01*
X80722142Y-109802380D01*
X80674523Y-109826190D01*
X80579285Y-109826190D01*
X80531666Y-109802380D01*
X80484047Y-109754761D01*
X80460238Y-109659523D01*
X80460238Y-109492857D01*
X80484047Y-109397619D01*
X80531666Y-109350000D01*
X80579285Y-109326190D01*
X81007857Y-109826190D02*
X81007857Y-109326190D01*
X81293571Y-109826190D01*
X81293571Y-109326190D01*
X81531666Y-109826190D02*
X81531666Y-109326190D01*
X81817380Y-109826190D01*
X81817380Y-109326190D01*
X82055476Y-109564285D02*
X82222142Y-109564285D01*
X82293571Y-109826190D02*
X82055476Y-109826190D01*
X82055476Y-109326190D01*
X82293571Y-109326190D01*
X82793571Y-109778571D02*
X82769761Y-109802380D01*
X82698333Y-109826190D01*
X82650714Y-109826190D01*
X82579285Y-109802380D01*
X82531666Y-109754761D01*
X82507857Y-109707142D01*
X82484047Y-109611904D01*
X82484047Y-109540476D01*
X82507857Y-109445238D01*
X82531666Y-109397619D01*
X82579285Y-109350000D01*
X82650714Y-109326190D01*
X82698333Y-109326190D01*
X82769761Y-109350000D01*
X82793571Y-109373809D01*
X82936428Y-109326190D02*
X83222142Y-109326190D01*
X83079285Y-109826190D02*
X83079285Y-109326190D01*
X83388809Y-109564285D02*
X83555476Y-109564285D01*
X83626904Y-109826190D02*
X83388809Y-109826190D01*
X83388809Y-109326190D01*
X83626904Y-109326190D01*
X83841190Y-109826190D02*
X83841190Y-109326190D01*
X83960238Y-109326190D01*
X84031666Y-109350000D01*
X84079285Y-109397619D01*
X84103095Y-109445238D01*
X84126904Y-109540476D01*
X84126904Y-109611904D01*
X84103095Y-109707142D01*
X84079285Y-109754761D01*
X84031666Y-109802380D01*
X83960238Y-109826190D01*
X83841190Y-109826190D01*
X84341190Y-109778571D02*
X84365000Y-109802380D01*
X84341190Y-109826190D01*
X84317380Y-109802380D01*
X84341190Y-109778571D01*
X84341190Y-109826190D01*
X84341190Y-109516666D02*
X84365000Y-109540476D01*
X84341190Y-109564285D01*
X84317380Y-109540476D01*
X84341190Y-109516666D01*
X84341190Y-109564285D01*
X80626904Y-110200000D02*
X80579285Y-110176190D01*
X80507857Y-110176190D01*
X80436428Y-110200000D01*
X80388809Y-110247619D01*
X80365000Y-110295238D01*
X80341190Y-110390476D01*
X80341190Y-110461904D01*
X80365000Y-110557142D01*
X80388809Y-110604761D01*
X80436428Y-110652380D01*
X80507857Y-110676190D01*
X80555476Y-110676190D01*
X80626904Y-110652380D01*
X80650714Y-110628571D01*
X80650714Y-110461904D01*
X80555476Y-110461904D01*
X81126904Y-110676190D02*
X80841190Y-110676190D01*
X80984047Y-110676190D02*
X80984047Y-110176190D01*
X80936428Y-110247619D01*
X80888809Y-110295238D01*
X80841190Y-110319047D01*
X81484047Y-110866666D02*
X81460238Y-110842857D01*
X81412619Y-110771428D01*
X81388809Y-110723809D01*
X81365000Y-110652380D01*
X81341190Y-110533333D01*
X81341190Y-110438095D01*
X81365000Y-110319047D01*
X81388809Y-110247619D01*
X81412619Y-110200000D01*
X81460238Y-110128571D01*
X81484047Y-110104761D01*
X81650714Y-110652380D02*
X81722142Y-110676190D01*
X81841190Y-110676190D01*
X81888809Y-110652380D01*
X81912619Y-110628571D01*
X81936428Y-110580952D01*
X81936428Y-110533333D01*
X81912619Y-110485714D01*
X81888809Y-110461904D01*
X81841190Y-110438095D01*
X81745952Y-110414285D01*
X81698333Y-110390476D01*
X81674523Y-110366666D01*
X81650714Y-110319047D01*
X81650714Y-110271428D01*
X81674523Y-110223809D01*
X81698333Y-110200000D01*
X81745952Y-110176190D01*
X81865000Y-110176190D01*
X81936428Y-110200000D01*
X82150714Y-110676190D02*
X82150714Y-110176190D01*
X82269761Y-110176190D01*
X82341190Y-110200000D01*
X82388809Y-110247619D01*
X82412619Y-110295238D01*
X82436428Y-110390476D01*
X82436428Y-110461904D01*
X82412619Y-110557142D01*
X82388809Y-110604761D01*
X82341190Y-110652380D01*
X82269761Y-110676190D01*
X82150714Y-110676190D01*
X82531666Y-110723809D02*
X82912619Y-110723809D01*
X83317380Y-110628571D02*
X83293571Y-110652380D01*
X83222142Y-110676190D01*
X83174523Y-110676190D01*
X83103095Y-110652380D01*
X83055476Y-110604761D01*
X83031666Y-110557142D01*
X83007857Y-110461904D01*
X83007857Y-110390476D01*
X83031666Y-110295238D01*
X83055476Y-110247619D01*
X83103095Y-110200000D01*
X83174523Y-110176190D01*
X83222142Y-110176190D01*
X83293571Y-110200000D01*
X83317380Y-110223809D01*
X83507857Y-110652380D02*
X83579285Y-110676190D01*
X83698333Y-110676190D01*
X83745952Y-110652380D01*
X83769761Y-110628571D01*
X83793571Y-110580952D01*
X83793571Y-110533333D01*
X83769761Y-110485714D01*
X83745952Y-110461904D01*
X83698333Y-110438095D01*
X83603095Y-110414285D01*
X83555476Y-110390476D01*
X83531666Y-110366666D01*
X83507857Y-110319047D01*
X83507857Y-110271428D01*
X83531666Y-110223809D01*
X83555476Y-110200000D01*
X83603095Y-110176190D01*
X83722142Y-110176190D01*
X83793571Y-110200000D01*
X83960238Y-110866666D02*
X83984047Y-110842857D01*
X84031666Y-110771428D01*
X84055476Y-110723809D01*
X84079285Y-110652380D01*
X84103095Y-110533333D01*
X84103095Y-110438095D01*
X84079285Y-110319047D01*
X84055476Y-110247619D01*
X84031666Y-110200000D01*
X83984047Y-110128571D01*
X83960238Y-110104761D01*
X80626904Y-111050000D02*
X80579285Y-111026190D01*
X80507857Y-111026190D01*
X80436428Y-111050000D01*
X80388809Y-111097619D01*
X80365000Y-111145238D01*
X80341190Y-111240476D01*
X80341190Y-111311904D01*
X80365000Y-111407142D01*
X80388809Y-111454761D01*
X80436428Y-111502380D01*
X80507857Y-111526190D01*
X80555476Y-111526190D01*
X80626904Y-111502380D01*
X80650714Y-111478571D01*
X80650714Y-111311904D01*
X80555476Y-111311904D01*
X80817380Y-111026190D02*
X81150714Y-111026190D01*
X80936428Y-111526190D01*
X81484047Y-111716666D02*
X81460238Y-111692857D01*
X81412619Y-111621428D01*
X81388809Y-111573809D01*
X81365000Y-111502380D01*
X81341190Y-111383333D01*
X81341190Y-111288095D01*
X81365000Y-111169047D01*
X81388809Y-111097619D01*
X81412619Y-111050000D01*
X81460238Y-110978571D01*
X81484047Y-110954761D01*
X81912619Y-111526190D02*
X81674523Y-111526190D01*
X81674523Y-111026190D01*
X82365000Y-111478571D02*
X82341190Y-111502380D01*
X82269761Y-111526190D01*
X82222142Y-111526190D01*
X82150714Y-111502380D01*
X82103095Y-111454761D01*
X82079285Y-111407142D01*
X82055476Y-111311904D01*
X82055476Y-111240476D01*
X82079285Y-111145238D01*
X82103095Y-111097619D01*
X82150714Y-111050000D01*
X82222142Y-111026190D01*
X82269761Y-111026190D01*
X82341190Y-111050000D01*
X82365000Y-111073809D01*
X82579285Y-111526190D02*
X82579285Y-111026190D01*
X82698333Y-111026190D01*
X82769761Y-111050000D01*
X82817380Y-111097619D01*
X82841190Y-111145238D01*
X82865000Y-111240476D01*
X82865000Y-111311904D01*
X82841190Y-111407142D01*
X82817380Y-111454761D01*
X82769761Y-111502380D01*
X82698333Y-111526190D01*
X82579285Y-111526190D01*
X82960238Y-111573809D02*
X83341190Y-111573809D01*
X83745952Y-111478571D02*
X83722142Y-111502380D01*
X83650714Y-111526190D01*
X83603095Y-111526190D01*
X83531666Y-111502380D01*
X83484047Y-111454761D01*
X83460238Y-111407142D01*
X83436428Y-111311904D01*
X83436428Y-111240476D01*
X83460238Y-111145238D01*
X83484047Y-111097619D01*
X83531666Y-111050000D01*
X83603095Y-111026190D01*
X83650714Y-111026190D01*
X83722142Y-111050000D01*
X83745952Y-111073809D01*
X83936428Y-111502380D02*
X84007857Y-111526190D01*
X84126904Y-111526190D01*
X84174523Y-111502380D01*
X84198333Y-111478571D01*
X84222142Y-111430952D01*
X84222142Y-111383333D01*
X84198333Y-111335714D01*
X84174523Y-111311904D01*
X84126904Y-111288095D01*
X84031666Y-111264285D01*
X83984047Y-111240476D01*
X83960238Y-111216666D01*
X83936428Y-111169047D01*
X83936428Y-111121428D01*
X83960238Y-111073809D01*
X83984047Y-111050000D01*
X84031666Y-111026190D01*
X84150714Y-111026190D01*
X84222142Y-111050000D01*
X84388809Y-111716666D02*
X84412619Y-111692857D01*
X84460238Y-111621428D01*
X84484047Y-111573809D01*
X84507857Y-111502380D01*
X84531666Y-111383333D01*
X84531666Y-111288095D01*
X84507857Y-111169047D01*
X84484047Y-111097619D01*
X84460238Y-111050000D01*
X84412619Y-110978571D01*
X84388809Y-110954761D01*
X80626904Y-111900000D02*
X80579285Y-111876190D01*
X80507857Y-111876190D01*
X80436428Y-111900000D01*
X80388809Y-111947619D01*
X80365000Y-111995238D01*
X80341190Y-112090476D01*
X80341190Y-112161904D01*
X80365000Y-112257142D01*
X80388809Y-112304761D01*
X80436428Y-112352380D01*
X80507857Y-112376190D01*
X80555476Y-112376190D01*
X80626904Y-112352380D01*
X80650714Y-112328571D01*
X80650714Y-112161904D01*
X80555476Y-112161904D01*
X80936428Y-112090476D02*
X80888809Y-112066666D01*
X80865000Y-112042857D01*
X80841190Y-111995238D01*
X80841190Y-111971428D01*
X80865000Y-111923809D01*
X80888809Y-111900000D01*
X80936428Y-111876190D01*
X81031666Y-111876190D01*
X81079285Y-111900000D01*
X81103095Y-111923809D01*
X81126904Y-111971428D01*
X81126904Y-111995238D01*
X81103095Y-112042857D01*
X81079285Y-112066666D01*
X81031666Y-112090476D01*
X80936428Y-112090476D01*
X80888809Y-112114285D01*
X80865000Y-112138095D01*
X80841190Y-112185714D01*
X80841190Y-112280952D01*
X80865000Y-112328571D01*
X80888809Y-112352380D01*
X80936428Y-112376190D01*
X81031666Y-112376190D01*
X81079285Y-112352380D01*
X81103095Y-112328571D01*
X81126904Y-112280952D01*
X81126904Y-112185714D01*
X81103095Y-112138095D01*
X81079285Y-112114285D01*
X81031666Y-112090476D01*
X81484047Y-112566666D02*
X81460238Y-112542857D01*
X81412619Y-112471428D01*
X81388809Y-112423809D01*
X81365000Y-112352380D01*
X81341190Y-112233333D01*
X81341190Y-112138095D01*
X81365000Y-112019047D01*
X81388809Y-111947619D01*
X81412619Y-111900000D01*
X81460238Y-111828571D01*
X81484047Y-111804761D01*
X81912619Y-112376190D02*
X81674523Y-112376190D01*
X81674523Y-111876190D01*
X82365000Y-112328571D02*
X82341190Y-112352380D01*
X82269761Y-112376190D01*
X82222142Y-112376190D01*
X82150714Y-112352380D01*
X82103095Y-112304761D01*
X82079285Y-112257142D01*
X82055476Y-112161904D01*
X82055476Y-112090476D01*
X82079285Y-111995238D01*
X82103095Y-111947619D01*
X82150714Y-111900000D01*
X82222142Y-111876190D01*
X82269761Y-111876190D01*
X82341190Y-111900000D01*
X82365000Y-111923809D01*
X82579285Y-112376190D02*
X82579285Y-111876190D01*
X82698333Y-111876190D01*
X82769761Y-111900000D01*
X82817380Y-111947619D01*
X82841190Y-111995238D01*
X82865000Y-112090476D01*
X82865000Y-112161904D01*
X82841190Y-112257142D01*
X82817380Y-112304761D01*
X82769761Y-112352380D01*
X82698333Y-112376190D01*
X82579285Y-112376190D01*
X82960238Y-112423809D02*
X83341190Y-112423809D01*
X83745952Y-112376190D02*
X83579285Y-112138095D01*
X83460238Y-112376190D02*
X83460238Y-111876190D01*
X83650714Y-111876190D01*
X83698333Y-111900000D01*
X83722142Y-111923809D01*
X83745952Y-111971428D01*
X83745952Y-112042857D01*
X83722142Y-112090476D01*
X83698333Y-112114285D01*
X83650714Y-112138095D01*
X83460238Y-112138095D01*
X83960238Y-112114285D02*
X84126904Y-112114285D01*
X84198333Y-112376190D02*
X83960238Y-112376190D01*
X83960238Y-111876190D01*
X84198333Y-111876190D01*
X84388809Y-112352380D02*
X84460238Y-112376190D01*
X84579285Y-112376190D01*
X84626904Y-112352380D01*
X84650714Y-112328571D01*
X84674523Y-112280952D01*
X84674523Y-112233333D01*
X84650714Y-112185714D01*
X84626904Y-112161904D01*
X84579285Y-112138095D01*
X84484047Y-112114285D01*
X84436428Y-112090476D01*
X84412619Y-112066666D01*
X84388809Y-112019047D01*
X84388809Y-111971428D01*
X84412619Y-111923809D01*
X84436428Y-111900000D01*
X84484047Y-111876190D01*
X84603095Y-111876190D01*
X84674523Y-111900000D01*
X84888809Y-112114285D02*
X85055476Y-112114285D01*
X85126904Y-112376190D02*
X84888809Y-112376190D01*
X84888809Y-111876190D01*
X85126904Y-111876190D01*
X85269761Y-111876190D02*
X85555476Y-111876190D01*
X85412619Y-112376190D02*
X85412619Y-111876190D01*
X85674523Y-112566666D02*
X85698333Y-112542857D01*
X85745952Y-112471428D01*
X85769761Y-112423809D01*
X85793571Y-112352380D01*
X85817380Y-112233333D01*
X85817380Y-112138095D01*
X85793571Y-112019047D01*
X85769761Y-111947619D01*
X85745952Y-111900000D01*
X85698333Y-111828571D01*
X85674523Y-111804761D01*
X80626904Y-112750000D02*
X80579285Y-112726190D01*
X80507857Y-112726190D01*
X80436428Y-112750000D01*
X80388809Y-112797619D01*
X80365000Y-112845238D01*
X80341190Y-112940476D01*
X80341190Y-113011904D01*
X80365000Y-113107142D01*
X80388809Y-113154761D01*
X80436428Y-113202380D01*
X80507857Y-113226190D01*
X80555476Y-113226190D01*
X80626904Y-113202380D01*
X80650714Y-113178571D01*
X80650714Y-113011904D01*
X80555476Y-113011904D01*
X81126904Y-113226190D02*
X80841190Y-113226190D01*
X80984047Y-113226190D02*
X80984047Y-112726190D01*
X80936428Y-112797619D01*
X80888809Y-112845238D01*
X80841190Y-112869047D01*
X81436428Y-112726190D02*
X81484047Y-112726190D01*
X81531666Y-112750000D01*
X81555476Y-112773809D01*
X81579285Y-112821428D01*
X81603095Y-112916666D01*
X81603095Y-113035714D01*
X81579285Y-113130952D01*
X81555476Y-113178571D01*
X81531666Y-113202380D01*
X81484047Y-113226190D01*
X81436428Y-113226190D01*
X81388809Y-113202380D01*
X81365000Y-113178571D01*
X81341190Y-113130952D01*
X81317380Y-113035714D01*
X81317380Y-112916666D01*
X81341190Y-112821428D01*
X81365000Y-112773809D01*
X81388809Y-112750000D01*
X81436428Y-112726190D01*
X81960238Y-113416666D02*
X81936428Y-113392857D01*
X81888809Y-113321428D01*
X81865000Y-113273809D01*
X81841190Y-113202380D01*
X81817380Y-113083333D01*
X81817380Y-112988095D01*
X81841190Y-112869047D01*
X81865000Y-112797619D01*
X81888809Y-112750000D01*
X81936428Y-112678571D01*
X81960238Y-112654761D01*
X82388809Y-113226190D02*
X82150714Y-113226190D01*
X82150714Y-112726190D01*
X82841190Y-113178571D02*
X82817380Y-113202380D01*
X82745952Y-113226190D01*
X82698333Y-113226190D01*
X82626904Y-113202380D01*
X82579285Y-113154761D01*
X82555476Y-113107142D01*
X82531666Y-113011904D01*
X82531666Y-112940476D01*
X82555476Y-112845238D01*
X82579285Y-112797619D01*
X82626904Y-112750000D01*
X82698333Y-112726190D01*
X82745952Y-112726190D01*
X82817380Y-112750000D01*
X82841190Y-112773809D01*
X83055476Y-113226190D02*
X83055476Y-112726190D01*
X83174523Y-112726190D01*
X83245952Y-112750000D01*
X83293571Y-112797619D01*
X83317380Y-112845238D01*
X83341190Y-112940476D01*
X83341190Y-113011904D01*
X83317380Y-113107142D01*
X83293571Y-113154761D01*
X83245952Y-113202380D01*
X83174523Y-113226190D01*
X83055476Y-113226190D01*
X83436428Y-113273809D02*
X83817380Y-113273809D01*
X83912619Y-113083333D02*
X84150714Y-113083333D01*
X83865000Y-113226190D02*
X84031666Y-112726190D01*
X84198333Y-113226190D01*
X84460238Y-112726190D02*
X84507857Y-112726190D01*
X84555476Y-112750000D01*
X84579285Y-112773809D01*
X84603095Y-112821428D01*
X84626904Y-112916666D01*
X84626904Y-113035714D01*
X84603095Y-113130952D01*
X84579285Y-113178571D01*
X84555476Y-113202380D01*
X84507857Y-113226190D01*
X84460238Y-113226190D01*
X84412619Y-113202380D01*
X84388809Y-113178571D01*
X84365000Y-113130952D01*
X84341190Y-113035714D01*
X84341190Y-112916666D01*
X84365000Y-112821428D01*
X84388809Y-112773809D01*
X84412619Y-112750000D01*
X84460238Y-112726190D01*
X84793571Y-113416666D02*
X84817380Y-113392857D01*
X84865000Y-113321428D01*
X84888809Y-113273809D01*
X84912619Y-113202380D01*
X84936428Y-113083333D01*
X84936428Y-112988095D01*
X84912619Y-112869047D01*
X84888809Y-112797619D01*
X84865000Y-112750000D01*
X84817380Y-112678571D01*
X84793571Y-112654761D01*
D10*
X76752857Y-102785714D02*
X76752857Y-102519047D01*
X77171904Y-102404761D02*
X77171904Y-102785714D01*
X76371904Y-102785714D01*
X76371904Y-102404761D01*
X76371904Y-102138095D02*
X77171904Y-101604761D01*
X76371904Y-101604761D02*
X77171904Y-102138095D01*
X76371904Y-101414285D02*
X76371904Y-100957142D01*
X77171904Y-101185714D02*
X76371904Y-101185714D01*
X77248095Y-100880952D02*
X77248095Y-100271428D01*
X76371904Y-99700000D02*
X76371904Y-100080952D01*
X76752857Y-100119047D01*
X76714761Y-100080952D01*
X76676666Y-100004761D01*
X76676666Y-99814285D01*
X76714761Y-99738095D01*
X76752857Y-99700000D01*
X76829047Y-99661904D01*
X77019523Y-99661904D01*
X77095714Y-99700000D01*
X77133809Y-99738095D01*
X77171904Y-99814285D01*
X77171904Y-100004761D01*
X77133809Y-100080952D01*
X77095714Y-100119047D01*
X76371904Y-99433333D02*
X77171904Y-99166666D01*
X76371904Y-98900000D01*
X100392857Y-87452380D02*
X100392857Y-86452380D01*
X100964285Y-87452380D02*
X100535714Y-86880952D01*
X100964285Y-86452380D02*
X100392857Y-87023809D01*
X101392857Y-87452380D02*
X101392857Y-86452380D01*
X101726190Y-87166666D01*
X102059523Y-86452380D01*
X102059523Y-87452380D01*
X103107142Y-87452380D02*
X102773809Y-86976190D01*
X102535714Y-87452380D02*
X102535714Y-86452380D01*
X102916666Y-86452380D01*
X103011904Y-86500000D01*
X103059523Y-86547619D01*
X103107142Y-86642857D01*
X103107142Y-86785714D01*
X103059523Y-86880952D01*
X103011904Y-86928571D01*
X102916666Y-86976190D01*
X102535714Y-86976190D01*
X103535714Y-87071428D02*
X104297619Y-87071428D01*
X105297619Y-87452380D02*
X104726190Y-87452380D01*
X105011904Y-87452380D02*
X105011904Y-86452380D01*
X104916666Y-86595238D01*
X104821428Y-86690476D01*
X104726190Y-86738095D01*
X105726190Y-87357142D02*
X105773809Y-87404761D01*
X105726190Y-87452380D01*
X105678571Y-87404761D01*
X105726190Y-87357142D01*
X105726190Y-87452380D01*
X106345238Y-86880952D02*
X106250000Y-86833333D01*
X106202380Y-86785714D01*
X106154761Y-86690476D01*
X106154761Y-86642857D01*
X106202380Y-86547619D01*
X106250000Y-86500000D01*
X106345238Y-86452380D01*
X106535714Y-86452380D01*
X106630952Y-86500000D01*
X106678571Y-86547619D01*
X106726190Y-86642857D01*
X106726190Y-86690476D01*
X106678571Y-86785714D01*
X106630952Y-86833333D01*
X106535714Y-86880952D01*
X106345238Y-86880952D01*
X106250000Y-86928571D01*
X106202380Y-86976190D01*
X106154761Y-87071428D01*
X106154761Y-87261904D01*
X106202380Y-87357142D01*
X106250000Y-87404761D01*
X106345238Y-87452380D01*
X106535714Y-87452380D01*
X106630952Y-87404761D01*
X106678571Y-87357142D01*
X106726190Y-87261904D01*
X106726190Y-87071428D01*
X106678571Y-86976190D01*
X106630952Y-86928571D01*
X106535714Y-86880952D01*
X107107142Y-87404761D02*
X107250000Y-87452380D01*
X107488095Y-87452380D01*
X107583333Y-87404761D01*
X107630952Y-87357142D01*
X107678571Y-87261904D01*
X107678571Y-87166666D01*
X107630952Y-87071428D01*
X107583333Y-87023809D01*
X107488095Y-86976190D01*
X107297619Y-86928571D01*
X107202380Y-86880952D01*
X107154761Y-86833333D01*
X107107142Y-86738095D01*
X107107142Y-86642857D01*
X107154761Y-86547619D01*
X107202380Y-86500000D01*
X107297619Y-86452380D01*
X107535714Y-86452380D01*
X107678571Y-86500000D01*
X108107142Y-87452380D02*
X108107142Y-86452380D01*
X108488095Y-86452380D01*
X108583333Y-86500000D01*
X108630952Y-86547619D01*
X108678571Y-86642857D01*
X108678571Y-86785714D01*
X108630952Y-86880952D01*
X108583333Y-86928571D01*
X108488095Y-86976190D01*
X108107142Y-86976190D01*
X109107142Y-87452380D02*
X109107142Y-86452380D01*
X47720000Y-106216666D02*
X48196190Y-106216666D01*
X47624761Y-106502380D02*
X47958095Y-105502380D01*
X48291428Y-106502380D01*
X48624761Y-105978571D02*
X48958095Y-105978571D01*
X49100952Y-106502380D02*
X48624761Y-106502380D01*
X48624761Y-105502380D01*
X49100952Y-105502380D01*
X49529523Y-106121428D02*
X50291428Y-106121428D01*
X50767619Y-105502380D02*
X50767619Y-106311904D01*
X50815238Y-106407142D01*
X50862857Y-106454761D01*
X50958095Y-106502380D01*
X51148571Y-106502380D01*
X51243809Y-106454761D01*
X51291428Y-106407142D01*
X51339047Y-106311904D01*
X51339047Y-105502380D01*
X51767619Y-106454761D02*
X51910476Y-106502380D01*
X52148571Y-106502380D01*
X52243809Y-106454761D01*
X52291428Y-106407142D01*
X52339047Y-106311904D01*
X52339047Y-106216666D01*
X52291428Y-106121428D01*
X52243809Y-106073809D01*
X52148571Y-106026190D01*
X51958095Y-105978571D01*
X51862857Y-105930952D01*
X51815238Y-105883333D01*
X51767619Y-105788095D01*
X51767619Y-105692857D01*
X51815238Y-105597619D01*
X51862857Y-105550000D01*
X51958095Y-105502380D01*
X52196190Y-105502380D01*
X52339047Y-105550000D01*
X53100952Y-105978571D02*
X53243809Y-106026190D01*
X53291428Y-106073809D01*
X53339047Y-106169047D01*
X53339047Y-106311904D01*
X53291428Y-106407142D01*
X53243809Y-106454761D01*
X53148571Y-106502380D01*
X52767619Y-106502380D01*
X52767619Y-105502380D01*
X53100952Y-105502380D01*
X53196190Y-105550000D01*
X53243809Y-105597619D01*
X53291428Y-105692857D01*
X53291428Y-105788095D01*
X53243809Y-105883333D01*
X53196190Y-105930952D01*
X53100952Y-105978571D01*
X52767619Y-105978571D01*
X53720000Y-105597619D02*
X53767619Y-105550000D01*
X53862857Y-105502380D01*
X54100952Y-105502380D01*
X54196190Y-105550000D01*
X54243809Y-105597619D01*
X54291428Y-105692857D01*
X54291428Y-105788095D01*
X54243809Y-105930952D01*
X53672380Y-106502380D01*
X54291428Y-106502380D01*
X54720000Y-106407142D02*
X54767619Y-106454761D01*
X54720000Y-106502380D01*
X54672380Y-106454761D01*
X54720000Y-106407142D01*
X54720000Y-106502380D01*
X55386666Y-105502380D02*
X55481904Y-105502380D01*
X55577142Y-105550000D01*
X55624761Y-105597619D01*
X55672380Y-105692857D01*
X55720000Y-105883333D01*
X55720000Y-106121428D01*
X55672380Y-106311904D01*
X55624761Y-106407142D01*
X55577142Y-106454761D01*
X55481904Y-106502380D01*
X55386666Y-106502380D01*
X55291428Y-106454761D01*
X55243809Y-106407142D01*
X55196190Y-106311904D01*
X55148571Y-106121428D01*
X55148571Y-105883333D01*
X55196190Y-105692857D01*
X55243809Y-105597619D01*
X55291428Y-105550000D01*
X55386666Y-105502380D01*
X56148571Y-106121428D02*
X56910476Y-106121428D01*
X57243809Y-105502380D02*
X57815238Y-105502380D01*
X57529523Y-106502380D02*
X57529523Y-105502380D01*
X58339047Y-106026190D02*
X58339047Y-106502380D01*
X58005714Y-105502380D02*
X58339047Y-106026190D01*
X58672380Y-105502380D01*
X59005714Y-106502380D02*
X59005714Y-105502380D01*
X59386666Y-105502380D01*
X59481904Y-105550000D01*
X59529523Y-105597619D01*
X59577142Y-105692857D01*
X59577142Y-105835714D01*
X59529523Y-105930952D01*
X59481904Y-105978571D01*
X59386666Y-106026190D01*
X59005714Y-106026190D01*
X60005714Y-105978571D02*
X60339047Y-105978571D01*
X60481904Y-106502380D02*
X60005714Y-106502380D01*
X60005714Y-105502380D01*
X60481904Y-105502380D01*
X60910476Y-106121428D02*
X61672380Y-106121428D01*
X62720000Y-106407142D02*
X62672380Y-106454761D01*
X62529523Y-106502380D01*
X62434285Y-106502380D01*
X62291428Y-106454761D01*
X62196190Y-106359523D01*
X62148571Y-106264285D01*
X62100952Y-106073809D01*
X62100952Y-105930952D01*
X62148571Y-105740476D01*
X62196190Y-105645238D01*
X62291428Y-105550000D01*
X62434285Y-105502380D01*
X62529523Y-105502380D01*
X62672380Y-105550000D01*
X62720000Y-105597619D01*
D12*
X59030000Y-64140000D02*
X59030000Y-59060000D01*
X51410000Y-64140000D02*
X59030000Y-64140000D01*
X51410000Y-59060000D02*
X51410000Y-64140000D01*
D10*
X50458095Y-77292380D02*
X50458095Y-76292380D01*
X50791428Y-77006666D01*
X51124761Y-76292380D01*
X51124761Y-77292380D01*
X52077142Y-76292380D02*
X51600952Y-76292380D01*
X51553333Y-76768571D01*
X51600952Y-76720952D01*
X51696190Y-76673333D01*
X51934285Y-76673333D01*
X52029523Y-76720952D01*
X52077142Y-76768571D01*
X52124761Y-76863809D01*
X52124761Y-77101904D01*
X52077142Y-77197142D01*
X52029523Y-77244761D01*
X51934285Y-77292380D01*
X51696190Y-77292380D01*
X51600952Y-77244761D01*
X51553333Y-77197142D01*
X52505714Y-77244761D02*
X52648571Y-77292380D01*
X52886666Y-77292380D01*
X52981904Y-77244761D01*
X53029523Y-77197142D01*
X53077142Y-77101904D01*
X53077142Y-77006666D01*
X53029523Y-76911428D01*
X52981904Y-76863809D01*
X52886666Y-76816190D01*
X52696190Y-76768571D01*
X52600952Y-76720952D01*
X52553333Y-76673333D01*
X52505714Y-76578095D01*
X52505714Y-76482857D01*
X52553333Y-76387619D01*
X52600952Y-76340000D01*
X52696190Y-76292380D01*
X52934285Y-76292380D01*
X53077142Y-76340000D01*
X53362857Y-76292380D02*
X53934285Y-76292380D01*
X53648571Y-77292380D02*
X53648571Y-76292380D01*
X54220000Y-77006666D02*
X54696190Y-77006666D01*
X54124761Y-77292380D02*
X54458095Y-76292380D01*
X54791428Y-77292380D01*
X55124761Y-77292380D02*
X55124761Y-76292380D01*
X55458095Y-77006666D01*
X55791428Y-76292380D01*
X55791428Y-77292380D01*
X56267619Y-77292380D02*
X56267619Y-76292380D01*
X56648571Y-76292380D01*
X56743809Y-76340000D01*
X56791428Y-76387619D01*
X56839047Y-76482857D01*
X56839047Y-76625714D01*
X56791428Y-76720952D01*
X56743809Y-76768571D01*
X56648571Y-76816190D01*
X56267619Y-76816190D01*
X57267619Y-76911428D02*
X58029523Y-76911428D01*
X59077142Y-77197142D02*
X59029523Y-77244761D01*
X58886666Y-77292380D01*
X58791428Y-77292380D01*
X58648571Y-77244761D01*
X58553333Y-77149523D01*
X58505714Y-77054285D01*
X58458095Y-76863809D01*
X58458095Y-76720952D01*
X58505714Y-76530476D01*
X58553333Y-76435238D01*
X58648571Y-76340000D01*
X58791428Y-76292380D01*
X58886666Y-76292380D01*
X59029523Y-76340000D01*
X59077142Y-76387619D01*
X59410476Y-76292380D02*
X60029523Y-76292380D01*
X59696190Y-76673333D01*
X59839047Y-76673333D01*
X59934285Y-76720952D01*
X59981904Y-76768571D01*
X60029523Y-76863809D01*
X60029523Y-77101904D01*
X59981904Y-77197142D01*
X59934285Y-77244761D01*
X59839047Y-77292380D01*
X59553333Y-77292380D01*
X59458095Y-77244761D01*
X59410476Y-77197142D01*
X89369523Y-113522380D02*
X88798095Y-113522380D01*
X89083809Y-113522380D02*
X89083809Y-112522380D01*
X88988571Y-112665238D01*
X88893333Y-112760476D01*
X88798095Y-112808095D01*
X89750476Y-112617619D02*
X89798095Y-112570000D01*
X89893333Y-112522380D01*
X90131428Y-112522380D01*
X90226666Y-112570000D01*
X90274285Y-112617619D01*
X90321904Y-112712857D01*
X90321904Y-112808095D01*
X90274285Y-112950952D01*
X89702857Y-113522380D01*
X90321904Y-113522380D01*
X117845714Y-113522380D02*
X117274285Y-113522380D01*
X117560000Y-113522380D02*
X117560000Y-112522380D01*
X117464761Y-112665238D01*
X117369523Y-112760476D01*
X117274285Y-112808095D01*
X117008571Y-60802857D02*
X116741904Y-60802857D01*
X116741904Y-61221904D02*
X116741904Y-60421904D01*
X117122857Y-60421904D01*
X117846666Y-60460000D02*
X117770476Y-60421904D01*
X117656190Y-60421904D01*
X117541904Y-60460000D01*
X117465714Y-60536190D01*
X117427619Y-60612380D01*
X117389523Y-60764761D01*
X117389523Y-60879047D01*
X117427619Y-61031428D01*
X117465714Y-61107619D01*
X117541904Y-61183809D01*
X117656190Y-61221904D01*
X117732380Y-61221904D01*
X117846666Y-61183809D01*
X117884761Y-61145714D01*
X117884761Y-60879047D01*
X117732380Y-60879047D01*
X118380000Y-60421904D02*
X118456190Y-60421904D01*
X118532380Y-60460000D01*
X118570476Y-60498095D01*
X118608571Y-60574285D01*
X118646666Y-60726666D01*
X118646666Y-60917142D01*
X118608571Y-61069523D01*
X118570476Y-61145714D01*
X118532380Y-61183809D01*
X118456190Y-61221904D01*
X118380000Y-61221904D01*
X118303809Y-61183809D01*
X118265714Y-61145714D01*
X118227619Y-61069523D01*
X118189523Y-60917142D01*
X118189523Y-60726666D01*
X118227619Y-60574285D01*
X118265714Y-60498095D01*
X118303809Y-60460000D01*
X118380000Y-60421904D01*
X119332380Y-60421904D02*
X119180000Y-60421904D01*
X119103809Y-60460000D01*
X119065714Y-60498095D01*
X118989523Y-60612380D01*
X118951428Y-60764761D01*
X118951428Y-61069523D01*
X118989523Y-61145714D01*
X119027619Y-61183809D01*
X119103809Y-61221904D01*
X119256190Y-61221904D01*
X119332380Y-61183809D01*
X119370476Y-61145714D01*
X119408571Y-61069523D01*
X119408571Y-60879047D01*
X119370476Y-60802857D01*
X119332380Y-60764761D01*
X119256190Y-60726666D01*
X119103809Y-60726666D01*
X119027619Y-60764761D01*
X118989523Y-60802857D01*
X118951428Y-60879047D01*
X119751428Y-60917142D02*
X120360952Y-60917142D01*
X121199047Y-61145714D02*
X121160952Y-61183809D01*
X121046666Y-61221904D01*
X120970476Y-61221904D01*
X120856190Y-61183809D01*
X120780000Y-61107619D01*
X120741904Y-61031428D01*
X120703809Y-60879047D01*
X120703809Y-60764761D01*
X120741904Y-60612380D01*
X120780000Y-60536190D01*
X120856190Y-60460000D01*
X120970476Y-60421904D01*
X121046666Y-60421904D01*
X121160952Y-60460000D01*
X121199047Y-60498095D01*
X121465714Y-60421904D02*
X121960952Y-60421904D01*
X121694285Y-60726666D01*
X121808571Y-60726666D01*
X121884761Y-60764761D01*
X121922857Y-60802857D01*
X121960952Y-60879047D01*
X121960952Y-61069523D01*
X121922857Y-61145714D01*
X121884761Y-61183809D01*
X121808571Y-61221904D01*
X121580000Y-61221904D01*
X121503809Y-61183809D01*
X121465714Y-61145714D01*
X122303809Y-61221904D02*
X122303809Y-60421904D01*
X122494285Y-60421904D01*
X122608571Y-60460000D01*
X122684761Y-60536190D01*
X122722857Y-60612380D01*
X122760952Y-60764761D01*
X122760952Y-60879047D01*
X122722857Y-61031428D01*
X122684761Y-61107619D01*
X122608571Y-61183809D01*
X122494285Y-61221904D01*
X122303809Y-61221904D01*
X123103809Y-60802857D02*
X123370476Y-60802857D01*
X123484761Y-61221904D02*
X123103809Y-61221904D01*
X123103809Y-60421904D01*
X123484761Y-60421904D01*
X123713333Y-60421904D02*
X123980000Y-61221904D01*
X124246666Y-60421904D01*
X125580000Y-61221904D02*
X125313333Y-60840952D01*
X125122857Y-61221904D02*
X125122857Y-60421904D01*
X125427619Y-60421904D01*
X125503809Y-60460000D01*
X125541904Y-60498095D01*
X125580000Y-60574285D01*
X125580000Y-60688571D01*
X125541904Y-60764761D01*
X125503809Y-60802857D01*
X125427619Y-60840952D01*
X125122857Y-60840952D01*
X125922857Y-60802857D02*
X126189523Y-60802857D01*
X126303809Y-61221904D02*
X125922857Y-61221904D01*
X125922857Y-60421904D01*
X126303809Y-60421904D01*
X126532380Y-60421904D02*
X126799047Y-61221904D01*
X127065714Y-60421904D01*
X127332380Y-61145714D02*
X127370476Y-61183809D01*
X127332380Y-61221904D01*
X127294285Y-61183809D01*
X127332380Y-61145714D01*
X127332380Y-61221904D01*
X127675238Y-60993333D02*
X128056190Y-60993333D01*
X127599047Y-61221904D02*
X127865714Y-60421904D01*
X128132380Y-61221904D01*
D12*
X45240000Y-99070000D02*
X65240000Y-99070000D01*
X45240000Y-114070000D02*
X45240000Y-99070000D01*
X65240000Y-114070000D02*
X45240000Y-114070000D01*
X65240000Y-99070000D02*
X65240000Y-114070000D01*
X44920000Y-60320000D02*
X46190000Y-59050000D01*
X65240000Y-60320000D02*
X63970000Y-59050000D01*
X46190000Y-92070000D02*
X44920000Y-90800000D01*
X65240000Y-90800000D02*
X63970000Y-92070000D01*
X65240000Y-60320000D02*
X65240000Y-90800000D01*
X46190000Y-59050000D02*
X63970000Y-59050000D01*
X44920000Y-90800000D02*
X44920000Y-60320000D01*
X63970000Y-92070000D02*
X46190000Y-92070000D01*
X75000000Y-64240000D02*
X75000000Y-63910000D01*
X68460000Y-64240000D02*
X75000000Y-64240000D01*
X68460000Y-63910000D02*
X68460000Y-64240000D01*
X75000000Y-61500000D02*
X75000000Y-61830000D01*
X68460000Y-61500000D02*
X75000000Y-61500000D01*
X68460000Y-61830000D02*
X68460000Y-61500000D01*
X75000000Y-71860000D02*
X75000000Y-71530000D01*
X68460000Y-71860000D02*
X75000000Y-71860000D01*
X68460000Y-71530000D02*
X68460000Y-71860000D01*
X75000000Y-69120000D02*
X75000000Y-69450000D01*
X68460000Y-69120000D02*
X75000000Y-69120000D01*
X68460000Y-69450000D02*
X68460000Y-69120000D01*
X70400000Y-102300000D02*
X70400000Y-100970000D01*
X71730000Y-102300000D02*
X70400000Y-102300000D01*
X73000000Y-102300000D02*
X73000000Y-99640000D01*
X73000000Y-99640000D02*
X75600000Y-99640000D01*
X73000000Y-102300000D02*
X75600000Y-102300000D01*
X75600000Y-102300000D02*
X75600000Y-99640000D01*
X75000000Y-68050000D02*
X75000000Y-67720000D01*
X68460000Y-68050000D02*
X75000000Y-68050000D01*
X68460000Y-67720000D02*
X68460000Y-68050000D01*
X75000000Y-65310000D02*
X75000000Y-65640000D01*
X68460000Y-65310000D02*
X75000000Y-65310000D01*
X68460000Y-65640000D02*
X68460000Y-65310000D01*
X75000000Y-75670000D02*
X75000000Y-75340000D01*
X68460000Y-75670000D02*
X75000000Y-75670000D01*
X68460000Y-75340000D02*
X68460000Y-75670000D01*
X75000000Y-72930000D02*
X75000000Y-73260000D01*
X68460000Y-72930000D02*
X75000000Y-72930000D01*
X68460000Y-73260000D02*
X68460000Y-72930000D01*
X75000000Y-79480000D02*
X75000000Y-79150000D01*
X68460000Y-79480000D02*
X75000000Y-79480000D01*
X68460000Y-79150000D02*
X68460000Y-79480000D01*
X75000000Y-76740000D02*
X75000000Y-77070000D01*
X68460000Y-76740000D02*
X75000000Y-76740000D01*
X68460000Y-77070000D02*
X68460000Y-76740000D01*
X75940000Y-109050000D02*
X75940000Y-107550000D01*
X74690000Y-105050000D02*
X70190000Y-105050000D01*
X68940000Y-107550000D02*
X68940000Y-109050000D01*
X70190000Y-111550000D02*
X74690000Y-111550000D01*
X118780000Y-109330000D02*
X118780000Y-110660000D01*
X117450000Y-109330000D02*
X118780000Y-109330000D01*
X116180000Y-109330000D02*
X116180000Y-111990000D01*
X116180000Y-111990000D02*
X88180000Y-111990000D01*
X116180000Y-109330000D02*
X88180000Y-109330000D01*
X88180000Y-109330000D02*
X88180000Y-111990000D01*
X84530000Y-105520000D02*
G75*
G03X84530000Y-105520000I-1400000J0D01*
G01*
X125430000Y-65600000D02*
G75*
G03X125430000Y-65600000I-1400000J0D01*
G01*
X84530000Y-65600000D02*
G75*
G03X84530000Y-65600000I-1400000J0D01*
G01*
X81770000Y-108520000D02*
G75*
G02X79230000Y-105980000I0J2540000D01*
G01*
X130030000Y-105980000D02*
G75*
G02X127490000Y-108520000I-2540000J0D01*
G01*
X127490000Y-62800000D02*
G75*
G02X130030000Y-65340000I0J-2540000D01*
G01*
X79230000Y-65340000D02*
G75*
G02X81770000Y-62800000I2540000J0D01*
G01*
X79230000Y-105980000D02*
X79230000Y-65340000D01*
X127490000Y-108520000D02*
X81770000Y-108520000D01*
X130030000Y-65340000D02*
X130030000Y-105980000D01*
X81770000Y-62800000D02*
X127490000Y-62800000D01*
X63570000Y-97260000D02*
X63570000Y-96930000D01*
X57030000Y-97260000D02*
X63570000Y-97260000D01*
X57030000Y-96930000D02*
X57030000Y-97260000D01*
X63570000Y-94520000D02*
X63570000Y-94850000D01*
X57030000Y-94520000D02*
X63570000Y-94520000D01*
X57030000Y-94850000D02*
X57030000Y-94520000D01*
X53410000Y-97260000D02*
X53410000Y-96930000D01*
X46870000Y-97260000D02*
X53410000Y-97260000D01*
X46870000Y-96930000D02*
X46870000Y-97260000D01*
X53410000Y-94520000D02*
X53410000Y-94850000D01*
X46870000Y-94520000D02*
X53410000Y-94520000D01*
X46870000Y-94850000D02*
X46870000Y-94520000D01*
D10*
X54458095Y-102962380D02*
X54458095Y-103771904D01*
X54505714Y-103867142D01*
X54553333Y-103914761D01*
X54648571Y-103962380D01*
X54839047Y-103962380D01*
X54934285Y-103914761D01*
X54981904Y-103867142D01*
X55029523Y-103771904D01*
X55029523Y-102962380D01*
X56029523Y-103962380D02*
X55458095Y-103962380D01*
X55743809Y-103962380D02*
X55743809Y-102962380D01*
X55648571Y-103105238D01*
X55553333Y-103200476D01*
X55458095Y-103248095D01*
X54318095Y-73752380D02*
X54318095Y-74561904D01*
X54365714Y-74657142D01*
X54413333Y-74704761D01*
X54508571Y-74752380D01*
X54699047Y-74752380D01*
X54794285Y-74704761D01*
X54841904Y-74657142D01*
X54889523Y-74561904D01*
X54889523Y-73752380D01*
X55318095Y-73847619D02*
X55365714Y-73800000D01*
X55460952Y-73752380D01*
X55699047Y-73752380D01*
X55794285Y-73800000D01*
X55841904Y-73847619D01*
X55889523Y-73942857D01*
X55889523Y-74038095D01*
X55841904Y-74180952D01*
X55270476Y-74752380D01*
X55889523Y-74752380D01*
X42864285Y-87442380D02*
X42864285Y-86442380D01*
X43435714Y-87442380D01*
X43435714Y-86442380D01*
X44483333Y-87347142D02*
X44435714Y-87394761D01*
X44292857Y-87442380D01*
X44197619Y-87442380D01*
X44054761Y-87394761D01*
X43959523Y-87299523D01*
X43911904Y-87204285D01*
X43864285Y-87013809D01*
X43864285Y-86870952D01*
X43911904Y-86680476D01*
X43959523Y-86585238D01*
X44054761Y-86490000D01*
X44197619Y-86442380D01*
X44292857Y-86442380D01*
X44435714Y-86490000D01*
X44483333Y-86537619D01*
X42864285Y-89982380D02*
X42864285Y-88982380D01*
X43435714Y-89982380D01*
X43435714Y-88982380D01*
X44483333Y-89887142D02*
X44435714Y-89934761D01*
X44292857Y-89982380D01*
X44197619Y-89982380D01*
X44054761Y-89934761D01*
X43959523Y-89839523D01*
X43911904Y-89744285D01*
X43864285Y-89553809D01*
X43864285Y-89410952D01*
X43911904Y-89220476D01*
X43959523Y-89125238D01*
X44054761Y-89030000D01*
X44197619Y-88982380D01*
X44292857Y-88982380D01*
X44435714Y-89030000D01*
X44483333Y-89077619D01*
X71563333Y-63322380D02*
X71230000Y-62846190D01*
X70991904Y-63322380D02*
X70991904Y-62322380D01*
X71372857Y-62322380D01*
X71468095Y-62370000D01*
X71515714Y-62417619D01*
X71563333Y-62512857D01*
X71563333Y-62655714D01*
X71515714Y-62750952D01*
X71468095Y-62798571D01*
X71372857Y-62846190D01*
X70991904Y-62846190D01*
X71896666Y-62322380D02*
X72515714Y-62322380D01*
X72182380Y-62703333D01*
X72325238Y-62703333D01*
X72420476Y-62750952D01*
X72468095Y-62798571D01*
X72515714Y-62893809D01*
X72515714Y-63131904D01*
X72468095Y-63227142D01*
X72420476Y-63274761D01*
X72325238Y-63322380D01*
X72039523Y-63322380D01*
X71944285Y-63274761D01*
X71896666Y-63227142D01*
X71563333Y-70942380D02*
X71230000Y-70466190D01*
X70991904Y-70942380D02*
X70991904Y-69942380D01*
X71372857Y-69942380D01*
X71468095Y-69990000D01*
X71515714Y-70037619D01*
X71563333Y-70132857D01*
X71563333Y-70275714D01*
X71515714Y-70370952D01*
X71468095Y-70418571D01*
X71372857Y-70466190D01*
X70991904Y-70466190D01*
X72468095Y-69942380D02*
X71991904Y-69942380D01*
X71944285Y-70418571D01*
X71991904Y-70370952D01*
X72087142Y-70323333D01*
X72325238Y-70323333D01*
X72420476Y-70370952D01*
X72468095Y-70418571D01*
X72515714Y-70513809D01*
X72515714Y-70751904D01*
X72468095Y-70847142D01*
X72420476Y-70894761D01*
X72325238Y-70942380D01*
X72087142Y-70942380D01*
X71991904Y-70894761D01*
X71944285Y-70847142D01*
X68852380Y-101803333D02*
X69566666Y-101803333D01*
X69709523Y-101850952D01*
X69804761Y-101946190D01*
X69852380Y-102089047D01*
X69852380Y-102184285D01*
X69852380Y-101327142D02*
X68852380Y-101327142D01*
X68852380Y-100946190D01*
X68900000Y-100850952D01*
X68947619Y-100803333D01*
X69042857Y-100755714D01*
X69185714Y-100755714D01*
X69280952Y-100803333D01*
X69328571Y-100850952D01*
X69376190Y-100946190D01*
X69376190Y-101327142D01*
X69852380Y-99803333D02*
X69852380Y-100374761D01*
X69852380Y-100089047D02*
X68852380Y-100089047D01*
X68995238Y-100184285D01*
X69090476Y-100279523D01*
X69138095Y-100374761D01*
X71563333Y-67132380D02*
X71230000Y-66656190D01*
X70991904Y-67132380D02*
X70991904Y-66132380D01*
X71372857Y-66132380D01*
X71468095Y-66180000D01*
X71515714Y-66227619D01*
X71563333Y-66322857D01*
X71563333Y-66465714D01*
X71515714Y-66560952D01*
X71468095Y-66608571D01*
X71372857Y-66656190D01*
X70991904Y-66656190D01*
X72420476Y-66465714D02*
X72420476Y-67132380D01*
X72182380Y-66084761D02*
X71944285Y-66799047D01*
X72563333Y-66799047D01*
X71563333Y-74752380D02*
X71230000Y-74276190D01*
X70991904Y-74752380D02*
X70991904Y-73752380D01*
X71372857Y-73752380D01*
X71468095Y-73800000D01*
X71515714Y-73847619D01*
X71563333Y-73942857D01*
X71563333Y-74085714D01*
X71515714Y-74180952D01*
X71468095Y-74228571D01*
X71372857Y-74276190D01*
X70991904Y-74276190D01*
X72420476Y-73752380D02*
X72230000Y-73752380D01*
X72134761Y-73800000D01*
X72087142Y-73847619D01*
X71991904Y-73990476D01*
X71944285Y-74180952D01*
X71944285Y-74561904D01*
X71991904Y-74657142D01*
X72039523Y-74704761D01*
X72134761Y-74752380D01*
X72325238Y-74752380D01*
X72420476Y-74704761D01*
X72468095Y-74657142D01*
X72515714Y-74561904D01*
X72515714Y-74323809D01*
X72468095Y-74228571D01*
X72420476Y-74180952D01*
X72325238Y-74133333D01*
X72134761Y-74133333D01*
X72039523Y-74180952D01*
X71991904Y-74228571D01*
X71944285Y-74323809D01*
X71563333Y-78562380D02*
X71230000Y-78086190D01*
X70991904Y-78562380D02*
X70991904Y-77562380D01*
X71372857Y-77562380D01*
X71468095Y-77610000D01*
X71515714Y-77657619D01*
X71563333Y-77752857D01*
X71563333Y-77895714D01*
X71515714Y-77990952D01*
X71468095Y-78038571D01*
X71372857Y-78086190D01*
X70991904Y-78086190D01*
X71896666Y-77562380D02*
X72563333Y-77562380D01*
X72134761Y-78562380D01*
X71106666Y-108994761D02*
X71249523Y-109042380D01*
X71487619Y-109042380D01*
X71582857Y-108994761D01*
X71630476Y-108947142D01*
X71678095Y-108851904D01*
X71678095Y-108756666D01*
X71630476Y-108661428D01*
X71582857Y-108613809D01*
X71487619Y-108566190D01*
X71297142Y-108518571D01*
X71201904Y-108470952D01*
X71154285Y-108423333D01*
X71106666Y-108328095D01*
X71106666Y-108232857D01*
X71154285Y-108137619D01*
X71201904Y-108090000D01*
X71297142Y-108042380D01*
X71535238Y-108042380D01*
X71678095Y-108090000D01*
X72011428Y-108042380D02*
X72249523Y-109042380D01*
X72440000Y-108328095D01*
X72630476Y-109042380D01*
X72868571Y-108042380D01*
X73773333Y-109042380D02*
X73201904Y-109042380D01*
X73487619Y-109042380D02*
X73487619Y-108042380D01*
X73392380Y-108185238D01*
X73297142Y-108280476D01*
X73201904Y-108328095D01*
X119232380Y-110993333D02*
X119946666Y-110993333D01*
X120089523Y-111040952D01*
X120184761Y-111136190D01*
X120232380Y-111279047D01*
X120232380Y-111374285D01*
X120232380Y-109993333D02*
X120232380Y-110564761D01*
X120232380Y-110279047D02*
X119232380Y-110279047D01*
X119375238Y-110374285D01*
X119470476Y-110469523D01*
X119518095Y-110564761D01*
X103868095Y-83912380D02*
X103868095Y-84721904D01*
X103915714Y-84817142D01*
X103963333Y-84864761D01*
X104058571Y-84912380D01*
X104249047Y-84912380D01*
X104344285Y-84864761D01*
X104391904Y-84817142D01*
X104439523Y-84721904D01*
X104439523Y-83912380D01*
X104820476Y-83912380D02*
X105439523Y-83912380D01*
X105106190Y-84293333D01*
X105249047Y-84293333D01*
X105344285Y-84340952D01*
X105391904Y-84388571D01*
X105439523Y-84483809D01*
X105439523Y-84721904D01*
X105391904Y-84817142D01*
X105344285Y-84864761D01*
X105249047Y-84912380D01*
X104963333Y-84912380D01*
X104868095Y-84864761D01*
X104820476Y-84817142D01*
X60133333Y-96342380D02*
X59800000Y-95866190D01*
X59561904Y-96342380D02*
X59561904Y-95342380D01*
X59942857Y-95342380D01*
X60038095Y-95390000D01*
X60085714Y-95437619D01*
X60133333Y-95532857D01*
X60133333Y-95675714D01*
X60085714Y-95770952D01*
X60038095Y-95818571D01*
X59942857Y-95866190D01*
X59561904Y-95866190D01*
X60514285Y-95437619D02*
X60561904Y-95390000D01*
X60657142Y-95342380D01*
X60895238Y-95342380D01*
X60990476Y-95390000D01*
X61038095Y-95437619D01*
X61085714Y-95532857D01*
X61085714Y-95628095D01*
X61038095Y-95770952D01*
X60466666Y-96342380D01*
X61085714Y-96342380D01*
X49973333Y-96342380D02*
X49640000Y-95866190D01*
X49401904Y-96342380D02*
X49401904Y-95342380D01*
X49782857Y-95342380D01*
X49878095Y-95390000D01*
X49925714Y-95437619D01*
X49973333Y-95532857D01*
X49973333Y-95675714D01*
X49925714Y-95770952D01*
X49878095Y-95818571D01*
X49782857Y-95866190D01*
X49401904Y-95866190D01*
X50925714Y-96342380D02*
X50354285Y-96342380D01*
X50640000Y-96342380D02*
X50640000Y-95342380D01*
X50544761Y-95485238D01*
X50449523Y-95580476D01*
X50354285Y-95628095D01*
%LPC*%
D13*
X47600000Y-111130000D03*
X47600000Y-108590000D03*
D14*
X62840000Y-111130000D03*
X62840000Y-108590000D03*
X47600000Y-100970000D03*
X50140000Y-100970000D03*
X52680000Y-100970000D03*
D13*
X62840000Y-100970000D03*
D14*
X60300000Y-100970000D03*
X57760000Y-100970000D03*
X55220000Y-100970000D03*
X46190000Y-89530000D03*
X46190000Y-86990000D03*
X46190000Y-84450000D03*
X46190000Y-81910000D03*
X46190000Y-79370000D03*
X46190000Y-76830000D03*
X46190000Y-74290000D03*
X46190000Y-71750000D03*
X46190000Y-69210000D03*
X46190000Y-66670000D03*
X46190000Y-64130000D03*
X46190000Y-61590000D03*
X63970000Y-61590000D03*
X63970000Y-64130000D03*
X63970000Y-66670000D03*
X63970000Y-69210000D03*
X63970000Y-71750000D03*
X63970000Y-74290000D03*
X63970000Y-76830000D03*
X63970000Y-79370000D03*
X63970000Y-81910000D03*
X63970000Y-84450000D03*
X63970000Y-86990000D03*
X63970000Y-89530000D03*
D15*
X75540000Y-62870000D03*
D16*
X67920000Y-62870000D03*
D15*
X75540000Y-70490000D03*
D16*
X67920000Y-70490000D03*
D17*
X74270000Y-100970000D03*
D18*
X71730000Y-100970000D03*
D15*
X75540000Y-66680000D03*
D16*
X67920000Y-66680000D03*
D15*
X75540000Y-74300000D03*
D16*
X67920000Y-74300000D03*
D15*
X75540000Y-78110000D03*
D16*
X67920000Y-78110000D03*
D19*
X75690000Y-106050000D03*
X75690000Y-110550000D03*
X69190000Y-106050000D03*
X69190000Y-110550000D03*
D17*
X89510000Y-110660000D03*
X92050000Y-110660000D03*
X94590000Y-110660000D03*
X97130000Y-110660000D03*
X99670000Y-110660000D03*
X102210000Y-110660000D03*
X104750000Y-110660000D03*
X107290000Y-110660000D03*
X109830000Y-110660000D03*
X112370000Y-110660000D03*
X114910000Y-110660000D03*
D18*
X117450000Y-110660000D03*
D14*
X80500000Y-104710000D03*
X80500000Y-102170000D03*
X80500000Y-99630000D03*
X80500000Y-97090000D03*
X80500000Y-94550000D03*
X80500000Y-92010000D03*
X80500000Y-89470000D03*
X80500000Y-86930000D03*
X80500000Y-84390000D03*
X80500000Y-81850000D03*
X80500000Y-79310000D03*
X80500000Y-76770000D03*
X80500000Y-74230000D03*
X80500000Y-71690000D03*
X80500000Y-69150000D03*
X80500000Y-66610000D03*
D15*
X64110000Y-95890000D03*
D16*
X56490000Y-95890000D03*
D15*
X53950000Y-95890000D03*
D16*
X46330000Y-95890000D03*
D20*
X124000000Y-65600000D03*
X127000000Y-111000000D03*
X43000000Y-111000000D03*
X43000000Y-62000000D03*
M02*
