G04 #@! TF.GenerationSoftware,KiCad,Pcbnew,5.1.5+dfsg1-2build2*
G04 #@! TF.CreationDate,2021-12-20T12:54:09+09:00*
G04 #@! TF.ProjectId,genesis-sound-card-rev2,67656e65-7369-4732-9d73-6f756e642d63,rev?*
G04 #@! TF.SameCoordinates,Original*
G04 #@! TF.FileFunction,Copper,L2,Bot*
G04 #@! TF.FilePolarity,Positive*
%FSLAX46Y46*%
G04 Gerber Fmt 4.6, Leading zero omitted, Abs format (unit mm)*
G04 Created by KiCad (PCBNEW 5.1.5+dfsg1-2build2) date 2021-12-20 12:54:09*
%MOMM*%
%LPD*%
G04 APERTURE LIST*
%ADD10R,1.524000X1.524000*%
%ADD11C,1.524000*%
%ADD12O,1.600000X1.600000*%
%ADD13C,1.600000*%
%ADD14O,1.700000X1.700000*%
%ADD15R,1.700000X1.700000*%
%ADD16C,2.000000*%
%ADD17C,3.500000*%
%ADD18C,0.800000*%
%ADD19C,0.650000*%
%ADD20C,0.600000*%
%ADD21C,0.250000*%
%ADD22C,0.254000*%
G04 APERTURE END LIST*
D10*
X47600000Y-111130000D03*
X47600000Y-108590000D03*
D11*
X62840000Y-111130000D03*
X62840000Y-108590000D03*
X47600000Y-100970000D03*
X50140000Y-100970000D03*
X52680000Y-100970000D03*
D10*
X62840000Y-100970000D03*
D11*
X60300000Y-100970000D03*
X57760000Y-100970000D03*
X55220000Y-100970000D03*
X46190000Y-89530000D03*
X46190000Y-86990000D03*
X46190000Y-84450000D03*
X46190000Y-81910000D03*
X46190000Y-79370000D03*
X46190000Y-76830000D03*
X46190000Y-74290000D03*
X46190000Y-71750000D03*
X46190000Y-69210000D03*
X46190000Y-66670000D03*
X46190000Y-64130000D03*
X46190000Y-61590000D03*
X63970000Y-61590000D03*
X63970000Y-64130000D03*
X63970000Y-66670000D03*
X63970000Y-69210000D03*
X63970000Y-71750000D03*
X63970000Y-74290000D03*
X63970000Y-76830000D03*
X63970000Y-79370000D03*
X63970000Y-81910000D03*
X63970000Y-84450000D03*
X63970000Y-86990000D03*
X63970000Y-89530000D03*
D12*
X75540000Y-62870000D03*
D13*
X67920000Y-62870000D03*
D12*
X75540000Y-70490000D03*
D13*
X67920000Y-70490000D03*
D14*
X74270000Y-100970000D03*
D15*
X71730000Y-100970000D03*
D12*
X75540000Y-66680000D03*
D13*
X67920000Y-66680000D03*
D12*
X75540000Y-74300000D03*
D13*
X67920000Y-74300000D03*
D12*
X75540000Y-78110000D03*
D13*
X67920000Y-78110000D03*
D16*
X75690000Y-106050000D03*
X75690000Y-110550000D03*
X69190000Y-106050000D03*
X69190000Y-110550000D03*
D14*
X89510000Y-110660000D03*
X92050000Y-110660000D03*
X94590000Y-110660000D03*
X97130000Y-110660000D03*
X99670000Y-110660000D03*
X102210000Y-110660000D03*
X104750000Y-110660000D03*
X107290000Y-110660000D03*
X109830000Y-110660000D03*
X112370000Y-110660000D03*
X114910000Y-110660000D03*
D15*
X117450000Y-110660000D03*
D11*
X80500000Y-104710000D03*
X80500000Y-102170000D03*
X80500000Y-99630000D03*
X80500000Y-97090000D03*
X80500000Y-94550000D03*
X80500000Y-92010000D03*
X80500000Y-89470000D03*
X80500000Y-86930000D03*
X80500000Y-84390000D03*
X80500000Y-81850000D03*
X80500000Y-79310000D03*
X80500000Y-76770000D03*
X80500000Y-74230000D03*
X80500000Y-71690000D03*
X80500000Y-69150000D03*
X80500000Y-66610000D03*
D12*
X64110000Y-95890000D03*
D13*
X56490000Y-95890000D03*
D12*
X53950000Y-95890000D03*
D13*
X46330000Y-95890000D03*
D17*
X124000000Y-65600000D03*
X127000000Y-111000000D03*
X43000000Y-111000000D03*
X43000000Y-62000000D03*
D18*
X59080000Y-86690000D03*
X78444050Y-110765950D03*
D19*
X89510000Y-110660000D02*
X88134700Y-110660000D01*
X80500000Y-102170000D02*
X88134700Y-109804700D01*
X88134700Y-109804700D02*
X88134700Y-110660000D01*
X75540000Y-90868500D02*
X75540000Y-97210000D01*
X75540000Y-97210000D02*
X80500000Y-102170000D01*
X75540000Y-66680000D02*
X76865300Y-66680000D01*
X80500000Y-69150000D02*
X79335300Y-69150000D01*
X79335300Y-69150000D02*
X76865300Y-66680000D01*
X75540000Y-78110000D02*
X75540000Y-90868500D01*
X75540000Y-74300000D02*
X75540000Y-78110000D01*
X75540000Y-66680000D02*
X75540000Y-62870000D01*
D20*
X75463501Y-90792001D02*
X75540000Y-90868500D01*
X63182001Y-90792001D02*
X75463501Y-90792001D01*
X59080000Y-86690000D02*
X63182001Y-90792001D01*
D19*
X63970000Y-69210000D02*
X62638300Y-70541700D01*
X62638300Y-70541700D02*
X62638300Y-88198300D01*
X62638300Y-88198300D02*
X63970000Y-89530000D01*
X80500000Y-104710000D02*
X77030000Y-104710000D01*
X77030000Y-104710000D02*
X75690000Y-106050000D01*
D21*
X67422600Y-99744500D02*
X66298800Y-99744500D01*
X66298800Y-99744500D02*
X46190000Y-79635700D01*
X46190000Y-79635700D02*
X46190000Y-79370000D01*
X78444050Y-110765950D02*
X67422600Y-99744500D01*
X97130000Y-110660000D02*
X95954700Y-110660000D01*
X95954700Y-110660000D02*
X95954700Y-111027300D01*
X95954700Y-111027300D02*
X94800200Y-112181800D01*
X94800200Y-112181800D02*
X68939700Y-112181800D01*
X68939700Y-112181800D02*
X61729300Y-104971400D01*
X61729300Y-104971400D02*
X61729300Y-97449300D01*
X61729300Y-97449300D02*
X46190000Y-81910000D01*
X80500000Y-84390000D02*
X79412600Y-83302600D01*
X79412600Y-83302600D02*
X79412600Y-80397400D01*
X79412600Y-80397400D02*
X80500000Y-79310000D01*
X80500000Y-84390000D02*
X79404100Y-85485900D01*
X79404100Y-85485900D02*
X79404100Y-87404100D01*
X79404100Y-87404100D02*
X80200000Y-88200000D01*
X80200000Y-88200000D02*
X80783200Y-88200000D01*
X80783200Y-88200000D02*
X99670000Y-107086800D01*
X99670000Y-107086800D02*
X99670000Y-110660000D01*
X80500000Y-79310000D02*
X77328700Y-76138700D01*
X77328700Y-76138700D02*
X77328700Y-73832100D01*
X77328700Y-73832100D02*
X76220900Y-72724300D01*
X76220900Y-72724300D02*
X70154300Y-72724300D01*
X70154300Y-72724300D02*
X67920000Y-70490000D01*
X80500000Y-73812000D02*
X69558000Y-62870000D01*
X69558000Y-62870000D02*
X67920000Y-62870000D01*
X80500000Y-73812000D02*
X80500000Y-74230000D01*
X102210000Y-110660000D02*
X102210000Y-108640000D01*
X102210000Y-108640000D02*
X80500000Y-86930000D01*
X80500000Y-76770000D02*
X77779000Y-74049000D01*
X77779000Y-74049000D02*
X77779000Y-73645500D01*
X77779000Y-73645500D02*
X76407500Y-72274000D01*
X76407500Y-72274000D02*
X73514000Y-72274000D01*
X73514000Y-72274000D02*
X67920000Y-66680000D01*
X80500000Y-76770000D02*
X104750000Y-101020000D01*
X104750000Y-101020000D02*
X104750000Y-110660000D01*
X107290000Y-110660000D02*
X107290000Y-102012100D01*
X107290000Y-102012100D02*
X80777900Y-75500000D01*
X80777900Y-75500000D02*
X80182800Y-75500000D01*
X80182800Y-75500000D02*
X78229300Y-73546500D01*
X78229300Y-73546500D02*
X78229300Y-73458900D01*
X78229300Y-73458900D02*
X76594100Y-71823700D01*
X76594100Y-71823700D02*
X75282200Y-71823700D01*
X75282200Y-71823700D02*
X65048500Y-61590000D01*
X65048500Y-61590000D02*
X63970000Y-61590000D01*
D19*
X74270000Y-100970000D02*
X65977900Y-92677900D01*
X65977900Y-92677900D02*
X63541500Y-92677900D01*
X63541500Y-92677900D02*
X55080000Y-84216400D01*
X55080000Y-84216400D02*
X55080000Y-73020000D01*
X55080000Y-73020000D02*
X46190000Y-64130000D01*
D21*
X46190000Y-69210000D02*
X44636800Y-70763200D01*
X44636800Y-70763200D02*
X44636800Y-81945200D01*
X44636800Y-81945200D02*
X45856300Y-83164700D01*
X45856300Y-83164700D02*
X46442600Y-83164700D01*
X46442600Y-83164700D02*
X60300000Y-97022100D01*
X60300000Y-97022100D02*
X60300000Y-100970000D01*
X47678900Y-85720000D02*
X45916600Y-85720000D01*
X45916600Y-85720000D02*
X44182900Y-83986300D01*
X44182900Y-83986300D02*
X44182900Y-68677100D01*
X44182900Y-68677100D02*
X46190000Y-66670000D01*
X57760000Y-95494998D02*
X47995002Y-85730000D01*
X57760000Y-100970000D02*
X57760000Y-95494998D01*
X46330000Y-95890000D02*
X50140000Y-99700000D01*
X50140000Y-99700000D02*
X50140000Y-100970000D01*
X56490000Y-96523500D02*
X52680000Y-100333500D01*
X52680000Y-100333500D02*
X52680000Y-100970000D01*
X56490000Y-95890000D02*
X56490000Y-96523500D01*
X69190000Y-110550000D02*
X65203000Y-106563000D01*
X65203000Y-106563000D02*
X65203000Y-99385100D01*
X65203000Y-99385100D02*
X46279300Y-80461400D01*
X46279300Y-80461400D02*
X45690900Y-80461400D01*
X45690900Y-80461400D02*
X45087200Y-79857700D01*
X45087200Y-79857700D02*
X45087200Y-75392800D01*
X45087200Y-75392800D02*
X46190000Y-74290000D01*
X80500000Y-89470000D02*
X76719400Y-85689400D01*
X76719400Y-85689400D02*
X76719400Y-73859700D01*
X76719400Y-73859700D02*
X76034300Y-73174600D01*
X76034300Y-73174600D02*
X65085400Y-73174600D01*
X65085400Y-73174600D02*
X63970000Y-74290000D01*
D22*
G36*
X129053000Y-109779645D02*
G01*
X128852550Y-109479651D01*
X128520349Y-109147450D01*
X128129721Y-108886440D01*
X127695679Y-108706654D01*
X127234902Y-108615000D01*
X126765098Y-108615000D01*
X126304321Y-108706654D01*
X125870279Y-108886440D01*
X125479651Y-109147450D01*
X125147450Y-109479651D01*
X124886440Y-109870279D01*
X124706654Y-110304321D01*
X124615000Y-110765098D01*
X124615000Y-111234902D01*
X124706654Y-111695679D01*
X124886440Y-112129721D01*
X125147450Y-112520349D01*
X125479651Y-112852550D01*
X125719781Y-113013000D01*
X44280219Y-113013000D01*
X44520349Y-112852550D01*
X44852550Y-112520349D01*
X45113560Y-112129721D01*
X45293346Y-111695679D01*
X45385000Y-111234902D01*
X45385000Y-110765098D01*
X45293346Y-110304321D01*
X45113560Y-109870279D01*
X44852550Y-109479651D01*
X44520349Y-109147450D01*
X44129721Y-108886440D01*
X43695679Y-108706654D01*
X43234902Y-108615000D01*
X42765098Y-108615000D01*
X42304321Y-108706654D01*
X41870279Y-108886440D01*
X41479651Y-109147450D01*
X41147450Y-109479651D01*
X40907000Y-109839509D01*
X40907000Y-107828000D01*
X46199928Y-107828000D01*
X46199928Y-109352000D01*
X46212188Y-109476482D01*
X46248498Y-109596180D01*
X46307463Y-109706494D01*
X46386815Y-109803185D01*
X46456044Y-109860000D01*
X46386815Y-109916815D01*
X46307463Y-110013506D01*
X46248498Y-110123820D01*
X46212188Y-110243518D01*
X46199928Y-110368000D01*
X46199928Y-111892000D01*
X46212188Y-112016482D01*
X46248498Y-112136180D01*
X46307463Y-112246494D01*
X46386815Y-112343185D01*
X46483506Y-112422537D01*
X46593820Y-112481502D01*
X46713518Y-112517812D01*
X46838000Y-112530072D01*
X48362000Y-112530072D01*
X48486482Y-112517812D01*
X48606180Y-112481502D01*
X48716494Y-112422537D01*
X48813185Y-112343185D01*
X48892537Y-112246494D01*
X48951502Y-112136180D01*
X48987812Y-112016482D01*
X49000072Y-111892000D01*
X49000072Y-110368000D01*
X48987812Y-110243518D01*
X48951502Y-110123820D01*
X48892537Y-110013506D01*
X48813185Y-109916815D01*
X48743956Y-109860000D01*
X48813185Y-109803185D01*
X48892537Y-109706494D01*
X48951502Y-109596180D01*
X48987812Y-109476482D01*
X49000072Y-109352000D01*
X49000072Y-107828000D01*
X48987812Y-107703518D01*
X48951502Y-107583820D01*
X48892537Y-107473506D01*
X48813185Y-107376815D01*
X48716494Y-107297463D01*
X48606180Y-107238498D01*
X48486482Y-107202188D01*
X48362000Y-107189928D01*
X46838000Y-107189928D01*
X46713518Y-107202188D01*
X46593820Y-107238498D01*
X46483506Y-107297463D01*
X46386815Y-107376815D01*
X46307463Y-107473506D01*
X46248498Y-107583820D01*
X46212188Y-107703518D01*
X46199928Y-107828000D01*
X40907000Y-107828000D01*
X40907000Y-101935565D01*
X46814040Y-101935565D01*
X46881020Y-102175656D01*
X47130048Y-102292756D01*
X47397135Y-102359023D01*
X47672017Y-102371910D01*
X47944133Y-102330922D01*
X48203023Y-102237636D01*
X48318980Y-102175656D01*
X48385960Y-101935565D01*
X47600000Y-101149605D01*
X46814040Y-101935565D01*
X40907000Y-101935565D01*
X40907000Y-101042017D01*
X46198090Y-101042017D01*
X46239078Y-101314133D01*
X46332364Y-101573023D01*
X46394344Y-101688980D01*
X46634435Y-101755960D01*
X47420395Y-100970000D01*
X46634435Y-100184040D01*
X46394344Y-100251020D01*
X46277244Y-100500048D01*
X46210977Y-100767135D01*
X46198090Y-101042017D01*
X40907000Y-101042017D01*
X40907000Y-100004435D01*
X46814040Y-100004435D01*
X47600000Y-100790395D01*
X48385960Y-100004435D01*
X48318980Y-99764344D01*
X48069952Y-99647244D01*
X47802865Y-99580977D01*
X47527983Y-99568090D01*
X47255867Y-99609078D01*
X46996977Y-99702364D01*
X46881020Y-99764344D01*
X46814040Y-100004435D01*
X40907000Y-100004435D01*
X40907000Y-63160491D01*
X41147450Y-63520349D01*
X41479651Y-63852550D01*
X41870279Y-64113560D01*
X42304321Y-64293346D01*
X42765098Y-64385000D01*
X43234902Y-64385000D01*
X43695679Y-64293346D01*
X44129721Y-64113560D01*
X44520349Y-63852550D01*
X44852550Y-63520349D01*
X45113560Y-63129721D01*
X45293346Y-62695679D01*
X45300650Y-62658958D01*
X45404041Y-62555567D01*
X45471020Y-62795656D01*
X45606760Y-62859485D01*
X45528273Y-62891995D01*
X45299465Y-63044880D01*
X45104880Y-63239465D01*
X44951995Y-63468273D01*
X44846686Y-63722510D01*
X44793000Y-63992408D01*
X44793000Y-64267592D01*
X44846686Y-64537490D01*
X44951995Y-64791727D01*
X45104880Y-65020535D01*
X45299465Y-65215120D01*
X45528273Y-65368005D01*
X45605515Y-65400000D01*
X45528273Y-65431995D01*
X45299465Y-65584880D01*
X45104880Y-65779465D01*
X44951995Y-66008273D01*
X44846686Y-66262510D01*
X44793000Y-66532408D01*
X44793000Y-66807592D01*
X44823628Y-66961570D01*
X43671898Y-68113301D01*
X43642900Y-68137099D01*
X43619102Y-68166097D01*
X43619101Y-68166098D01*
X43547926Y-68252824D01*
X43477354Y-68384854D01*
X43447080Y-68484658D01*
X43433898Y-68528114D01*
X43429278Y-68575026D01*
X43419224Y-68677100D01*
X43422901Y-68714433D01*
X43422900Y-83948978D01*
X43419224Y-83986300D01*
X43422900Y-84023622D01*
X43422900Y-84023632D01*
X43433897Y-84135285D01*
X43472809Y-84263562D01*
X43477354Y-84278546D01*
X43547926Y-84410576D01*
X43587771Y-84459126D01*
X43642899Y-84526301D01*
X43671903Y-84550104D01*
X45163072Y-86041273D01*
X45104880Y-86099465D01*
X44951995Y-86328273D01*
X44846686Y-86582510D01*
X44793000Y-86852408D01*
X44793000Y-87127592D01*
X44846686Y-87397490D01*
X44951995Y-87651727D01*
X45104880Y-87880535D01*
X45299465Y-88075120D01*
X45528273Y-88228005D01*
X45605515Y-88260000D01*
X45528273Y-88291995D01*
X45299465Y-88444880D01*
X45104880Y-88639465D01*
X44951995Y-88868273D01*
X44846686Y-89122510D01*
X44793000Y-89392408D01*
X44793000Y-89667592D01*
X44846686Y-89937490D01*
X44951995Y-90191727D01*
X45104880Y-90420535D01*
X45299465Y-90615120D01*
X45528273Y-90768005D01*
X45782510Y-90873314D01*
X46052408Y-90927000D01*
X46327592Y-90927000D01*
X46597490Y-90873314D01*
X46851727Y-90768005D01*
X47080535Y-90615120D01*
X47275120Y-90420535D01*
X47428005Y-90191727D01*
X47533314Y-89937490D01*
X47587000Y-89667592D01*
X47587000Y-89392408D01*
X47533314Y-89122510D01*
X47428005Y-88868273D01*
X47275120Y-88639465D01*
X47080535Y-88444880D01*
X46851727Y-88291995D01*
X46774485Y-88260000D01*
X46851727Y-88228005D01*
X47080535Y-88075120D01*
X47275120Y-87880535D01*
X47428005Y-87651727D01*
X47533314Y-87397490D01*
X47587000Y-87127592D01*
X47587000Y-86852408D01*
X47533314Y-86582510D01*
X47490853Y-86480000D01*
X47670201Y-86480000D01*
X55809222Y-94619022D01*
X55575241Y-94775363D01*
X55375363Y-94975241D01*
X55218320Y-95210273D01*
X55213643Y-95221565D01*
X55181037Y-95152580D01*
X55013519Y-94926586D01*
X54805131Y-94737615D01*
X54563881Y-94592930D01*
X54299040Y-94498091D01*
X54077000Y-94619376D01*
X54077000Y-95763000D01*
X54097000Y-95763000D01*
X54097000Y-96017000D01*
X54077000Y-96017000D01*
X54077000Y-97160624D01*
X54299040Y-97281909D01*
X54563881Y-97187070D01*
X54805131Y-97042385D01*
X55013519Y-96853414D01*
X55181037Y-96627420D01*
X55213643Y-96558435D01*
X55218320Y-96569727D01*
X55278662Y-96660036D01*
X52321822Y-99616877D01*
X52272510Y-99626686D01*
X52018273Y-99731995D01*
X51789465Y-99884880D01*
X51594880Y-100079465D01*
X51441995Y-100308273D01*
X51410000Y-100385515D01*
X51378005Y-100308273D01*
X51225120Y-100079465D01*
X51030535Y-99884880D01*
X50900000Y-99797659D01*
X50900000Y-99737325D01*
X50903676Y-99700000D01*
X50900000Y-99662675D01*
X50900000Y-99662667D01*
X50889003Y-99551014D01*
X50845546Y-99407753D01*
X50774974Y-99275724D01*
X50680001Y-99159999D01*
X50651004Y-99136202D01*
X47753841Y-96239039D01*
X52558096Y-96239039D01*
X52598754Y-96373087D01*
X52718963Y-96627420D01*
X52886481Y-96853414D01*
X53094869Y-97042385D01*
X53336119Y-97187070D01*
X53600960Y-97281909D01*
X53823000Y-97160624D01*
X53823000Y-96017000D01*
X52680085Y-96017000D01*
X52558096Y-96239039D01*
X47753841Y-96239039D01*
X47728688Y-96213887D01*
X47765000Y-96031335D01*
X47765000Y-95748665D01*
X47723685Y-95540961D01*
X52558096Y-95540961D01*
X52680085Y-95763000D01*
X53823000Y-95763000D01*
X53823000Y-94619376D01*
X53600960Y-94498091D01*
X53336119Y-94592930D01*
X53094869Y-94737615D01*
X52886481Y-94926586D01*
X52718963Y-95152580D01*
X52598754Y-95406913D01*
X52558096Y-95540961D01*
X47723685Y-95540961D01*
X47709853Y-95471426D01*
X47601680Y-95210273D01*
X47444637Y-94975241D01*
X47244759Y-94775363D01*
X47009727Y-94618320D01*
X46748574Y-94510147D01*
X46471335Y-94455000D01*
X46188665Y-94455000D01*
X45911426Y-94510147D01*
X45650273Y-94618320D01*
X45415241Y-94775363D01*
X45215363Y-94975241D01*
X45058320Y-95210273D01*
X44950147Y-95471426D01*
X44895000Y-95748665D01*
X44895000Y-96031335D01*
X44950147Y-96308574D01*
X45058320Y-96569727D01*
X45215363Y-96804759D01*
X45415241Y-97004637D01*
X45650273Y-97161680D01*
X45911426Y-97269853D01*
X46188665Y-97325000D01*
X46471335Y-97325000D01*
X46653887Y-97288688D01*
X49249833Y-99884634D01*
X49249465Y-99884880D01*
X49054880Y-100079465D01*
X48901995Y-100308273D01*
X48872308Y-100379943D01*
X48867636Y-100366977D01*
X48805656Y-100251020D01*
X48565565Y-100184040D01*
X47779605Y-100970000D01*
X48565565Y-101755960D01*
X48805656Y-101688980D01*
X48869485Y-101553240D01*
X48901995Y-101631727D01*
X49054880Y-101860535D01*
X49249465Y-102055120D01*
X49478273Y-102208005D01*
X49732510Y-102313314D01*
X50002408Y-102367000D01*
X50277592Y-102367000D01*
X50547490Y-102313314D01*
X50801727Y-102208005D01*
X51030535Y-102055120D01*
X51225120Y-101860535D01*
X51378005Y-101631727D01*
X51410000Y-101554485D01*
X51441995Y-101631727D01*
X51594880Y-101860535D01*
X51789465Y-102055120D01*
X52018273Y-102208005D01*
X52272510Y-102313314D01*
X52542408Y-102367000D01*
X52817592Y-102367000D01*
X53087490Y-102313314D01*
X53341727Y-102208005D01*
X53570535Y-102055120D01*
X53690090Y-101935565D01*
X54434040Y-101935565D01*
X54501020Y-102175656D01*
X54750048Y-102292756D01*
X55017135Y-102359023D01*
X55292017Y-102371910D01*
X55564133Y-102330922D01*
X55823023Y-102237636D01*
X55938980Y-102175656D01*
X56005960Y-101935565D01*
X55220000Y-101149605D01*
X54434040Y-101935565D01*
X53690090Y-101935565D01*
X53765120Y-101860535D01*
X53918005Y-101631727D01*
X53947692Y-101560057D01*
X53952364Y-101573023D01*
X54014344Y-101688980D01*
X54254435Y-101755960D01*
X55040395Y-100970000D01*
X54254435Y-100184040D01*
X54014344Y-100251020D01*
X53950515Y-100386760D01*
X53918005Y-100308273D01*
X53862739Y-100225562D01*
X54083866Y-100004435D01*
X54434040Y-100004435D01*
X55220000Y-100790395D01*
X56005960Y-100004435D01*
X55938980Y-99764344D01*
X55689952Y-99647244D01*
X55422865Y-99580977D01*
X55147983Y-99568090D01*
X54875867Y-99609078D01*
X54616977Y-99702364D01*
X54501020Y-99764344D01*
X54434040Y-100004435D01*
X54083866Y-100004435D01*
X56796070Y-97292232D01*
X56908574Y-97269853D01*
X57000001Y-97231983D01*
X57000000Y-99797659D01*
X56869465Y-99884880D01*
X56674880Y-100079465D01*
X56521995Y-100308273D01*
X56492308Y-100379943D01*
X56487636Y-100366977D01*
X56425656Y-100251020D01*
X56185565Y-100184040D01*
X55399605Y-100970000D01*
X56185565Y-101755960D01*
X56425656Y-101688980D01*
X56489485Y-101553240D01*
X56521995Y-101631727D01*
X56674880Y-101860535D01*
X56869465Y-102055120D01*
X57098273Y-102208005D01*
X57352510Y-102313314D01*
X57622408Y-102367000D01*
X57897592Y-102367000D01*
X58167490Y-102313314D01*
X58421727Y-102208005D01*
X58650535Y-102055120D01*
X58845120Y-101860535D01*
X58998005Y-101631727D01*
X59030000Y-101554485D01*
X59061995Y-101631727D01*
X59214880Y-101860535D01*
X59409465Y-102055120D01*
X59638273Y-102208005D01*
X59892510Y-102313314D01*
X60162408Y-102367000D01*
X60437592Y-102367000D01*
X60707490Y-102313314D01*
X60961727Y-102208005D01*
X60969300Y-102202945D01*
X60969300Y-104934078D01*
X60965624Y-104971400D01*
X60969300Y-105008722D01*
X60969300Y-105008732D01*
X60980297Y-105120385D01*
X61001401Y-105189956D01*
X61023754Y-105263646D01*
X61094326Y-105395676D01*
X61121658Y-105428980D01*
X61189299Y-105511401D01*
X61218303Y-105535204D01*
X62876099Y-107193000D01*
X62702408Y-107193000D01*
X62432510Y-107246686D01*
X62178273Y-107351995D01*
X61949465Y-107504880D01*
X61754880Y-107699465D01*
X61601995Y-107928273D01*
X61496686Y-108182510D01*
X61443000Y-108452408D01*
X61443000Y-108727592D01*
X61496686Y-108997490D01*
X61601995Y-109251727D01*
X61754880Y-109480535D01*
X61949465Y-109675120D01*
X62178273Y-109828005D01*
X62255515Y-109860000D01*
X62178273Y-109891995D01*
X61949465Y-110044880D01*
X61754880Y-110239465D01*
X61601995Y-110468273D01*
X61496686Y-110722510D01*
X61443000Y-110992408D01*
X61443000Y-111267592D01*
X61496686Y-111537490D01*
X61601995Y-111791727D01*
X61754880Y-112020535D01*
X61949465Y-112215120D01*
X62178273Y-112368005D01*
X62432510Y-112473314D01*
X62702408Y-112527000D01*
X62977592Y-112527000D01*
X63247490Y-112473314D01*
X63501727Y-112368005D01*
X63730535Y-112215120D01*
X63925120Y-112020535D01*
X64078005Y-111791727D01*
X64183314Y-111537490D01*
X64237000Y-111267592D01*
X64237000Y-110992408D01*
X64183314Y-110722510D01*
X64078005Y-110468273D01*
X63925120Y-110239465D01*
X63730535Y-110044880D01*
X63501727Y-109891995D01*
X63424485Y-109860000D01*
X63501727Y-109828005D01*
X63730535Y-109675120D01*
X63925120Y-109480535D01*
X64078005Y-109251727D01*
X64183314Y-108997490D01*
X64237000Y-108727592D01*
X64237000Y-108553902D01*
X68375905Y-112692808D01*
X68399699Y-112721801D01*
X68428692Y-112745595D01*
X68428696Y-112745599D01*
X68498280Y-112802704D01*
X68515424Y-112816774D01*
X68647453Y-112887346D01*
X68790714Y-112930803D01*
X68902367Y-112941800D01*
X68902376Y-112941800D01*
X68939699Y-112945476D01*
X68977022Y-112941800D01*
X94762878Y-112941800D01*
X94800200Y-112945476D01*
X94837522Y-112941800D01*
X94837533Y-112941800D01*
X94949186Y-112930803D01*
X95092447Y-112887346D01*
X95224476Y-112816774D01*
X95340201Y-112721801D01*
X95364004Y-112692797D01*
X96219311Y-111837491D01*
X96426589Y-111975990D01*
X96696842Y-112087932D01*
X96983740Y-112145000D01*
X97276260Y-112145000D01*
X97563158Y-112087932D01*
X97833411Y-111975990D01*
X98076632Y-111813475D01*
X98283475Y-111606632D01*
X98400000Y-111432240D01*
X98516525Y-111606632D01*
X98723368Y-111813475D01*
X98966589Y-111975990D01*
X99236842Y-112087932D01*
X99523740Y-112145000D01*
X99816260Y-112145000D01*
X100103158Y-112087932D01*
X100373411Y-111975990D01*
X100616632Y-111813475D01*
X100823475Y-111606632D01*
X100940000Y-111432240D01*
X101056525Y-111606632D01*
X101263368Y-111813475D01*
X101506589Y-111975990D01*
X101776842Y-112087932D01*
X102063740Y-112145000D01*
X102356260Y-112145000D01*
X102643158Y-112087932D01*
X102913411Y-111975990D01*
X103156632Y-111813475D01*
X103363475Y-111606632D01*
X103480000Y-111432240D01*
X103596525Y-111606632D01*
X103803368Y-111813475D01*
X104046589Y-111975990D01*
X104316842Y-112087932D01*
X104603740Y-112145000D01*
X104896260Y-112145000D01*
X105183158Y-112087932D01*
X105453411Y-111975990D01*
X105696632Y-111813475D01*
X105903475Y-111606632D01*
X106020000Y-111432240D01*
X106136525Y-111606632D01*
X106343368Y-111813475D01*
X106586589Y-111975990D01*
X106856842Y-112087932D01*
X107143740Y-112145000D01*
X107436260Y-112145000D01*
X107723158Y-112087932D01*
X107993411Y-111975990D01*
X108236632Y-111813475D01*
X108443475Y-111606632D01*
X108565195Y-111424466D01*
X108634822Y-111541355D01*
X108829731Y-111757588D01*
X109063080Y-111931641D01*
X109325901Y-112056825D01*
X109473110Y-112101476D01*
X109703000Y-111980155D01*
X109703000Y-110787000D01*
X109683000Y-110787000D01*
X109683000Y-110533000D01*
X109703000Y-110533000D01*
X109703000Y-109339845D01*
X109957000Y-109339845D01*
X109957000Y-110533000D01*
X109977000Y-110533000D01*
X109977000Y-110787000D01*
X109957000Y-110787000D01*
X109957000Y-111980155D01*
X110186890Y-112101476D01*
X110334099Y-112056825D01*
X110596920Y-111931641D01*
X110830269Y-111757588D01*
X111025178Y-111541355D01*
X111094805Y-111424466D01*
X111216525Y-111606632D01*
X111423368Y-111813475D01*
X111666589Y-111975990D01*
X111936842Y-112087932D01*
X112223740Y-112145000D01*
X112516260Y-112145000D01*
X112803158Y-112087932D01*
X113073411Y-111975990D01*
X113316632Y-111813475D01*
X113523475Y-111606632D01*
X113640000Y-111432240D01*
X113756525Y-111606632D01*
X113963368Y-111813475D01*
X114206589Y-111975990D01*
X114476842Y-112087932D01*
X114763740Y-112145000D01*
X115056260Y-112145000D01*
X115343158Y-112087932D01*
X115613411Y-111975990D01*
X115856632Y-111813475D01*
X115988487Y-111681620D01*
X116010498Y-111754180D01*
X116069463Y-111864494D01*
X116148815Y-111961185D01*
X116245506Y-112040537D01*
X116355820Y-112099502D01*
X116475518Y-112135812D01*
X116600000Y-112148072D01*
X118300000Y-112148072D01*
X118424482Y-112135812D01*
X118544180Y-112099502D01*
X118654494Y-112040537D01*
X118751185Y-111961185D01*
X118830537Y-111864494D01*
X118889502Y-111754180D01*
X118925812Y-111634482D01*
X118938072Y-111510000D01*
X118938072Y-109810000D01*
X118925812Y-109685518D01*
X118889502Y-109565820D01*
X118830537Y-109455506D01*
X118751185Y-109358815D01*
X118654494Y-109279463D01*
X118544180Y-109220498D01*
X118424482Y-109184188D01*
X118300000Y-109171928D01*
X116600000Y-109171928D01*
X116475518Y-109184188D01*
X116355820Y-109220498D01*
X116245506Y-109279463D01*
X116148815Y-109358815D01*
X116069463Y-109455506D01*
X116010498Y-109565820D01*
X115988487Y-109638380D01*
X115856632Y-109506525D01*
X115613411Y-109344010D01*
X115343158Y-109232068D01*
X115056260Y-109175000D01*
X114763740Y-109175000D01*
X114476842Y-109232068D01*
X114206589Y-109344010D01*
X113963368Y-109506525D01*
X113756525Y-109713368D01*
X113640000Y-109887760D01*
X113523475Y-109713368D01*
X113316632Y-109506525D01*
X113073411Y-109344010D01*
X112803158Y-109232068D01*
X112516260Y-109175000D01*
X112223740Y-109175000D01*
X111936842Y-109232068D01*
X111666589Y-109344010D01*
X111423368Y-109506525D01*
X111216525Y-109713368D01*
X111094805Y-109895534D01*
X111025178Y-109778645D01*
X110830269Y-109562412D01*
X110596920Y-109388359D01*
X110334099Y-109263175D01*
X110186890Y-109218524D01*
X109957000Y-109339845D01*
X109703000Y-109339845D01*
X109473110Y-109218524D01*
X109325901Y-109263175D01*
X109063080Y-109388359D01*
X108829731Y-109562412D01*
X108634822Y-109778645D01*
X108565195Y-109895534D01*
X108443475Y-109713368D01*
X108236632Y-109506525D01*
X108050000Y-109381822D01*
X108050000Y-102049422D01*
X108053676Y-102012099D01*
X108050000Y-101974776D01*
X108050000Y-101974767D01*
X108039003Y-101863114D01*
X107995546Y-101719853D01*
X107924974Y-101587824D01*
X107873026Y-101524525D01*
X107853799Y-101501096D01*
X107853795Y-101501092D01*
X107830001Y-101472099D01*
X107801008Y-101448305D01*
X81529178Y-75176477D01*
X81585120Y-75120535D01*
X81738005Y-74891727D01*
X81843314Y-74637490D01*
X81897000Y-74367592D01*
X81897000Y-74092408D01*
X81843314Y-73822510D01*
X81738005Y-73568273D01*
X81585120Y-73339465D01*
X81390535Y-73144880D01*
X81161727Y-72991995D01*
X81084485Y-72960000D01*
X81161727Y-72928005D01*
X81390535Y-72775120D01*
X81585120Y-72580535D01*
X81738005Y-72351727D01*
X81843314Y-72097490D01*
X81897000Y-71827592D01*
X81897000Y-71552408D01*
X81843314Y-71282510D01*
X81738005Y-71028273D01*
X81585120Y-70799465D01*
X81390535Y-70604880D01*
X81161727Y-70451995D01*
X81084485Y-70420000D01*
X81161727Y-70388005D01*
X81390535Y-70235120D01*
X81585120Y-70040535D01*
X81738005Y-69811727D01*
X81843314Y-69557490D01*
X81897000Y-69287592D01*
X81897000Y-69012408D01*
X81843314Y-68742510D01*
X81738005Y-68488273D01*
X81585120Y-68259465D01*
X81390535Y-68064880D01*
X81161727Y-67911995D01*
X81090057Y-67882308D01*
X81103023Y-67877636D01*
X81218980Y-67815656D01*
X81285960Y-67575565D01*
X80500000Y-66789605D01*
X79714040Y-67575565D01*
X79781020Y-67815656D01*
X79916760Y-67879485D01*
X79838273Y-67911995D01*
X79609465Y-68064880D01*
X79608645Y-68065700D01*
X78224962Y-66682017D01*
X79098090Y-66682017D01*
X79139078Y-66954133D01*
X79232364Y-67213023D01*
X79294344Y-67328980D01*
X79534435Y-67395960D01*
X80320395Y-66610000D01*
X80679605Y-66610000D01*
X81465565Y-67395960D01*
X81705656Y-67328980D01*
X81822756Y-67079952D01*
X81889023Y-66812865D01*
X81901910Y-66537983D01*
X81860922Y-66265867D01*
X81767636Y-66006977D01*
X81705656Y-65891020D01*
X81465565Y-65824040D01*
X80679605Y-66610000D01*
X80320395Y-66610000D01*
X79534435Y-65824040D01*
X79294344Y-65891020D01*
X79177244Y-66140048D01*
X79110977Y-66407135D01*
X79098090Y-66682017D01*
X78224962Y-66682017D01*
X77577475Y-66034531D01*
X77547407Y-65997893D01*
X77401228Y-65877927D01*
X77234454Y-65788784D01*
X77053493Y-65733890D01*
X76912462Y-65720000D01*
X76912452Y-65720000D01*
X76865300Y-65715356D01*
X76818148Y-65720000D01*
X76609396Y-65720000D01*
X76533831Y-65644435D01*
X79714040Y-65644435D01*
X80500000Y-66430395D01*
X81285960Y-65644435D01*
X81218980Y-65404344D01*
X81135519Y-65365098D01*
X121615000Y-65365098D01*
X121615000Y-65834902D01*
X121706654Y-66295679D01*
X121886440Y-66729721D01*
X122147450Y-67120349D01*
X122479651Y-67452550D01*
X122870279Y-67713560D01*
X123304321Y-67893346D01*
X123765098Y-67985000D01*
X124234902Y-67985000D01*
X124695679Y-67893346D01*
X125129721Y-67713560D01*
X125520349Y-67452550D01*
X125852550Y-67120349D01*
X126113560Y-66729721D01*
X126293346Y-66295679D01*
X126385000Y-65834902D01*
X126385000Y-65365098D01*
X126293346Y-64904321D01*
X126113560Y-64470279D01*
X125852550Y-64079651D01*
X125520349Y-63747450D01*
X125129721Y-63486440D01*
X124695679Y-63306654D01*
X124234902Y-63215000D01*
X123765098Y-63215000D01*
X123304321Y-63306654D01*
X122870279Y-63486440D01*
X122479651Y-63747450D01*
X122147450Y-64079651D01*
X121886440Y-64470279D01*
X121706654Y-64904321D01*
X121615000Y-65365098D01*
X81135519Y-65365098D01*
X80969952Y-65287244D01*
X80702865Y-65220977D01*
X80427983Y-65208090D01*
X80155867Y-65249078D01*
X79896977Y-65342364D01*
X79781020Y-65404344D01*
X79714040Y-65644435D01*
X76533831Y-65644435D01*
X76500000Y-65610604D01*
X76500000Y-63939396D01*
X76654637Y-63784759D01*
X76811680Y-63549727D01*
X76919853Y-63288574D01*
X76975000Y-63011335D01*
X76975000Y-62728665D01*
X76919853Y-62451426D01*
X76811680Y-62190273D01*
X76654637Y-61955241D01*
X76454759Y-61755363D01*
X76219727Y-61598320D01*
X75958574Y-61490147D01*
X75681335Y-61435000D01*
X75398665Y-61435000D01*
X75121426Y-61490147D01*
X74860273Y-61598320D01*
X74625241Y-61755363D01*
X74425363Y-61955241D01*
X74268320Y-62190273D01*
X74160147Y-62451426D01*
X74105000Y-62728665D01*
X74105000Y-63011335D01*
X74160147Y-63288574D01*
X74268320Y-63549727D01*
X74425363Y-63784759D01*
X74580001Y-63939397D01*
X74580000Y-65610604D01*
X74425363Y-65765241D01*
X74268320Y-66000273D01*
X74160147Y-66261426D01*
X74137596Y-66374795D01*
X70121804Y-62359003D01*
X70098001Y-62329999D01*
X69982276Y-62235026D01*
X69850247Y-62164454D01*
X69706986Y-62120997D01*
X69595333Y-62110000D01*
X69595322Y-62110000D01*
X69558000Y-62106324D01*
X69520678Y-62110000D01*
X69138043Y-62110000D01*
X69034637Y-61955241D01*
X68834759Y-61755363D01*
X68599727Y-61598320D01*
X68338574Y-61490147D01*
X68061335Y-61435000D01*
X67778665Y-61435000D01*
X67501426Y-61490147D01*
X67240273Y-61598320D01*
X67005241Y-61755363D01*
X66805363Y-61955241D01*
X66678463Y-62145161D01*
X65612304Y-61079003D01*
X65588501Y-61049999D01*
X65472776Y-60955026D01*
X65340747Y-60884454D01*
X65197486Y-60840997D01*
X65146322Y-60835958D01*
X65055120Y-60699465D01*
X64860535Y-60504880D01*
X64631727Y-60351995D01*
X64377490Y-60246686D01*
X64107592Y-60193000D01*
X63832408Y-60193000D01*
X63562510Y-60246686D01*
X63308273Y-60351995D01*
X63079465Y-60504880D01*
X62884880Y-60699465D01*
X62731995Y-60928273D01*
X62626686Y-61182510D01*
X62573000Y-61452408D01*
X62573000Y-61727592D01*
X62626686Y-61997490D01*
X62731995Y-62251727D01*
X62884880Y-62480535D01*
X63079465Y-62675120D01*
X63308273Y-62828005D01*
X63385515Y-62860000D01*
X63308273Y-62891995D01*
X63079465Y-63044880D01*
X62884880Y-63239465D01*
X62731995Y-63468273D01*
X62626686Y-63722510D01*
X62573000Y-63992408D01*
X62573000Y-64267592D01*
X62626686Y-64537490D01*
X62731995Y-64791727D01*
X62884880Y-65020535D01*
X63079465Y-65215120D01*
X63308273Y-65368005D01*
X63385515Y-65400000D01*
X63308273Y-65431995D01*
X63079465Y-65584880D01*
X62884880Y-65779465D01*
X62731995Y-66008273D01*
X62626686Y-66262510D01*
X62573000Y-66532408D01*
X62573000Y-66807592D01*
X62626686Y-67077490D01*
X62731995Y-67331727D01*
X62884880Y-67560535D01*
X63079465Y-67755120D01*
X63308273Y-67908005D01*
X63379943Y-67937692D01*
X63366977Y-67942364D01*
X63251020Y-68004344D01*
X63184040Y-68244435D01*
X63970000Y-69030395D01*
X64755960Y-68244435D01*
X64688980Y-68004344D01*
X64553240Y-67940515D01*
X64631727Y-67908005D01*
X64860535Y-67755120D01*
X65055120Y-67560535D01*
X65208005Y-67331727D01*
X65313314Y-67077490D01*
X65367000Y-66807592D01*
X65367000Y-66532408D01*
X65313314Y-66262510D01*
X65208005Y-66008273D01*
X65055120Y-65779465D01*
X64860535Y-65584880D01*
X64631727Y-65431995D01*
X64554485Y-65400000D01*
X64631727Y-65368005D01*
X64860535Y-65215120D01*
X65055120Y-65020535D01*
X65208005Y-64791727D01*
X65313314Y-64537490D01*
X65367000Y-64267592D01*
X65367000Y-63992408D01*
X65313314Y-63722510D01*
X65208005Y-63468273D01*
X65055120Y-63239465D01*
X64860535Y-63044880D01*
X64631727Y-62891995D01*
X64554485Y-62860000D01*
X64631727Y-62828005D01*
X64860535Y-62675120D01*
X64959677Y-62575978D01*
X67653580Y-65269881D01*
X67501426Y-65300147D01*
X67240273Y-65408320D01*
X67005241Y-65565363D01*
X66805363Y-65765241D01*
X66648320Y-66000273D01*
X66540147Y-66261426D01*
X66485000Y-66538665D01*
X66485000Y-66821335D01*
X66540147Y-67098574D01*
X66648320Y-67359727D01*
X66805363Y-67594759D01*
X67005241Y-67794637D01*
X67240273Y-67951680D01*
X67501426Y-68059853D01*
X67778665Y-68115000D01*
X68061335Y-68115000D01*
X68243887Y-68078688D01*
X72129498Y-71964300D01*
X70469102Y-71964300D01*
X69318688Y-70813886D01*
X69355000Y-70631335D01*
X69355000Y-70348665D01*
X69299853Y-70071426D01*
X69191680Y-69810273D01*
X69034637Y-69575241D01*
X68834759Y-69375363D01*
X68599727Y-69218320D01*
X68338574Y-69110147D01*
X68061335Y-69055000D01*
X67778665Y-69055000D01*
X67501426Y-69110147D01*
X67240273Y-69218320D01*
X67005241Y-69375363D01*
X66805363Y-69575241D01*
X66648320Y-69810273D01*
X66540147Y-70071426D01*
X66485000Y-70348665D01*
X66485000Y-70631335D01*
X66540147Y-70908574D01*
X66648320Y-71169727D01*
X66805363Y-71404759D01*
X67005241Y-71604637D01*
X67240273Y-71761680D01*
X67501426Y-71869853D01*
X67778665Y-71925000D01*
X68061335Y-71925000D01*
X68243886Y-71888688D01*
X68769798Y-72414600D01*
X65206085Y-72414600D01*
X65208005Y-72411727D01*
X65313314Y-72157490D01*
X65367000Y-71887592D01*
X65367000Y-71612408D01*
X65313314Y-71342510D01*
X65208005Y-71088273D01*
X65055120Y-70859465D01*
X64860535Y-70664880D01*
X64631727Y-70511995D01*
X64560057Y-70482308D01*
X64573023Y-70477636D01*
X64688980Y-70415656D01*
X64755960Y-70175565D01*
X63970000Y-69389605D01*
X63184040Y-70175565D01*
X63251020Y-70415656D01*
X63386760Y-70479485D01*
X63308273Y-70511995D01*
X63079465Y-70664880D01*
X62884880Y-70859465D01*
X62731995Y-71088273D01*
X62626686Y-71342510D01*
X62573000Y-71612408D01*
X62573000Y-71887592D01*
X62626686Y-72157490D01*
X62731995Y-72411727D01*
X62884880Y-72640535D01*
X63079465Y-72835120D01*
X63308273Y-72988005D01*
X63385515Y-73020000D01*
X63308273Y-73051995D01*
X63079465Y-73204880D01*
X62884880Y-73399465D01*
X62731995Y-73628273D01*
X62626686Y-73882510D01*
X62573000Y-74152408D01*
X62573000Y-74427592D01*
X62626686Y-74697490D01*
X62731995Y-74951727D01*
X62884880Y-75180535D01*
X63079465Y-75375120D01*
X63308273Y-75528005D01*
X63385515Y-75560000D01*
X63308273Y-75591995D01*
X63079465Y-75744880D01*
X62884880Y-75939465D01*
X62731995Y-76168273D01*
X62626686Y-76422510D01*
X62573000Y-76692408D01*
X62573000Y-76967592D01*
X62626686Y-77237490D01*
X62731995Y-77491727D01*
X62884880Y-77720535D01*
X63079465Y-77915120D01*
X63308273Y-78068005D01*
X63385515Y-78100000D01*
X63308273Y-78131995D01*
X63079465Y-78284880D01*
X62884880Y-78479465D01*
X62731995Y-78708273D01*
X62626686Y-78962510D01*
X62573000Y-79232408D01*
X62573000Y-79507592D01*
X62626686Y-79777490D01*
X62731995Y-80031727D01*
X62884880Y-80260535D01*
X63079465Y-80455120D01*
X63308273Y-80608005D01*
X63385515Y-80640000D01*
X63308273Y-80671995D01*
X63079465Y-80824880D01*
X62884880Y-81019465D01*
X62731995Y-81248273D01*
X62626686Y-81502510D01*
X62573000Y-81772408D01*
X62573000Y-82047592D01*
X62626686Y-82317490D01*
X62731995Y-82571727D01*
X62884880Y-82800535D01*
X63079465Y-82995120D01*
X63308273Y-83148005D01*
X63385515Y-83180000D01*
X63308273Y-83211995D01*
X63079465Y-83364880D01*
X62884880Y-83559465D01*
X62731995Y-83788273D01*
X62626686Y-84042510D01*
X62573000Y-84312408D01*
X62573000Y-84587592D01*
X62626686Y-84857490D01*
X62731995Y-85111727D01*
X62884880Y-85340535D01*
X63079465Y-85535120D01*
X63308273Y-85688005D01*
X63385515Y-85720000D01*
X63308273Y-85751995D01*
X63079465Y-85904880D01*
X62884880Y-86099465D01*
X62731995Y-86328273D01*
X62626686Y-86582510D01*
X62573000Y-86852408D01*
X62573000Y-87127592D01*
X62626686Y-87397490D01*
X62731995Y-87651727D01*
X62884880Y-87880535D01*
X63079465Y-88075120D01*
X63308273Y-88228005D01*
X63379943Y-88257692D01*
X63366977Y-88262364D01*
X63251020Y-88324344D01*
X63184040Y-88564435D01*
X63970000Y-89350395D01*
X64755960Y-88564435D01*
X64688980Y-88324344D01*
X64553240Y-88260515D01*
X64631727Y-88228005D01*
X64860535Y-88075120D01*
X65055120Y-87880535D01*
X65208005Y-87651727D01*
X65313314Y-87397490D01*
X65367000Y-87127592D01*
X65367000Y-86852408D01*
X65313314Y-86582510D01*
X65208005Y-86328273D01*
X65055120Y-86099465D01*
X64860535Y-85904880D01*
X64631727Y-85751995D01*
X64554485Y-85720000D01*
X64631727Y-85688005D01*
X64860535Y-85535120D01*
X65055120Y-85340535D01*
X65208005Y-85111727D01*
X65313314Y-84857490D01*
X65367000Y-84587592D01*
X65367000Y-84312408D01*
X65313314Y-84042510D01*
X65208005Y-83788273D01*
X65055120Y-83559465D01*
X64860535Y-83364880D01*
X64631727Y-83211995D01*
X64554485Y-83180000D01*
X64631727Y-83148005D01*
X64860535Y-82995120D01*
X65055120Y-82800535D01*
X65208005Y-82571727D01*
X65313314Y-82317490D01*
X65367000Y-82047592D01*
X65367000Y-81772408D01*
X65313314Y-81502510D01*
X65208005Y-81248273D01*
X65055120Y-81019465D01*
X64860535Y-80824880D01*
X64631727Y-80671995D01*
X64554485Y-80640000D01*
X64631727Y-80608005D01*
X64860535Y-80455120D01*
X65055120Y-80260535D01*
X65208005Y-80031727D01*
X65313314Y-79777490D01*
X65367000Y-79507592D01*
X65367000Y-79232408D01*
X65313314Y-78962510D01*
X65208005Y-78708273D01*
X65055120Y-78479465D01*
X64860535Y-78284880D01*
X64631727Y-78131995D01*
X64554485Y-78100000D01*
X64631727Y-78068005D01*
X64780399Y-77968665D01*
X66485000Y-77968665D01*
X66485000Y-78251335D01*
X66540147Y-78528574D01*
X66648320Y-78789727D01*
X66805363Y-79024759D01*
X67005241Y-79224637D01*
X67240273Y-79381680D01*
X67501426Y-79489853D01*
X67778665Y-79545000D01*
X68061335Y-79545000D01*
X68338574Y-79489853D01*
X68599727Y-79381680D01*
X68834759Y-79224637D01*
X69034637Y-79024759D01*
X69191680Y-78789727D01*
X69299853Y-78528574D01*
X69355000Y-78251335D01*
X69355000Y-77968665D01*
X69299853Y-77691426D01*
X69191680Y-77430273D01*
X69034637Y-77195241D01*
X68834759Y-76995363D01*
X68599727Y-76838320D01*
X68338574Y-76730147D01*
X68061335Y-76675000D01*
X67778665Y-76675000D01*
X67501426Y-76730147D01*
X67240273Y-76838320D01*
X67005241Y-76995363D01*
X66805363Y-77195241D01*
X66648320Y-77430273D01*
X66540147Y-77691426D01*
X66485000Y-77968665D01*
X64780399Y-77968665D01*
X64860535Y-77915120D01*
X65055120Y-77720535D01*
X65208005Y-77491727D01*
X65313314Y-77237490D01*
X65367000Y-76967592D01*
X65367000Y-76692408D01*
X65313314Y-76422510D01*
X65208005Y-76168273D01*
X65055120Y-75939465D01*
X64860535Y-75744880D01*
X64631727Y-75591995D01*
X64554485Y-75560000D01*
X64631727Y-75528005D01*
X64860535Y-75375120D01*
X65055120Y-75180535D01*
X65208005Y-74951727D01*
X65313314Y-74697490D01*
X65367000Y-74427592D01*
X65367000Y-74152408D01*
X65336372Y-73998430D01*
X65400202Y-73934600D01*
X66529570Y-73934600D01*
X66485000Y-74158665D01*
X66485000Y-74441335D01*
X66540147Y-74718574D01*
X66648320Y-74979727D01*
X66805363Y-75214759D01*
X67005241Y-75414637D01*
X67240273Y-75571680D01*
X67501426Y-75679853D01*
X67778665Y-75735000D01*
X68061335Y-75735000D01*
X68338574Y-75679853D01*
X68599727Y-75571680D01*
X68834759Y-75414637D01*
X69034637Y-75214759D01*
X69191680Y-74979727D01*
X69299853Y-74718574D01*
X69355000Y-74441335D01*
X69355000Y-74158665D01*
X69310430Y-73934600D01*
X74149570Y-73934600D01*
X74105000Y-74158665D01*
X74105000Y-74441335D01*
X74160147Y-74718574D01*
X74268320Y-74979727D01*
X74425363Y-75214759D01*
X74580000Y-75369396D01*
X74580001Y-77040603D01*
X74425363Y-77195241D01*
X74268320Y-77430273D01*
X74160147Y-77691426D01*
X74105000Y-77968665D01*
X74105000Y-78251335D01*
X74160147Y-78528574D01*
X74268320Y-78789727D01*
X74425363Y-79024759D01*
X74580000Y-79179396D01*
X74580001Y-89857001D01*
X65328224Y-89857001D01*
X65359023Y-89732865D01*
X65371910Y-89457983D01*
X65330922Y-89185867D01*
X65237636Y-88926977D01*
X65175656Y-88811020D01*
X64935565Y-88744040D01*
X64149605Y-89530000D01*
X64163748Y-89544143D01*
X63984143Y-89723748D01*
X63970000Y-89709605D01*
X63955858Y-89723748D01*
X63776253Y-89544143D01*
X63790395Y-89530000D01*
X63004435Y-88744040D01*
X62764344Y-88811020D01*
X62687253Y-88974963D01*
X60057431Y-86345142D01*
X59997205Y-86199744D01*
X59883937Y-86030226D01*
X59739774Y-85886063D01*
X59570256Y-85772795D01*
X59381898Y-85694774D01*
X59181939Y-85655000D01*
X58978061Y-85655000D01*
X58778102Y-85694774D01*
X58589744Y-85772795D01*
X58420226Y-85886063D01*
X58276063Y-86030226D01*
X58266213Y-86044968D01*
X56040000Y-83818756D01*
X56040000Y-73067160D01*
X56044645Y-73020000D01*
X56040000Y-72972838D01*
X56026110Y-72831807D01*
X55971216Y-72650846D01*
X55882073Y-72484072D01*
X55762107Y-72337893D01*
X55725474Y-72307829D01*
X52699662Y-69282017D01*
X62568090Y-69282017D01*
X62609078Y-69554133D01*
X62702364Y-69813023D01*
X62764344Y-69928980D01*
X63004435Y-69995960D01*
X63790395Y-69210000D01*
X64149605Y-69210000D01*
X64935565Y-69995960D01*
X65175656Y-69928980D01*
X65292756Y-69679952D01*
X65359023Y-69412865D01*
X65371910Y-69137983D01*
X65330922Y-68865867D01*
X65237636Y-68606977D01*
X65175656Y-68491020D01*
X64935565Y-68424040D01*
X64149605Y-69210000D01*
X63790395Y-69210000D01*
X63004435Y-68424040D01*
X62764344Y-68491020D01*
X62647244Y-68740048D01*
X62580977Y-69007135D01*
X62568090Y-69282017D01*
X52699662Y-69282017D01*
X47587000Y-64169356D01*
X47587000Y-63992408D01*
X47533314Y-63722510D01*
X47428005Y-63468273D01*
X47275120Y-63239465D01*
X47080535Y-63044880D01*
X46851727Y-62891995D01*
X46780057Y-62862308D01*
X46793023Y-62857636D01*
X46908980Y-62795656D01*
X46975960Y-62555565D01*
X46190000Y-61769605D01*
X46175858Y-61783748D01*
X45996253Y-61604143D01*
X46010395Y-61590000D01*
X46369605Y-61590000D01*
X47155565Y-62375960D01*
X47395656Y-62308980D01*
X47512756Y-62059952D01*
X47579023Y-61792865D01*
X47591910Y-61517983D01*
X47550922Y-61245867D01*
X47457636Y-60986977D01*
X47395656Y-60871020D01*
X47155565Y-60804040D01*
X46369605Y-61590000D01*
X46010395Y-61590000D01*
X45224435Y-60804040D01*
X45093675Y-60840519D01*
X44949292Y-60624435D01*
X45404040Y-60624435D01*
X46190000Y-61410395D01*
X46975960Y-60624435D01*
X46908980Y-60384344D01*
X46659952Y-60267244D01*
X46392865Y-60200977D01*
X46117983Y-60188090D01*
X45845867Y-60229078D01*
X45586977Y-60322364D01*
X45471020Y-60384344D01*
X45404040Y-60624435D01*
X44949292Y-60624435D01*
X44852550Y-60479651D01*
X44559899Y-60187000D01*
X129053000Y-60187000D01*
X129053000Y-109779645D01*
G37*
X129053000Y-109779645D02*
X128852550Y-109479651D01*
X128520349Y-109147450D01*
X128129721Y-108886440D01*
X127695679Y-108706654D01*
X127234902Y-108615000D01*
X126765098Y-108615000D01*
X126304321Y-108706654D01*
X125870279Y-108886440D01*
X125479651Y-109147450D01*
X125147450Y-109479651D01*
X124886440Y-109870279D01*
X124706654Y-110304321D01*
X124615000Y-110765098D01*
X124615000Y-111234902D01*
X124706654Y-111695679D01*
X124886440Y-112129721D01*
X125147450Y-112520349D01*
X125479651Y-112852550D01*
X125719781Y-113013000D01*
X44280219Y-113013000D01*
X44520349Y-112852550D01*
X44852550Y-112520349D01*
X45113560Y-112129721D01*
X45293346Y-111695679D01*
X45385000Y-111234902D01*
X45385000Y-110765098D01*
X45293346Y-110304321D01*
X45113560Y-109870279D01*
X44852550Y-109479651D01*
X44520349Y-109147450D01*
X44129721Y-108886440D01*
X43695679Y-108706654D01*
X43234902Y-108615000D01*
X42765098Y-108615000D01*
X42304321Y-108706654D01*
X41870279Y-108886440D01*
X41479651Y-109147450D01*
X41147450Y-109479651D01*
X40907000Y-109839509D01*
X40907000Y-107828000D01*
X46199928Y-107828000D01*
X46199928Y-109352000D01*
X46212188Y-109476482D01*
X46248498Y-109596180D01*
X46307463Y-109706494D01*
X46386815Y-109803185D01*
X46456044Y-109860000D01*
X46386815Y-109916815D01*
X46307463Y-110013506D01*
X46248498Y-110123820D01*
X46212188Y-110243518D01*
X46199928Y-110368000D01*
X46199928Y-111892000D01*
X46212188Y-112016482D01*
X46248498Y-112136180D01*
X46307463Y-112246494D01*
X46386815Y-112343185D01*
X46483506Y-112422537D01*
X46593820Y-112481502D01*
X46713518Y-112517812D01*
X46838000Y-112530072D01*
X48362000Y-112530072D01*
X48486482Y-112517812D01*
X48606180Y-112481502D01*
X48716494Y-112422537D01*
X48813185Y-112343185D01*
X48892537Y-112246494D01*
X48951502Y-112136180D01*
X48987812Y-112016482D01*
X49000072Y-111892000D01*
X49000072Y-110368000D01*
X48987812Y-110243518D01*
X48951502Y-110123820D01*
X48892537Y-110013506D01*
X48813185Y-109916815D01*
X48743956Y-109860000D01*
X48813185Y-109803185D01*
X48892537Y-109706494D01*
X48951502Y-109596180D01*
X48987812Y-109476482D01*
X49000072Y-109352000D01*
X49000072Y-107828000D01*
X48987812Y-107703518D01*
X48951502Y-107583820D01*
X48892537Y-107473506D01*
X48813185Y-107376815D01*
X48716494Y-107297463D01*
X48606180Y-107238498D01*
X48486482Y-107202188D01*
X48362000Y-107189928D01*
X46838000Y-107189928D01*
X46713518Y-107202188D01*
X46593820Y-107238498D01*
X46483506Y-107297463D01*
X46386815Y-107376815D01*
X46307463Y-107473506D01*
X46248498Y-107583820D01*
X46212188Y-107703518D01*
X46199928Y-107828000D01*
X40907000Y-107828000D01*
X40907000Y-101935565D01*
X46814040Y-101935565D01*
X46881020Y-102175656D01*
X47130048Y-102292756D01*
X47397135Y-102359023D01*
X47672017Y-102371910D01*
X47944133Y-102330922D01*
X48203023Y-102237636D01*
X48318980Y-102175656D01*
X48385960Y-101935565D01*
X47600000Y-101149605D01*
X46814040Y-101935565D01*
X40907000Y-101935565D01*
X40907000Y-101042017D01*
X46198090Y-101042017D01*
X46239078Y-101314133D01*
X46332364Y-101573023D01*
X46394344Y-101688980D01*
X46634435Y-101755960D01*
X47420395Y-100970000D01*
X46634435Y-100184040D01*
X46394344Y-100251020D01*
X46277244Y-100500048D01*
X46210977Y-100767135D01*
X46198090Y-101042017D01*
X40907000Y-101042017D01*
X40907000Y-100004435D01*
X46814040Y-100004435D01*
X47600000Y-100790395D01*
X48385960Y-100004435D01*
X48318980Y-99764344D01*
X48069952Y-99647244D01*
X47802865Y-99580977D01*
X47527983Y-99568090D01*
X47255867Y-99609078D01*
X46996977Y-99702364D01*
X46881020Y-99764344D01*
X46814040Y-100004435D01*
X40907000Y-100004435D01*
X40907000Y-63160491D01*
X41147450Y-63520349D01*
X41479651Y-63852550D01*
X41870279Y-64113560D01*
X42304321Y-64293346D01*
X42765098Y-64385000D01*
X43234902Y-64385000D01*
X43695679Y-64293346D01*
X44129721Y-64113560D01*
X44520349Y-63852550D01*
X44852550Y-63520349D01*
X45113560Y-63129721D01*
X45293346Y-62695679D01*
X45300650Y-62658958D01*
X45404041Y-62555567D01*
X45471020Y-62795656D01*
X45606760Y-62859485D01*
X45528273Y-62891995D01*
X45299465Y-63044880D01*
X45104880Y-63239465D01*
X44951995Y-63468273D01*
X44846686Y-63722510D01*
X44793000Y-63992408D01*
X44793000Y-64267592D01*
X44846686Y-64537490D01*
X44951995Y-64791727D01*
X45104880Y-65020535D01*
X45299465Y-65215120D01*
X45528273Y-65368005D01*
X45605515Y-65400000D01*
X45528273Y-65431995D01*
X45299465Y-65584880D01*
X45104880Y-65779465D01*
X44951995Y-66008273D01*
X44846686Y-66262510D01*
X44793000Y-66532408D01*
X44793000Y-66807592D01*
X44823628Y-66961570D01*
X43671898Y-68113301D01*
X43642900Y-68137099D01*
X43619102Y-68166097D01*
X43619101Y-68166098D01*
X43547926Y-68252824D01*
X43477354Y-68384854D01*
X43447080Y-68484658D01*
X43433898Y-68528114D01*
X43429278Y-68575026D01*
X43419224Y-68677100D01*
X43422901Y-68714433D01*
X43422900Y-83948978D01*
X43419224Y-83986300D01*
X43422900Y-84023622D01*
X43422900Y-84023632D01*
X43433897Y-84135285D01*
X43472809Y-84263562D01*
X43477354Y-84278546D01*
X43547926Y-84410576D01*
X43587771Y-84459126D01*
X43642899Y-84526301D01*
X43671903Y-84550104D01*
X45163072Y-86041273D01*
X45104880Y-86099465D01*
X44951995Y-86328273D01*
X44846686Y-86582510D01*
X44793000Y-86852408D01*
X44793000Y-87127592D01*
X44846686Y-87397490D01*
X44951995Y-87651727D01*
X45104880Y-87880535D01*
X45299465Y-88075120D01*
X45528273Y-88228005D01*
X45605515Y-88260000D01*
X45528273Y-88291995D01*
X45299465Y-88444880D01*
X45104880Y-88639465D01*
X44951995Y-88868273D01*
X44846686Y-89122510D01*
X44793000Y-89392408D01*
X44793000Y-89667592D01*
X44846686Y-89937490D01*
X44951995Y-90191727D01*
X45104880Y-90420535D01*
X45299465Y-90615120D01*
X45528273Y-90768005D01*
X45782510Y-90873314D01*
X46052408Y-90927000D01*
X46327592Y-90927000D01*
X46597490Y-90873314D01*
X46851727Y-90768005D01*
X47080535Y-90615120D01*
X47275120Y-90420535D01*
X47428005Y-90191727D01*
X47533314Y-89937490D01*
X47587000Y-89667592D01*
X47587000Y-89392408D01*
X47533314Y-89122510D01*
X47428005Y-88868273D01*
X47275120Y-88639465D01*
X47080535Y-88444880D01*
X46851727Y-88291995D01*
X46774485Y-88260000D01*
X46851727Y-88228005D01*
X47080535Y-88075120D01*
X47275120Y-87880535D01*
X47428005Y-87651727D01*
X47533314Y-87397490D01*
X47587000Y-87127592D01*
X47587000Y-86852408D01*
X47533314Y-86582510D01*
X47490853Y-86480000D01*
X47670201Y-86480000D01*
X55809222Y-94619022D01*
X55575241Y-94775363D01*
X55375363Y-94975241D01*
X55218320Y-95210273D01*
X55213643Y-95221565D01*
X55181037Y-95152580D01*
X55013519Y-94926586D01*
X54805131Y-94737615D01*
X54563881Y-94592930D01*
X54299040Y-94498091D01*
X54077000Y-94619376D01*
X54077000Y-95763000D01*
X54097000Y-95763000D01*
X54097000Y-96017000D01*
X54077000Y-96017000D01*
X54077000Y-97160624D01*
X54299040Y-97281909D01*
X54563881Y-97187070D01*
X54805131Y-97042385D01*
X55013519Y-96853414D01*
X55181037Y-96627420D01*
X55213643Y-96558435D01*
X55218320Y-96569727D01*
X55278662Y-96660036D01*
X52321822Y-99616877D01*
X52272510Y-99626686D01*
X52018273Y-99731995D01*
X51789465Y-99884880D01*
X51594880Y-100079465D01*
X51441995Y-100308273D01*
X51410000Y-100385515D01*
X51378005Y-100308273D01*
X51225120Y-100079465D01*
X51030535Y-99884880D01*
X50900000Y-99797659D01*
X50900000Y-99737325D01*
X50903676Y-99700000D01*
X50900000Y-99662675D01*
X50900000Y-99662667D01*
X50889003Y-99551014D01*
X50845546Y-99407753D01*
X50774974Y-99275724D01*
X50680001Y-99159999D01*
X50651004Y-99136202D01*
X47753841Y-96239039D01*
X52558096Y-96239039D01*
X52598754Y-96373087D01*
X52718963Y-96627420D01*
X52886481Y-96853414D01*
X53094869Y-97042385D01*
X53336119Y-97187070D01*
X53600960Y-97281909D01*
X53823000Y-97160624D01*
X53823000Y-96017000D01*
X52680085Y-96017000D01*
X52558096Y-96239039D01*
X47753841Y-96239039D01*
X47728688Y-96213887D01*
X47765000Y-96031335D01*
X47765000Y-95748665D01*
X47723685Y-95540961D01*
X52558096Y-95540961D01*
X52680085Y-95763000D01*
X53823000Y-95763000D01*
X53823000Y-94619376D01*
X53600960Y-94498091D01*
X53336119Y-94592930D01*
X53094869Y-94737615D01*
X52886481Y-94926586D01*
X52718963Y-95152580D01*
X52598754Y-95406913D01*
X52558096Y-95540961D01*
X47723685Y-95540961D01*
X47709853Y-95471426D01*
X47601680Y-95210273D01*
X47444637Y-94975241D01*
X47244759Y-94775363D01*
X47009727Y-94618320D01*
X46748574Y-94510147D01*
X46471335Y-94455000D01*
X46188665Y-94455000D01*
X45911426Y-94510147D01*
X45650273Y-94618320D01*
X45415241Y-94775363D01*
X45215363Y-94975241D01*
X45058320Y-95210273D01*
X44950147Y-95471426D01*
X44895000Y-95748665D01*
X44895000Y-96031335D01*
X44950147Y-96308574D01*
X45058320Y-96569727D01*
X45215363Y-96804759D01*
X45415241Y-97004637D01*
X45650273Y-97161680D01*
X45911426Y-97269853D01*
X46188665Y-97325000D01*
X46471335Y-97325000D01*
X46653887Y-97288688D01*
X49249833Y-99884634D01*
X49249465Y-99884880D01*
X49054880Y-100079465D01*
X48901995Y-100308273D01*
X48872308Y-100379943D01*
X48867636Y-100366977D01*
X48805656Y-100251020D01*
X48565565Y-100184040D01*
X47779605Y-100970000D01*
X48565565Y-101755960D01*
X48805656Y-101688980D01*
X48869485Y-101553240D01*
X48901995Y-101631727D01*
X49054880Y-101860535D01*
X49249465Y-102055120D01*
X49478273Y-102208005D01*
X49732510Y-102313314D01*
X50002408Y-102367000D01*
X50277592Y-102367000D01*
X50547490Y-102313314D01*
X50801727Y-102208005D01*
X51030535Y-102055120D01*
X51225120Y-101860535D01*
X51378005Y-101631727D01*
X51410000Y-101554485D01*
X51441995Y-101631727D01*
X51594880Y-101860535D01*
X51789465Y-102055120D01*
X52018273Y-102208005D01*
X52272510Y-102313314D01*
X52542408Y-102367000D01*
X52817592Y-102367000D01*
X53087490Y-102313314D01*
X53341727Y-102208005D01*
X53570535Y-102055120D01*
X53690090Y-101935565D01*
X54434040Y-101935565D01*
X54501020Y-102175656D01*
X54750048Y-102292756D01*
X55017135Y-102359023D01*
X55292017Y-102371910D01*
X55564133Y-102330922D01*
X55823023Y-102237636D01*
X55938980Y-102175656D01*
X56005960Y-101935565D01*
X55220000Y-101149605D01*
X54434040Y-101935565D01*
X53690090Y-101935565D01*
X53765120Y-101860535D01*
X53918005Y-101631727D01*
X53947692Y-101560057D01*
X53952364Y-101573023D01*
X54014344Y-101688980D01*
X54254435Y-101755960D01*
X55040395Y-100970000D01*
X54254435Y-100184040D01*
X54014344Y-100251020D01*
X53950515Y-100386760D01*
X53918005Y-100308273D01*
X53862739Y-100225562D01*
X54083866Y-100004435D01*
X54434040Y-100004435D01*
X55220000Y-100790395D01*
X56005960Y-100004435D01*
X55938980Y-99764344D01*
X55689952Y-99647244D01*
X55422865Y-99580977D01*
X55147983Y-99568090D01*
X54875867Y-99609078D01*
X54616977Y-99702364D01*
X54501020Y-99764344D01*
X54434040Y-100004435D01*
X54083866Y-100004435D01*
X56796070Y-97292232D01*
X56908574Y-97269853D01*
X57000001Y-97231983D01*
X57000000Y-99797659D01*
X56869465Y-99884880D01*
X56674880Y-100079465D01*
X56521995Y-100308273D01*
X56492308Y-100379943D01*
X56487636Y-100366977D01*
X56425656Y-100251020D01*
X56185565Y-100184040D01*
X55399605Y-100970000D01*
X56185565Y-101755960D01*
X56425656Y-101688980D01*
X56489485Y-101553240D01*
X56521995Y-101631727D01*
X56674880Y-101860535D01*
X56869465Y-102055120D01*
X57098273Y-102208005D01*
X57352510Y-102313314D01*
X57622408Y-102367000D01*
X57897592Y-102367000D01*
X58167490Y-102313314D01*
X58421727Y-102208005D01*
X58650535Y-102055120D01*
X58845120Y-101860535D01*
X58998005Y-101631727D01*
X59030000Y-101554485D01*
X59061995Y-101631727D01*
X59214880Y-101860535D01*
X59409465Y-102055120D01*
X59638273Y-102208005D01*
X59892510Y-102313314D01*
X60162408Y-102367000D01*
X60437592Y-102367000D01*
X60707490Y-102313314D01*
X60961727Y-102208005D01*
X60969300Y-102202945D01*
X60969300Y-104934078D01*
X60965624Y-104971400D01*
X60969300Y-105008722D01*
X60969300Y-105008732D01*
X60980297Y-105120385D01*
X61001401Y-105189956D01*
X61023754Y-105263646D01*
X61094326Y-105395676D01*
X61121658Y-105428980D01*
X61189299Y-105511401D01*
X61218303Y-105535204D01*
X62876099Y-107193000D01*
X62702408Y-107193000D01*
X62432510Y-107246686D01*
X62178273Y-107351995D01*
X61949465Y-107504880D01*
X61754880Y-107699465D01*
X61601995Y-107928273D01*
X61496686Y-108182510D01*
X61443000Y-108452408D01*
X61443000Y-108727592D01*
X61496686Y-108997490D01*
X61601995Y-109251727D01*
X61754880Y-109480535D01*
X61949465Y-109675120D01*
X62178273Y-109828005D01*
X62255515Y-109860000D01*
X62178273Y-109891995D01*
X61949465Y-110044880D01*
X61754880Y-110239465D01*
X61601995Y-110468273D01*
X61496686Y-110722510D01*
X61443000Y-110992408D01*
X61443000Y-111267592D01*
X61496686Y-111537490D01*
X61601995Y-111791727D01*
X61754880Y-112020535D01*
X61949465Y-112215120D01*
X62178273Y-112368005D01*
X62432510Y-112473314D01*
X62702408Y-112527000D01*
X62977592Y-112527000D01*
X63247490Y-112473314D01*
X63501727Y-112368005D01*
X63730535Y-112215120D01*
X63925120Y-112020535D01*
X64078005Y-111791727D01*
X64183314Y-111537490D01*
X64237000Y-111267592D01*
X64237000Y-110992408D01*
X64183314Y-110722510D01*
X64078005Y-110468273D01*
X63925120Y-110239465D01*
X63730535Y-110044880D01*
X63501727Y-109891995D01*
X63424485Y-109860000D01*
X63501727Y-109828005D01*
X63730535Y-109675120D01*
X63925120Y-109480535D01*
X64078005Y-109251727D01*
X64183314Y-108997490D01*
X64237000Y-108727592D01*
X64237000Y-108553902D01*
X68375905Y-112692808D01*
X68399699Y-112721801D01*
X68428692Y-112745595D01*
X68428696Y-112745599D01*
X68498280Y-112802704D01*
X68515424Y-112816774D01*
X68647453Y-112887346D01*
X68790714Y-112930803D01*
X68902367Y-112941800D01*
X68902376Y-112941800D01*
X68939699Y-112945476D01*
X68977022Y-112941800D01*
X94762878Y-112941800D01*
X94800200Y-112945476D01*
X94837522Y-112941800D01*
X94837533Y-112941800D01*
X94949186Y-112930803D01*
X95092447Y-112887346D01*
X95224476Y-112816774D01*
X95340201Y-112721801D01*
X95364004Y-112692797D01*
X96219311Y-111837491D01*
X96426589Y-111975990D01*
X96696842Y-112087932D01*
X96983740Y-112145000D01*
X97276260Y-112145000D01*
X97563158Y-112087932D01*
X97833411Y-111975990D01*
X98076632Y-111813475D01*
X98283475Y-111606632D01*
X98400000Y-111432240D01*
X98516525Y-111606632D01*
X98723368Y-111813475D01*
X98966589Y-111975990D01*
X99236842Y-112087932D01*
X99523740Y-112145000D01*
X99816260Y-112145000D01*
X100103158Y-112087932D01*
X100373411Y-111975990D01*
X100616632Y-111813475D01*
X100823475Y-111606632D01*
X100940000Y-111432240D01*
X101056525Y-111606632D01*
X101263368Y-111813475D01*
X101506589Y-111975990D01*
X101776842Y-112087932D01*
X102063740Y-112145000D01*
X102356260Y-112145000D01*
X102643158Y-112087932D01*
X102913411Y-111975990D01*
X103156632Y-111813475D01*
X103363475Y-111606632D01*
X103480000Y-111432240D01*
X103596525Y-111606632D01*
X103803368Y-111813475D01*
X104046589Y-111975990D01*
X104316842Y-112087932D01*
X104603740Y-112145000D01*
X104896260Y-112145000D01*
X105183158Y-112087932D01*
X105453411Y-111975990D01*
X105696632Y-111813475D01*
X105903475Y-111606632D01*
X106020000Y-111432240D01*
X106136525Y-111606632D01*
X106343368Y-111813475D01*
X106586589Y-111975990D01*
X106856842Y-112087932D01*
X107143740Y-112145000D01*
X107436260Y-112145000D01*
X107723158Y-112087932D01*
X107993411Y-111975990D01*
X108236632Y-111813475D01*
X108443475Y-111606632D01*
X108565195Y-111424466D01*
X108634822Y-111541355D01*
X108829731Y-111757588D01*
X109063080Y-111931641D01*
X109325901Y-112056825D01*
X109473110Y-112101476D01*
X109703000Y-111980155D01*
X109703000Y-110787000D01*
X109683000Y-110787000D01*
X109683000Y-110533000D01*
X109703000Y-110533000D01*
X109703000Y-109339845D01*
X109957000Y-109339845D01*
X109957000Y-110533000D01*
X109977000Y-110533000D01*
X109977000Y-110787000D01*
X109957000Y-110787000D01*
X109957000Y-111980155D01*
X110186890Y-112101476D01*
X110334099Y-112056825D01*
X110596920Y-111931641D01*
X110830269Y-111757588D01*
X111025178Y-111541355D01*
X111094805Y-111424466D01*
X111216525Y-111606632D01*
X111423368Y-111813475D01*
X111666589Y-111975990D01*
X111936842Y-112087932D01*
X112223740Y-112145000D01*
X112516260Y-112145000D01*
X112803158Y-112087932D01*
X113073411Y-111975990D01*
X113316632Y-111813475D01*
X113523475Y-111606632D01*
X113640000Y-111432240D01*
X113756525Y-111606632D01*
X113963368Y-111813475D01*
X114206589Y-111975990D01*
X114476842Y-112087932D01*
X114763740Y-112145000D01*
X115056260Y-112145000D01*
X115343158Y-112087932D01*
X115613411Y-111975990D01*
X115856632Y-111813475D01*
X115988487Y-111681620D01*
X116010498Y-111754180D01*
X116069463Y-111864494D01*
X116148815Y-111961185D01*
X116245506Y-112040537D01*
X116355820Y-112099502D01*
X116475518Y-112135812D01*
X116600000Y-112148072D01*
X118300000Y-112148072D01*
X118424482Y-112135812D01*
X118544180Y-112099502D01*
X118654494Y-112040537D01*
X118751185Y-111961185D01*
X118830537Y-111864494D01*
X118889502Y-111754180D01*
X118925812Y-111634482D01*
X118938072Y-111510000D01*
X118938072Y-109810000D01*
X118925812Y-109685518D01*
X118889502Y-109565820D01*
X118830537Y-109455506D01*
X118751185Y-109358815D01*
X118654494Y-109279463D01*
X118544180Y-109220498D01*
X118424482Y-109184188D01*
X118300000Y-109171928D01*
X116600000Y-109171928D01*
X116475518Y-109184188D01*
X116355820Y-109220498D01*
X116245506Y-109279463D01*
X116148815Y-109358815D01*
X116069463Y-109455506D01*
X116010498Y-109565820D01*
X115988487Y-109638380D01*
X115856632Y-109506525D01*
X115613411Y-109344010D01*
X115343158Y-109232068D01*
X115056260Y-109175000D01*
X114763740Y-109175000D01*
X114476842Y-109232068D01*
X114206589Y-109344010D01*
X113963368Y-109506525D01*
X113756525Y-109713368D01*
X113640000Y-109887760D01*
X113523475Y-109713368D01*
X113316632Y-109506525D01*
X113073411Y-109344010D01*
X112803158Y-109232068D01*
X112516260Y-109175000D01*
X112223740Y-109175000D01*
X111936842Y-109232068D01*
X111666589Y-109344010D01*
X111423368Y-109506525D01*
X111216525Y-109713368D01*
X111094805Y-109895534D01*
X111025178Y-109778645D01*
X110830269Y-109562412D01*
X110596920Y-109388359D01*
X110334099Y-109263175D01*
X110186890Y-109218524D01*
X109957000Y-109339845D01*
X109703000Y-109339845D01*
X109473110Y-109218524D01*
X109325901Y-109263175D01*
X109063080Y-109388359D01*
X108829731Y-109562412D01*
X108634822Y-109778645D01*
X108565195Y-109895534D01*
X108443475Y-109713368D01*
X108236632Y-109506525D01*
X108050000Y-109381822D01*
X108050000Y-102049422D01*
X108053676Y-102012099D01*
X108050000Y-101974776D01*
X108050000Y-101974767D01*
X108039003Y-101863114D01*
X107995546Y-101719853D01*
X107924974Y-101587824D01*
X107873026Y-101524525D01*
X107853799Y-101501096D01*
X107853795Y-101501092D01*
X107830001Y-101472099D01*
X107801008Y-101448305D01*
X81529178Y-75176477D01*
X81585120Y-75120535D01*
X81738005Y-74891727D01*
X81843314Y-74637490D01*
X81897000Y-74367592D01*
X81897000Y-74092408D01*
X81843314Y-73822510D01*
X81738005Y-73568273D01*
X81585120Y-73339465D01*
X81390535Y-73144880D01*
X81161727Y-72991995D01*
X81084485Y-72960000D01*
X81161727Y-72928005D01*
X81390535Y-72775120D01*
X81585120Y-72580535D01*
X81738005Y-72351727D01*
X81843314Y-72097490D01*
X81897000Y-71827592D01*
X81897000Y-71552408D01*
X81843314Y-71282510D01*
X81738005Y-71028273D01*
X81585120Y-70799465D01*
X81390535Y-70604880D01*
X81161727Y-70451995D01*
X81084485Y-70420000D01*
X81161727Y-70388005D01*
X81390535Y-70235120D01*
X81585120Y-70040535D01*
X81738005Y-69811727D01*
X81843314Y-69557490D01*
X81897000Y-69287592D01*
X81897000Y-69012408D01*
X81843314Y-68742510D01*
X81738005Y-68488273D01*
X81585120Y-68259465D01*
X81390535Y-68064880D01*
X81161727Y-67911995D01*
X81090057Y-67882308D01*
X81103023Y-67877636D01*
X81218980Y-67815656D01*
X81285960Y-67575565D01*
X80500000Y-66789605D01*
X79714040Y-67575565D01*
X79781020Y-67815656D01*
X79916760Y-67879485D01*
X79838273Y-67911995D01*
X79609465Y-68064880D01*
X79608645Y-68065700D01*
X78224962Y-66682017D01*
X79098090Y-66682017D01*
X79139078Y-66954133D01*
X79232364Y-67213023D01*
X79294344Y-67328980D01*
X79534435Y-67395960D01*
X80320395Y-66610000D01*
X80679605Y-66610000D01*
X81465565Y-67395960D01*
X81705656Y-67328980D01*
X81822756Y-67079952D01*
X81889023Y-66812865D01*
X81901910Y-66537983D01*
X81860922Y-66265867D01*
X81767636Y-66006977D01*
X81705656Y-65891020D01*
X81465565Y-65824040D01*
X80679605Y-66610000D01*
X80320395Y-66610000D01*
X79534435Y-65824040D01*
X79294344Y-65891020D01*
X79177244Y-66140048D01*
X79110977Y-66407135D01*
X79098090Y-66682017D01*
X78224962Y-66682017D01*
X77577475Y-66034531D01*
X77547407Y-65997893D01*
X77401228Y-65877927D01*
X77234454Y-65788784D01*
X77053493Y-65733890D01*
X76912462Y-65720000D01*
X76912452Y-65720000D01*
X76865300Y-65715356D01*
X76818148Y-65720000D01*
X76609396Y-65720000D01*
X76533831Y-65644435D01*
X79714040Y-65644435D01*
X80500000Y-66430395D01*
X81285960Y-65644435D01*
X81218980Y-65404344D01*
X81135519Y-65365098D01*
X121615000Y-65365098D01*
X121615000Y-65834902D01*
X121706654Y-66295679D01*
X121886440Y-66729721D01*
X122147450Y-67120349D01*
X122479651Y-67452550D01*
X122870279Y-67713560D01*
X123304321Y-67893346D01*
X123765098Y-67985000D01*
X124234902Y-67985000D01*
X124695679Y-67893346D01*
X125129721Y-67713560D01*
X125520349Y-67452550D01*
X125852550Y-67120349D01*
X126113560Y-66729721D01*
X126293346Y-66295679D01*
X126385000Y-65834902D01*
X126385000Y-65365098D01*
X126293346Y-64904321D01*
X126113560Y-64470279D01*
X125852550Y-64079651D01*
X125520349Y-63747450D01*
X125129721Y-63486440D01*
X124695679Y-63306654D01*
X124234902Y-63215000D01*
X123765098Y-63215000D01*
X123304321Y-63306654D01*
X122870279Y-63486440D01*
X122479651Y-63747450D01*
X122147450Y-64079651D01*
X121886440Y-64470279D01*
X121706654Y-64904321D01*
X121615000Y-65365098D01*
X81135519Y-65365098D01*
X80969952Y-65287244D01*
X80702865Y-65220977D01*
X80427983Y-65208090D01*
X80155867Y-65249078D01*
X79896977Y-65342364D01*
X79781020Y-65404344D01*
X79714040Y-65644435D01*
X76533831Y-65644435D01*
X76500000Y-65610604D01*
X76500000Y-63939396D01*
X76654637Y-63784759D01*
X76811680Y-63549727D01*
X76919853Y-63288574D01*
X76975000Y-63011335D01*
X76975000Y-62728665D01*
X76919853Y-62451426D01*
X76811680Y-62190273D01*
X76654637Y-61955241D01*
X76454759Y-61755363D01*
X76219727Y-61598320D01*
X75958574Y-61490147D01*
X75681335Y-61435000D01*
X75398665Y-61435000D01*
X75121426Y-61490147D01*
X74860273Y-61598320D01*
X74625241Y-61755363D01*
X74425363Y-61955241D01*
X74268320Y-62190273D01*
X74160147Y-62451426D01*
X74105000Y-62728665D01*
X74105000Y-63011335D01*
X74160147Y-63288574D01*
X74268320Y-63549727D01*
X74425363Y-63784759D01*
X74580001Y-63939397D01*
X74580000Y-65610604D01*
X74425363Y-65765241D01*
X74268320Y-66000273D01*
X74160147Y-66261426D01*
X74137596Y-66374795D01*
X70121804Y-62359003D01*
X70098001Y-62329999D01*
X69982276Y-62235026D01*
X69850247Y-62164454D01*
X69706986Y-62120997D01*
X69595333Y-62110000D01*
X69595322Y-62110000D01*
X69558000Y-62106324D01*
X69520678Y-62110000D01*
X69138043Y-62110000D01*
X69034637Y-61955241D01*
X68834759Y-61755363D01*
X68599727Y-61598320D01*
X68338574Y-61490147D01*
X68061335Y-61435000D01*
X67778665Y-61435000D01*
X67501426Y-61490147D01*
X67240273Y-61598320D01*
X67005241Y-61755363D01*
X66805363Y-61955241D01*
X66678463Y-62145161D01*
X65612304Y-61079003D01*
X65588501Y-61049999D01*
X65472776Y-60955026D01*
X65340747Y-60884454D01*
X65197486Y-60840997D01*
X65146322Y-60835958D01*
X65055120Y-60699465D01*
X64860535Y-60504880D01*
X64631727Y-60351995D01*
X64377490Y-60246686D01*
X64107592Y-60193000D01*
X63832408Y-60193000D01*
X63562510Y-60246686D01*
X63308273Y-60351995D01*
X63079465Y-60504880D01*
X62884880Y-60699465D01*
X62731995Y-60928273D01*
X62626686Y-61182510D01*
X62573000Y-61452408D01*
X62573000Y-61727592D01*
X62626686Y-61997490D01*
X62731995Y-62251727D01*
X62884880Y-62480535D01*
X63079465Y-62675120D01*
X63308273Y-62828005D01*
X63385515Y-62860000D01*
X63308273Y-62891995D01*
X63079465Y-63044880D01*
X62884880Y-63239465D01*
X62731995Y-63468273D01*
X62626686Y-63722510D01*
X62573000Y-63992408D01*
X62573000Y-64267592D01*
X62626686Y-64537490D01*
X62731995Y-64791727D01*
X62884880Y-65020535D01*
X63079465Y-65215120D01*
X63308273Y-65368005D01*
X63385515Y-65400000D01*
X63308273Y-65431995D01*
X63079465Y-65584880D01*
X62884880Y-65779465D01*
X62731995Y-66008273D01*
X62626686Y-66262510D01*
X62573000Y-66532408D01*
X62573000Y-66807592D01*
X62626686Y-67077490D01*
X62731995Y-67331727D01*
X62884880Y-67560535D01*
X63079465Y-67755120D01*
X63308273Y-67908005D01*
X63379943Y-67937692D01*
X63366977Y-67942364D01*
X63251020Y-68004344D01*
X63184040Y-68244435D01*
X63970000Y-69030395D01*
X64755960Y-68244435D01*
X64688980Y-68004344D01*
X64553240Y-67940515D01*
X64631727Y-67908005D01*
X64860535Y-67755120D01*
X65055120Y-67560535D01*
X65208005Y-67331727D01*
X65313314Y-67077490D01*
X65367000Y-66807592D01*
X65367000Y-66532408D01*
X65313314Y-66262510D01*
X65208005Y-66008273D01*
X65055120Y-65779465D01*
X64860535Y-65584880D01*
X64631727Y-65431995D01*
X64554485Y-65400000D01*
X64631727Y-65368005D01*
X64860535Y-65215120D01*
X65055120Y-65020535D01*
X65208005Y-64791727D01*
X65313314Y-64537490D01*
X65367000Y-64267592D01*
X65367000Y-63992408D01*
X65313314Y-63722510D01*
X65208005Y-63468273D01*
X65055120Y-63239465D01*
X64860535Y-63044880D01*
X64631727Y-62891995D01*
X64554485Y-62860000D01*
X64631727Y-62828005D01*
X64860535Y-62675120D01*
X64959677Y-62575978D01*
X67653580Y-65269881D01*
X67501426Y-65300147D01*
X67240273Y-65408320D01*
X67005241Y-65565363D01*
X66805363Y-65765241D01*
X66648320Y-66000273D01*
X66540147Y-66261426D01*
X66485000Y-66538665D01*
X66485000Y-66821335D01*
X66540147Y-67098574D01*
X66648320Y-67359727D01*
X66805363Y-67594759D01*
X67005241Y-67794637D01*
X67240273Y-67951680D01*
X67501426Y-68059853D01*
X67778665Y-68115000D01*
X68061335Y-68115000D01*
X68243887Y-68078688D01*
X72129498Y-71964300D01*
X70469102Y-71964300D01*
X69318688Y-70813886D01*
X69355000Y-70631335D01*
X69355000Y-70348665D01*
X69299853Y-70071426D01*
X69191680Y-69810273D01*
X69034637Y-69575241D01*
X68834759Y-69375363D01*
X68599727Y-69218320D01*
X68338574Y-69110147D01*
X68061335Y-69055000D01*
X67778665Y-69055000D01*
X67501426Y-69110147D01*
X67240273Y-69218320D01*
X67005241Y-69375363D01*
X66805363Y-69575241D01*
X66648320Y-69810273D01*
X66540147Y-70071426D01*
X66485000Y-70348665D01*
X66485000Y-70631335D01*
X66540147Y-70908574D01*
X66648320Y-71169727D01*
X66805363Y-71404759D01*
X67005241Y-71604637D01*
X67240273Y-71761680D01*
X67501426Y-71869853D01*
X67778665Y-71925000D01*
X68061335Y-71925000D01*
X68243886Y-71888688D01*
X68769798Y-72414600D01*
X65206085Y-72414600D01*
X65208005Y-72411727D01*
X65313314Y-72157490D01*
X65367000Y-71887592D01*
X65367000Y-71612408D01*
X65313314Y-71342510D01*
X65208005Y-71088273D01*
X65055120Y-70859465D01*
X64860535Y-70664880D01*
X64631727Y-70511995D01*
X64560057Y-70482308D01*
X64573023Y-70477636D01*
X64688980Y-70415656D01*
X64755960Y-70175565D01*
X63970000Y-69389605D01*
X63184040Y-70175565D01*
X63251020Y-70415656D01*
X63386760Y-70479485D01*
X63308273Y-70511995D01*
X63079465Y-70664880D01*
X62884880Y-70859465D01*
X62731995Y-71088273D01*
X62626686Y-71342510D01*
X62573000Y-71612408D01*
X62573000Y-71887592D01*
X62626686Y-72157490D01*
X62731995Y-72411727D01*
X62884880Y-72640535D01*
X63079465Y-72835120D01*
X63308273Y-72988005D01*
X63385515Y-73020000D01*
X63308273Y-73051995D01*
X63079465Y-73204880D01*
X62884880Y-73399465D01*
X62731995Y-73628273D01*
X62626686Y-73882510D01*
X62573000Y-74152408D01*
X62573000Y-74427592D01*
X62626686Y-74697490D01*
X62731995Y-74951727D01*
X62884880Y-75180535D01*
X63079465Y-75375120D01*
X63308273Y-75528005D01*
X63385515Y-75560000D01*
X63308273Y-75591995D01*
X63079465Y-75744880D01*
X62884880Y-75939465D01*
X62731995Y-76168273D01*
X62626686Y-76422510D01*
X62573000Y-76692408D01*
X62573000Y-76967592D01*
X62626686Y-77237490D01*
X62731995Y-77491727D01*
X62884880Y-77720535D01*
X63079465Y-77915120D01*
X63308273Y-78068005D01*
X63385515Y-78100000D01*
X63308273Y-78131995D01*
X63079465Y-78284880D01*
X62884880Y-78479465D01*
X62731995Y-78708273D01*
X62626686Y-78962510D01*
X62573000Y-79232408D01*
X62573000Y-79507592D01*
X62626686Y-79777490D01*
X62731995Y-80031727D01*
X62884880Y-80260535D01*
X63079465Y-80455120D01*
X63308273Y-80608005D01*
X63385515Y-80640000D01*
X63308273Y-80671995D01*
X63079465Y-80824880D01*
X62884880Y-81019465D01*
X62731995Y-81248273D01*
X62626686Y-81502510D01*
X62573000Y-81772408D01*
X62573000Y-82047592D01*
X62626686Y-82317490D01*
X62731995Y-82571727D01*
X62884880Y-82800535D01*
X63079465Y-82995120D01*
X63308273Y-83148005D01*
X63385515Y-83180000D01*
X63308273Y-83211995D01*
X63079465Y-83364880D01*
X62884880Y-83559465D01*
X62731995Y-83788273D01*
X62626686Y-84042510D01*
X62573000Y-84312408D01*
X62573000Y-84587592D01*
X62626686Y-84857490D01*
X62731995Y-85111727D01*
X62884880Y-85340535D01*
X63079465Y-85535120D01*
X63308273Y-85688005D01*
X63385515Y-85720000D01*
X63308273Y-85751995D01*
X63079465Y-85904880D01*
X62884880Y-86099465D01*
X62731995Y-86328273D01*
X62626686Y-86582510D01*
X62573000Y-86852408D01*
X62573000Y-87127592D01*
X62626686Y-87397490D01*
X62731995Y-87651727D01*
X62884880Y-87880535D01*
X63079465Y-88075120D01*
X63308273Y-88228005D01*
X63379943Y-88257692D01*
X63366977Y-88262364D01*
X63251020Y-88324344D01*
X63184040Y-88564435D01*
X63970000Y-89350395D01*
X64755960Y-88564435D01*
X64688980Y-88324344D01*
X64553240Y-88260515D01*
X64631727Y-88228005D01*
X64860535Y-88075120D01*
X65055120Y-87880535D01*
X65208005Y-87651727D01*
X65313314Y-87397490D01*
X65367000Y-87127592D01*
X65367000Y-86852408D01*
X65313314Y-86582510D01*
X65208005Y-86328273D01*
X65055120Y-86099465D01*
X64860535Y-85904880D01*
X64631727Y-85751995D01*
X64554485Y-85720000D01*
X64631727Y-85688005D01*
X64860535Y-85535120D01*
X65055120Y-85340535D01*
X65208005Y-85111727D01*
X65313314Y-84857490D01*
X65367000Y-84587592D01*
X65367000Y-84312408D01*
X65313314Y-84042510D01*
X65208005Y-83788273D01*
X65055120Y-83559465D01*
X64860535Y-83364880D01*
X64631727Y-83211995D01*
X64554485Y-83180000D01*
X64631727Y-83148005D01*
X64860535Y-82995120D01*
X65055120Y-82800535D01*
X65208005Y-82571727D01*
X65313314Y-82317490D01*
X65367000Y-82047592D01*
X65367000Y-81772408D01*
X65313314Y-81502510D01*
X65208005Y-81248273D01*
X65055120Y-81019465D01*
X64860535Y-80824880D01*
X64631727Y-80671995D01*
X64554485Y-80640000D01*
X64631727Y-80608005D01*
X64860535Y-80455120D01*
X65055120Y-80260535D01*
X65208005Y-80031727D01*
X65313314Y-79777490D01*
X65367000Y-79507592D01*
X65367000Y-79232408D01*
X65313314Y-78962510D01*
X65208005Y-78708273D01*
X65055120Y-78479465D01*
X64860535Y-78284880D01*
X64631727Y-78131995D01*
X64554485Y-78100000D01*
X64631727Y-78068005D01*
X64780399Y-77968665D01*
X66485000Y-77968665D01*
X66485000Y-78251335D01*
X66540147Y-78528574D01*
X66648320Y-78789727D01*
X66805363Y-79024759D01*
X67005241Y-79224637D01*
X67240273Y-79381680D01*
X67501426Y-79489853D01*
X67778665Y-79545000D01*
X68061335Y-79545000D01*
X68338574Y-79489853D01*
X68599727Y-79381680D01*
X68834759Y-79224637D01*
X69034637Y-79024759D01*
X69191680Y-78789727D01*
X69299853Y-78528574D01*
X69355000Y-78251335D01*
X69355000Y-77968665D01*
X69299853Y-77691426D01*
X69191680Y-77430273D01*
X69034637Y-77195241D01*
X68834759Y-76995363D01*
X68599727Y-76838320D01*
X68338574Y-76730147D01*
X68061335Y-76675000D01*
X67778665Y-76675000D01*
X67501426Y-76730147D01*
X67240273Y-76838320D01*
X67005241Y-76995363D01*
X66805363Y-77195241D01*
X66648320Y-77430273D01*
X66540147Y-77691426D01*
X66485000Y-77968665D01*
X64780399Y-77968665D01*
X64860535Y-77915120D01*
X65055120Y-77720535D01*
X65208005Y-77491727D01*
X65313314Y-77237490D01*
X65367000Y-76967592D01*
X65367000Y-76692408D01*
X65313314Y-76422510D01*
X65208005Y-76168273D01*
X65055120Y-75939465D01*
X64860535Y-75744880D01*
X64631727Y-75591995D01*
X64554485Y-75560000D01*
X64631727Y-75528005D01*
X64860535Y-75375120D01*
X65055120Y-75180535D01*
X65208005Y-74951727D01*
X65313314Y-74697490D01*
X65367000Y-74427592D01*
X65367000Y-74152408D01*
X65336372Y-73998430D01*
X65400202Y-73934600D01*
X66529570Y-73934600D01*
X66485000Y-74158665D01*
X66485000Y-74441335D01*
X66540147Y-74718574D01*
X66648320Y-74979727D01*
X66805363Y-75214759D01*
X67005241Y-75414637D01*
X67240273Y-75571680D01*
X67501426Y-75679853D01*
X67778665Y-75735000D01*
X68061335Y-75735000D01*
X68338574Y-75679853D01*
X68599727Y-75571680D01*
X68834759Y-75414637D01*
X69034637Y-75214759D01*
X69191680Y-74979727D01*
X69299853Y-74718574D01*
X69355000Y-74441335D01*
X69355000Y-74158665D01*
X69310430Y-73934600D01*
X74149570Y-73934600D01*
X74105000Y-74158665D01*
X74105000Y-74441335D01*
X74160147Y-74718574D01*
X74268320Y-74979727D01*
X74425363Y-75214759D01*
X74580000Y-75369396D01*
X74580001Y-77040603D01*
X74425363Y-77195241D01*
X74268320Y-77430273D01*
X74160147Y-77691426D01*
X74105000Y-77968665D01*
X74105000Y-78251335D01*
X74160147Y-78528574D01*
X74268320Y-78789727D01*
X74425363Y-79024759D01*
X74580000Y-79179396D01*
X74580001Y-89857001D01*
X65328224Y-89857001D01*
X65359023Y-89732865D01*
X65371910Y-89457983D01*
X65330922Y-89185867D01*
X65237636Y-88926977D01*
X65175656Y-88811020D01*
X64935565Y-88744040D01*
X64149605Y-89530000D01*
X64163748Y-89544143D01*
X63984143Y-89723748D01*
X63970000Y-89709605D01*
X63955858Y-89723748D01*
X63776253Y-89544143D01*
X63790395Y-89530000D01*
X63004435Y-88744040D01*
X62764344Y-88811020D01*
X62687253Y-88974963D01*
X60057431Y-86345142D01*
X59997205Y-86199744D01*
X59883937Y-86030226D01*
X59739774Y-85886063D01*
X59570256Y-85772795D01*
X59381898Y-85694774D01*
X59181939Y-85655000D01*
X58978061Y-85655000D01*
X58778102Y-85694774D01*
X58589744Y-85772795D01*
X58420226Y-85886063D01*
X58276063Y-86030226D01*
X58266213Y-86044968D01*
X56040000Y-83818756D01*
X56040000Y-73067160D01*
X56044645Y-73020000D01*
X56040000Y-72972838D01*
X56026110Y-72831807D01*
X55971216Y-72650846D01*
X55882073Y-72484072D01*
X55762107Y-72337893D01*
X55725474Y-72307829D01*
X52699662Y-69282017D01*
X62568090Y-69282017D01*
X62609078Y-69554133D01*
X62702364Y-69813023D01*
X62764344Y-69928980D01*
X63004435Y-69995960D01*
X63790395Y-69210000D01*
X64149605Y-69210000D01*
X64935565Y-69995960D01*
X65175656Y-69928980D01*
X65292756Y-69679952D01*
X65359023Y-69412865D01*
X65371910Y-69137983D01*
X65330922Y-68865867D01*
X65237636Y-68606977D01*
X65175656Y-68491020D01*
X64935565Y-68424040D01*
X64149605Y-69210000D01*
X63790395Y-69210000D01*
X63004435Y-68424040D01*
X62764344Y-68491020D01*
X62647244Y-68740048D01*
X62580977Y-69007135D01*
X62568090Y-69282017D01*
X52699662Y-69282017D01*
X47587000Y-64169356D01*
X47587000Y-63992408D01*
X47533314Y-63722510D01*
X47428005Y-63468273D01*
X47275120Y-63239465D01*
X47080535Y-63044880D01*
X46851727Y-62891995D01*
X46780057Y-62862308D01*
X46793023Y-62857636D01*
X46908980Y-62795656D01*
X46975960Y-62555565D01*
X46190000Y-61769605D01*
X46175858Y-61783748D01*
X45996253Y-61604143D01*
X46010395Y-61590000D01*
X46369605Y-61590000D01*
X47155565Y-62375960D01*
X47395656Y-62308980D01*
X47512756Y-62059952D01*
X47579023Y-61792865D01*
X47591910Y-61517983D01*
X47550922Y-61245867D01*
X47457636Y-60986977D01*
X47395656Y-60871020D01*
X47155565Y-60804040D01*
X46369605Y-61590000D01*
X46010395Y-61590000D01*
X45224435Y-60804040D01*
X45093675Y-60840519D01*
X44949292Y-60624435D01*
X45404040Y-60624435D01*
X46190000Y-61410395D01*
X46975960Y-60624435D01*
X46908980Y-60384344D01*
X46659952Y-60267244D01*
X46392865Y-60200977D01*
X46117983Y-60188090D01*
X45845867Y-60229078D01*
X45586977Y-60322364D01*
X45471020Y-60384344D01*
X45404040Y-60624435D01*
X44949292Y-60624435D01*
X44852550Y-60479651D01*
X44559899Y-60187000D01*
X129053000Y-60187000D01*
X129053000Y-109779645D01*
G36*
X74580001Y-97162838D02*
G01*
X74575356Y-97210000D01*
X74580001Y-97257162D01*
X74593891Y-97398193D01*
X74608507Y-97446376D01*
X74648784Y-97579153D01*
X74737927Y-97745928D01*
X74770630Y-97785776D01*
X74857894Y-97892107D01*
X74894527Y-97922171D01*
X79103000Y-102130645D01*
X79103000Y-102307592D01*
X79156686Y-102577490D01*
X79261995Y-102831727D01*
X79414880Y-103060535D01*
X79609465Y-103255120D01*
X79838273Y-103408005D01*
X79909943Y-103437692D01*
X79896977Y-103442364D01*
X79781020Y-103504344D01*
X79714040Y-103744435D01*
X80500000Y-104530395D01*
X80514143Y-104516253D01*
X80693748Y-104695858D01*
X80679605Y-104710000D01*
X81465565Y-105495960D01*
X81705656Y-105428980D01*
X81822756Y-105179952D01*
X81888267Y-104915911D01*
X87174700Y-110202345D01*
X87174700Y-110612838D01*
X87170055Y-110660000D01*
X87188590Y-110848193D01*
X87243484Y-111029154D01*
X87332627Y-111195928D01*
X87452593Y-111342107D01*
X87549699Y-111421800D01*
X79250609Y-111421800D01*
X79361255Y-111256206D01*
X79439276Y-111067848D01*
X79479050Y-110867889D01*
X79479050Y-110664011D01*
X79439276Y-110464052D01*
X79361255Y-110275694D01*
X79247987Y-110106176D01*
X79103824Y-109962013D01*
X78934306Y-109848745D01*
X78745948Y-109770724D01*
X78545989Y-109730950D01*
X78483852Y-109730950D01*
X76316339Y-107563437D01*
X76376088Y-107542795D01*
X76550044Y-107449814D01*
X76645808Y-107185413D01*
X75690000Y-106229605D01*
X75675858Y-106243748D01*
X75496253Y-106064143D01*
X75510395Y-106050000D01*
X75869605Y-106050000D01*
X76825413Y-107005808D01*
X77089814Y-106910044D01*
X77230704Y-106620429D01*
X77312384Y-106308892D01*
X77331718Y-105987405D01*
X77288954Y-105675565D01*
X79714040Y-105675565D01*
X79781020Y-105915656D01*
X80030048Y-106032756D01*
X80297135Y-106099023D01*
X80572017Y-106111910D01*
X80844133Y-106070922D01*
X81103023Y-105977636D01*
X81218980Y-105915656D01*
X81285960Y-105675565D01*
X80500000Y-104889605D01*
X79714040Y-105675565D01*
X77288954Y-105675565D01*
X77287961Y-105668325D01*
X77182795Y-105363912D01*
X77089814Y-105189956D01*
X76825413Y-105094192D01*
X75869605Y-106050000D01*
X75510395Y-106050000D01*
X74554587Y-105094192D01*
X74290186Y-105189956D01*
X74176517Y-105423615D01*
X73667489Y-104914587D01*
X74734192Y-104914587D01*
X75690000Y-105870395D01*
X76645808Y-104914587D01*
X76597793Y-104782017D01*
X79098090Y-104782017D01*
X79139078Y-105054133D01*
X79232364Y-105313023D01*
X79294344Y-105428980D01*
X79534435Y-105495960D01*
X80320395Y-104710000D01*
X79534435Y-103924040D01*
X79294344Y-103991020D01*
X79177244Y-104240048D01*
X79110977Y-104507135D01*
X79098090Y-104782017D01*
X76597793Y-104782017D01*
X76550044Y-104650186D01*
X76260429Y-104509296D01*
X75948892Y-104427616D01*
X75627405Y-104408282D01*
X75308325Y-104452039D01*
X75003912Y-104557205D01*
X74829956Y-104650186D01*
X74734192Y-104914587D01*
X73667489Y-104914587D01*
X71210973Y-102458072D01*
X72580000Y-102458072D01*
X72704482Y-102445812D01*
X72824180Y-102409502D01*
X72934494Y-102350537D01*
X73031185Y-102271185D01*
X73110537Y-102174494D01*
X73169502Y-102064180D01*
X73191513Y-101991620D01*
X73323368Y-102123475D01*
X73566589Y-102285990D01*
X73836842Y-102397932D01*
X74123740Y-102455000D01*
X74416260Y-102455000D01*
X74703158Y-102397932D01*
X74973411Y-102285990D01*
X75216632Y-102123475D01*
X75423475Y-101916632D01*
X75585990Y-101673411D01*
X75697932Y-101403158D01*
X75755000Y-101116260D01*
X75755000Y-100823740D01*
X75697932Y-100536842D01*
X75585990Y-100266589D01*
X75423475Y-100023368D01*
X75216632Y-99816525D01*
X74973411Y-99654010D01*
X74703158Y-99542068D01*
X74416260Y-99485000D01*
X74142645Y-99485000D01*
X66690075Y-92032431D01*
X66660007Y-91995793D01*
X66513828Y-91875827D01*
X66347054Y-91786684D01*
X66166093Y-91731790D01*
X66117468Y-91727001D01*
X74580000Y-91727001D01*
X74580001Y-97162838D01*
G37*
X74580001Y-97162838D02*
X74575356Y-97210000D01*
X74580001Y-97257162D01*
X74593891Y-97398193D01*
X74608507Y-97446376D01*
X74648784Y-97579153D01*
X74737927Y-97745928D01*
X74770630Y-97785776D01*
X74857894Y-97892107D01*
X74894527Y-97922171D01*
X79103000Y-102130645D01*
X79103000Y-102307592D01*
X79156686Y-102577490D01*
X79261995Y-102831727D01*
X79414880Y-103060535D01*
X79609465Y-103255120D01*
X79838273Y-103408005D01*
X79909943Y-103437692D01*
X79896977Y-103442364D01*
X79781020Y-103504344D01*
X79714040Y-103744435D01*
X80500000Y-104530395D01*
X80514143Y-104516253D01*
X80693748Y-104695858D01*
X80679605Y-104710000D01*
X81465565Y-105495960D01*
X81705656Y-105428980D01*
X81822756Y-105179952D01*
X81888267Y-104915911D01*
X87174700Y-110202345D01*
X87174700Y-110612838D01*
X87170055Y-110660000D01*
X87188590Y-110848193D01*
X87243484Y-111029154D01*
X87332627Y-111195928D01*
X87452593Y-111342107D01*
X87549699Y-111421800D01*
X79250609Y-111421800D01*
X79361255Y-111256206D01*
X79439276Y-111067848D01*
X79479050Y-110867889D01*
X79479050Y-110664011D01*
X79439276Y-110464052D01*
X79361255Y-110275694D01*
X79247987Y-110106176D01*
X79103824Y-109962013D01*
X78934306Y-109848745D01*
X78745948Y-109770724D01*
X78545989Y-109730950D01*
X78483852Y-109730950D01*
X76316339Y-107563437D01*
X76376088Y-107542795D01*
X76550044Y-107449814D01*
X76645808Y-107185413D01*
X75690000Y-106229605D01*
X75675858Y-106243748D01*
X75496253Y-106064143D01*
X75510395Y-106050000D01*
X75869605Y-106050000D01*
X76825413Y-107005808D01*
X77089814Y-106910044D01*
X77230704Y-106620429D01*
X77312384Y-106308892D01*
X77331718Y-105987405D01*
X77288954Y-105675565D01*
X79714040Y-105675565D01*
X79781020Y-105915656D01*
X80030048Y-106032756D01*
X80297135Y-106099023D01*
X80572017Y-106111910D01*
X80844133Y-106070922D01*
X81103023Y-105977636D01*
X81218980Y-105915656D01*
X81285960Y-105675565D01*
X80500000Y-104889605D01*
X79714040Y-105675565D01*
X77288954Y-105675565D01*
X77287961Y-105668325D01*
X77182795Y-105363912D01*
X77089814Y-105189956D01*
X76825413Y-105094192D01*
X75869605Y-106050000D01*
X75510395Y-106050000D01*
X74554587Y-105094192D01*
X74290186Y-105189956D01*
X74176517Y-105423615D01*
X73667489Y-104914587D01*
X74734192Y-104914587D01*
X75690000Y-105870395D01*
X76645808Y-104914587D01*
X76597793Y-104782017D01*
X79098090Y-104782017D01*
X79139078Y-105054133D01*
X79232364Y-105313023D01*
X79294344Y-105428980D01*
X79534435Y-105495960D01*
X80320395Y-104710000D01*
X79534435Y-103924040D01*
X79294344Y-103991020D01*
X79177244Y-104240048D01*
X79110977Y-104507135D01*
X79098090Y-104782017D01*
X76597793Y-104782017D01*
X76550044Y-104650186D01*
X76260429Y-104509296D01*
X75948892Y-104427616D01*
X75627405Y-104408282D01*
X75308325Y-104452039D01*
X75003912Y-104557205D01*
X74829956Y-104650186D01*
X74734192Y-104914587D01*
X73667489Y-104914587D01*
X71210973Y-102458072D01*
X72580000Y-102458072D01*
X72704482Y-102445812D01*
X72824180Y-102409502D01*
X72934494Y-102350537D01*
X73031185Y-102271185D01*
X73110537Y-102174494D01*
X73169502Y-102064180D01*
X73191513Y-101991620D01*
X73323368Y-102123475D01*
X73566589Y-102285990D01*
X73836842Y-102397932D01*
X74123740Y-102455000D01*
X74416260Y-102455000D01*
X74703158Y-102397932D01*
X74973411Y-102285990D01*
X75216632Y-102123475D01*
X75423475Y-101916632D01*
X75585990Y-101673411D01*
X75697932Y-101403158D01*
X75755000Y-101116260D01*
X75755000Y-100823740D01*
X75697932Y-100536842D01*
X75585990Y-100266589D01*
X75423475Y-100023368D01*
X75216632Y-99816525D01*
X74973411Y-99654010D01*
X74703158Y-99542068D01*
X74416260Y-99485000D01*
X74142645Y-99485000D01*
X66690075Y-92032431D01*
X66660007Y-91995793D01*
X66513828Y-91875827D01*
X66347054Y-91786684D01*
X66166093Y-91731790D01*
X66117468Y-91727001D01*
X74580000Y-91727001D01*
X74580001Y-97162838D01*
G36*
X66006553Y-100450046D02*
G01*
X66149814Y-100493503D01*
X66261467Y-100504500D01*
X66261475Y-100504500D01*
X66298800Y-100508176D01*
X66336125Y-100504500D01*
X67107799Y-100504500D01*
X75520068Y-108916770D01*
X75213088Y-108977832D01*
X74915537Y-109101082D01*
X74647748Y-109280013D01*
X74420013Y-109507748D01*
X74241082Y-109775537D01*
X74117832Y-110073088D01*
X74055000Y-110388967D01*
X74055000Y-110711033D01*
X74117832Y-111026912D01*
X74241082Y-111324463D01*
X74306121Y-111421800D01*
X70573879Y-111421800D01*
X70638918Y-111324463D01*
X70762168Y-111026912D01*
X70825000Y-110711033D01*
X70825000Y-110388967D01*
X70762168Y-110073088D01*
X70638918Y-109775537D01*
X70459987Y-109507748D01*
X70232252Y-109280013D01*
X69964463Y-109101082D01*
X69666912Y-108977832D01*
X69351033Y-108915000D01*
X69028967Y-108915000D01*
X68713088Y-108977832D01*
X68698625Y-108983823D01*
X66900215Y-107185413D01*
X68234192Y-107185413D01*
X68329956Y-107449814D01*
X68619571Y-107590704D01*
X68931108Y-107672384D01*
X69252595Y-107691718D01*
X69571675Y-107647961D01*
X69876088Y-107542795D01*
X70050044Y-107449814D01*
X70145808Y-107185413D01*
X69190000Y-106229605D01*
X68234192Y-107185413D01*
X66900215Y-107185413D01*
X65963000Y-106248199D01*
X65963000Y-106112595D01*
X67548282Y-106112595D01*
X67592039Y-106431675D01*
X67697205Y-106736088D01*
X67790186Y-106910044D01*
X68054587Y-107005808D01*
X69010395Y-106050000D01*
X69369605Y-106050000D01*
X70325413Y-107005808D01*
X70589814Y-106910044D01*
X70730704Y-106620429D01*
X70812384Y-106308892D01*
X70831718Y-105987405D01*
X70787961Y-105668325D01*
X70682795Y-105363912D01*
X70589814Y-105189956D01*
X70325413Y-105094192D01*
X69369605Y-106050000D01*
X69010395Y-106050000D01*
X68054587Y-105094192D01*
X67790186Y-105189956D01*
X67649296Y-105479571D01*
X67567616Y-105791108D01*
X67548282Y-106112595D01*
X65963000Y-106112595D01*
X65963000Y-104914587D01*
X68234192Y-104914587D01*
X69190000Y-105870395D01*
X70145808Y-104914587D01*
X70050044Y-104650186D01*
X69760429Y-104509296D01*
X69448892Y-104427616D01*
X69127405Y-104408282D01*
X68808325Y-104452039D01*
X68503912Y-104557205D01*
X68329956Y-104650186D01*
X68234192Y-104914587D01*
X65963000Y-104914587D01*
X65963000Y-100426766D01*
X66006553Y-100450046D01*
G37*
X66006553Y-100450046D02*
X66149814Y-100493503D01*
X66261467Y-100504500D01*
X66261475Y-100504500D01*
X66298800Y-100508176D01*
X66336125Y-100504500D01*
X67107799Y-100504500D01*
X75520068Y-108916770D01*
X75213088Y-108977832D01*
X74915537Y-109101082D01*
X74647748Y-109280013D01*
X74420013Y-109507748D01*
X74241082Y-109775537D01*
X74117832Y-110073088D01*
X74055000Y-110388967D01*
X74055000Y-110711033D01*
X74117832Y-111026912D01*
X74241082Y-111324463D01*
X74306121Y-111421800D01*
X70573879Y-111421800D01*
X70638918Y-111324463D01*
X70762168Y-111026912D01*
X70825000Y-110711033D01*
X70825000Y-110388967D01*
X70762168Y-110073088D01*
X70638918Y-109775537D01*
X70459987Y-109507748D01*
X70232252Y-109280013D01*
X69964463Y-109101082D01*
X69666912Y-108977832D01*
X69351033Y-108915000D01*
X69028967Y-108915000D01*
X68713088Y-108977832D01*
X68698625Y-108983823D01*
X66900215Y-107185413D01*
X68234192Y-107185413D01*
X68329956Y-107449814D01*
X68619571Y-107590704D01*
X68931108Y-107672384D01*
X69252595Y-107691718D01*
X69571675Y-107647961D01*
X69876088Y-107542795D01*
X70050044Y-107449814D01*
X70145808Y-107185413D01*
X69190000Y-106229605D01*
X68234192Y-107185413D01*
X66900215Y-107185413D01*
X65963000Y-106248199D01*
X65963000Y-106112595D01*
X67548282Y-106112595D01*
X67592039Y-106431675D01*
X67697205Y-106736088D01*
X67790186Y-106910044D01*
X68054587Y-107005808D01*
X69010395Y-106050000D01*
X69369605Y-106050000D01*
X70325413Y-107005808D01*
X70589814Y-106910044D01*
X70730704Y-106620429D01*
X70812384Y-106308892D01*
X70831718Y-105987405D01*
X70787961Y-105668325D01*
X70682795Y-105363912D01*
X70589814Y-105189956D01*
X70325413Y-105094192D01*
X69369605Y-106050000D01*
X69010395Y-106050000D01*
X68054587Y-105094192D01*
X67790186Y-105189956D01*
X67649296Y-105479571D01*
X67567616Y-105791108D01*
X67548282Y-106112595D01*
X65963000Y-106112595D01*
X65963000Y-104914587D01*
X68234192Y-104914587D01*
X69190000Y-105870395D01*
X70145808Y-104914587D01*
X70050044Y-104650186D01*
X69760429Y-104509296D01*
X69448892Y-104427616D01*
X69127405Y-104408282D01*
X68808325Y-104452039D01*
X68503912Y-104557205D01*
X68329956Y-104650186D01*
X68234192Y-104914587D01*
X65963000Y-104914587D01*
X65963000Y-100426766D01*
X66006553Y-100450046D01*
G36*
X98910000Y-107401602D02*
G01*
X98910001Y-109381821D01*
X98723368Y-109506525D01*
X98516525Y-109713368D01*
X98400000Y-109887760D01*
X98283475Y-109713368D01*
X98076632Y-109506525D01*
X97833411Y-109344010D01*
X97563158Y-109232068D01*
X97276260Y-109175000D01*
X96983740Y-109175000D01*
X96696842Y-109232068D01*
X96426589Y-109344010D01*
X96183368Y-109506525D01*
X95976525Y-109713368D01*
X95860000Y-109887760D01*
X95743475Y-109713368D01*
X95536632Y-109506525D01*
X95293411Y-109344010D01*
X95023158Y-109232068D01*
X94736260Y-109175000D01*
X94443740Y-109175000D01*
X94156842Y-109232068D01*
X93886589Y-109344010D01*
X93643368Y-109506525D01*
X93436525Y-109713368D01*
X93314805Y-109895534D01*
X93245178Y-109778645D01*
X93050269Y-109562412D01*
X92816920Y-109388359D01*
X92554099Y-109263175D01*
X92406890Y-109218524D01*
X92177000Y-109339845D01*
X92177000Y-110533000D01*
X92197000Y-110533000D01*
X92197000Y-110787000D01*
X92177000Y-110787000D01*
X92177000Y-110807000D01*
X91923000Y-110807000D01*
X91923000Y-110787000D01*
X91903000Y-110787000D01*
X91903000Y-110533000D01*
X91923000Y-110533000D01*
X91923000Y-109339845D01*
X91693110Y-109218524D01*
X91545901Y-109263175D01*
X91283080Y-109388359D01*
X91049731Y-109562412D01*
X90854822Y-109778645D01*
X90785195Y-109895534D01*
X90663475Y-109713368D01*
X90456632Y-109506525D01*
X90213411Y-109344010D01*
X89943158Y-109232068D01*
X89656260Y-109175000D01*
X89363740Y-109175000D01*
X89076842Y-109232068D01*
X88946101Y-109286223D01*
X88936773Y-109268771D01*
X88846870Y-109159225D01*
X88816807Y-109122593D01*
X88780174Y-109092529D01*
X81897000Y-102209356D01*
X81897000Y-102032408D01*
X81843314Y-101762510D01*
X81738005Y-101508273D01*
X81585120Y-101279465D01*
X81390535Y-101084880D01*
X81161727Y-100931995D01*
X81084485Y-100900000D01*
X81161727Y-100868005D01*
X81390535Y-100715120D01*
X81585120Y-100520535D01*
X81738005Y-100291727D01*
X81843314Y-100037490D01*
X81897000Y-99767592D01*
X81897000Y-99492408D01*
X81843314Y-99222510D01*
X81738005Y-98968273D01*
X81585120Y-98739465D01*
X81390535Y-98544880D01*
X81161727Y-98391995D01*
X81084485Y-98360000D01*
X81161727Y-98328005D01*
X81390535Y-98175120D01*
X81585120Y-97980535D01*
X81738005Y-97751727D01*
X81843314Y-97497490D01*
X81897000Y-97227592D01*
X81897000Y-96952408D01*
X81843314Y-96682510D01*
X81738005Y-96428273D01*
X81585120Y-96199465D01*
X81390535Y-96004880D01*
X81161727Y-95851995D01*
X81084485Y-95820000D01*
X81161727Y-95788005D01*
X81390535Y-95635120D01*
X81585120Y-95440535D01*
X81738005Y-95211727D01*
X81843314Y-94957490D01*
X81897000Y-94687592D01*
X81897000Y-94412408D01*
X81843314Y-94142510D01*
X81738005Y-93888273D01*
X81585120Y-93659465D01*
X81390535Y-93464880D01*
X81161727Y-93311995D01*
X81084485Y-93280000D01*
X81161727Y-93248005D01*
X81390535Y-93095120D01*
X81585120Y-92900535D01*
X81738005Y-92671727D01*
X81843314Y-92417490D01*
X81897000Y-92147592D01*
X81897000Y-91872408D01*
X81843314Y-91602510D01*
X81738005Y-91348273D01*
X81585120Y-91119465D01*
X81390535Y-90924880D01*
X81161727Y-90771995D01*
X81084485Y-90740000D01*
X81161727Y-90708005D01*
X81390535Y-90555120D01*
X81585120Y-90360535D01*
X81698800Y-90190401D01*
X98910000Y-107401602D01*
G37*
X98910000Y-107401602D02*
X98910001Y-109381821D01*
X98723368Y-109506525D01*
X98516525Y-109713368D01*
X98400000Y-109887760D01*
X98283475Y-109713368D01*
X98076632Y-109506525D01*
X97833411Y-109344010D01*
X97563158Y-109232068D01*
X97276260Y-109175000D01*
X96983740Y-109175000D01*
X96696842Y-109232068D01*
X96426589Y-109344010D01*
X96183368Y-109506525D01*
X95976525Y-109713368D01*
X95860000Y-109887760D01*
X95743475Y-109713368D01*
X95536632Y-109506525D01*
X95293411Y-109344010D01*
X95023158Y-109232068D01*
X94736260Y-109175000D01*
X94443740Y-109175000D01*
X94156842Y-109232068D01*
X93886589Y-109344010D01*
X93643368Y-109506525D01*
X93436525Y-109713368D01*
X93314805Y-109895534D01*
X93245178Y-109778645D01*
X93050269Y-109562412D01*
X92816920Y-109388359D01*
X92554099Y-109263175D01*
X92406890Y-109218524D01*
X92177000Y-109339845D01*
X92177000Y-110533000D01*
X92197000Y-110533000D01*
X92197000Y-110787000D01*
X92177000Y-110787000D01*
X92177000Y-110807000D01*
X91923000Y-110807000D01*
X91923000Y-110787000D01*
X91903000Y-110787000D01*
X91903000Y-110533000D01*
X91923000Y-110533000D01*
X91923000Y-109339845D01*
X91693110Y-109218524D01*
X91545901Y-109263175D01*
X91283080Y-109388359D01*
X91049731Y-109562412D01*
X90854822Y-109778645D01*
X90785195Y-109895534D01*
X90663475Y-109713368D01*
X90456632Y-109506525D01*
X90213411Y-109344010D01*
X89943158Y-109232068D01*
X89656260Y-109175000D01*
X89363740Y-109175000D01*
X89076842Y-109232068D01*
X88946101Y-109286223D01*
X88936773Y-109268771D01*
X88846870Y-109159225D01*
X88816807Y-109122593D01*
X88780174Y-109092529D01*
X81897000Y-102209356D01*
X81897000Y-102032408D01*
X81843314Y-101762510D01*
X81738005Y-101508273D01*
X81585120Y-101279465D01*
X81390535Y-101084880D01*
X81161727Y-100931995D01*
X81084485Y-100900000D01*
X81161727Y-100868005D01*
X81390535Y-100715120D01*
X81585120Y-100520535D01*
X81738005Y-100291727D01*
X81843314Y-100037490D01*
X81897000Y-99767592D01*
X81897000Y-99492408D01*
X81843314Y-99222510D01*
X81738005Y-98968273D01*
X81585120Y-98739465D01*
X81390535Y-98544880D01*
X81161727Y-98391995D01*
X81084485Y-98360000D01*
X81161727Y-98328005D01*
X81390535Y-98175120D01*
X81585120Y-97980535D01*
X81738005Y-97751727D01*
X81843314Y-97497490D01*
X81897000Y-97227592D01*
X81897000Y-96952408D01*
X81843314Y-96682510D01*
X81738005Y-96428273D01*
X81585120Y-96199465D01*
X81390535Y-96004880D01*
X81161727Y-95851995D01*
X81084485Y-95820000D01*
X81161727Y-95788005D01*
X81390535Y-95635120D01*
X81585120Y-95440535D01*
X81738005Y-95211727D01*
X81843314Y-94957490D01*
X81897000Y-94687592D01*
X81897000Y-94412408D01*
X81843314Y-94142510D01*
X81738005Y-93888273D01*
X81585120Y-93659465D01*
X81390535Y-93464880D01*
X81161727Y-93311995D01*
X81084485Y-93280000D01*
X81161727Y-93248005D01*
X81390535Y-93095120D01*
X81585120Y-92900535D01*
X81738005Y-92671727D01*
X81843314Y-92417490D01*
X81897000Y-92147592D01*
X81897000Y-91872408D01*
X81843314Y-91602510D01*
X81738005Y-91348273D01*
X81585120Y-91119465D01*
X81390535Y-90924880D01*
X81161727Y-90771995D01*
X81084485Y-90740000D01*
X81161727Y-90708005D01*
X81390535Y-90555120D01*
X81585120Y-90360535D01*
X81698800Y-90190401D01*
X98910000Y-107401602D01*
G36*
X54120001Y-73417646D02*
G01*
X54120000Y-84169248D01*
X54115356Y-84216400D01*
X54120000Y-84263552D01*
X54120000Y-84263561D01*
X54133890Y-84404592D01*
X54188784Y-84585553D01*
X54277927Y-84752328D01*
X54397893Y-84898507D01*
X54434531Y-84928575D01*
X62829328Y-93323373D01*
X62859393Y-93360007D01*
X62896026Y-93390071D01*
X63005571Y-93479973D01*
X63172346Y-93569116D01*
X63353307Y-93624010D01*
X63494338Y-93637900D01*
X63494347Y-93637900D01*
X63541499Y-93642544D01*
X63588651Y-93637900D01*
X65580256Y-93637900D01*
X71424283Y-99481928D01*
X70880000Y-99481928D01*
X70755518Y-99494188D01*
X70635820Y-99530498D01*
X70525506Y-99589463D01*
X70428815Y-99668815D01*
X70349463Y-99765506D01*
X70290498Y-99875820D01*
X70254188Y-99995518D01*
X70241928Y-100120000D01*
X70241928Y-101489027D01*
X67986404Y-99233503D01*
X67962601Y-99204499D01*
X67846876Y-99109526D01*
X67714847Y-99038954D01*
X67571586Y-98995497D01*
X67459933Y-98984500D01*
X67459922Y-98984500D01*
X67422600Y-98980824D01*
X67385278Y-98984500D01*
X66613602Y-98984500D01*
X64781573Y-97152471D01*
X64965131Y-97042385D01*
X65173519Y-96853414D01*
X65341037Y-96627420D01*
X65461246Y-96373087D01*
X65501904Y-96239039D01*
X65379915Y-96017000D01*
X64237000Y-96017000D01*
X64237000Y-96037000D01*
X63983000Y-96037000D01*
X63983000Y-96017000D01*
X63963000Y-96017000D01*
X63963000Y-95763000D01*
X63983000Y-95763000D01*
X63983000Y-94619376D01*
X64237000Y-94619376D01*
X64237000Y-95763000D01*
X65379915Y-95763000D01*
X65501904Y-95540961D01*
X65461246Y-95406913D01*
X65341037Y-95152580D01*
X65173519Y-94926586D01*
X64965131Y-94737615D01*
X64723881Y-94592930D01*
X64459040Y-94498091D01*
X64237000Y-94619376D01*
X63983000Y-94619376D01*
X63760960Y-94498091D01*
X63496119Y-94592930D01*
X63254869Y-94737615D01*
X63046481Y-94926586D01*
X62878963Y-95152580D01*
X62847741Y-95218639D01*
X47496198Y-79867097D01*
X47533314Y-79777490D01*
X47587000Y-79507592D01*
X47587000Y-79232408D01*
X47533314Y-78962510D01*
X47428005Y-78708273D01*
X47275120Y-78479465D01*
X47080535Y-78284880D01*
X46851727Y-78131995D01*
X46774485Y-78100000D01*
X46851727Y-78068005D01*
X47080535Y-77915120D01*
X47275120Y-77720535D01*
X47428005Y-77491727D01*
X47533314Y-77237490D01*
X47587000Y-76967592D01*
X47587000Y-76692408D01*
X47533314Y-76422510D01*
X47428005Y-76168273D01*
X47275120Y-75939465D01*
X47080535Y-75744880D01*
X46851727Y-75591995D01*
X46774485Y-75560000D01*
X46851727Y-75528005D01*
X47080535Y-75375120D01*
X47275120Y-75180535D01*
X47428005Y-74951727D01*
X47533314Y-74697490D01*
X47587000Y-74427592D01*
X47587000Y-74152408D01*
X47533314Y-73882510D01*
X47428005Y-73628273D01*
X47275120Y-73399465D01*
X47080535Y-73204880D01*
X46851727Y-73051995D01*
X46780057Y-73022308D01*
X46793023Y-73017636D01*
X46908980Y-72955656D01*
X46975960Y-72715565D01*
X46190000Y-71929605D01*
X46175858Y-71943748D01*
X45996253Y-71764143D01*
X46010395Y-71750000D01*
X46369605Y-71750000D01*
X47155565Y-72535960D01*
X47395656Y-72468980D01*
X47512756Y-72219952D01*
X47579023Y-71952865D01*
X47591910Y-71677983D01*
X47550922Y-71405867D01*
X47457636Y-71146977D01*
X47395656Y-71031020D01*
X47155565Y-70964040D01*
X46369605Y-71750000D01*
X46010395Y-71750000D01*
X45996253Y-71735858D01*
X46175858Y-71556253D01*
X46190000Y-71570395D01*
X46975960Y-70784435D01*
X46908980Y-70544344D01*
X46773240Y-70480515D01*
X46851727Y-70448005D01*
X47080535Y-70295120D01*
X47275120Y-70100535D01*
X47428005Y-69871727D01*
X47533314Y-69617490D01*
X47587000Y-69347592D01*
X47587000Y-69072408D01*
X47533314Y-68802510D01*
X47428005Y-68548273D01*
X47275120Y-68319465D01*
X47080535Y-68124880D01*
X46851727Y-67971995D01*
X46774485Y-67940000D01*
X46851727Y-67908005D01*
X47080535Y-67755120D01*
X47275120Y-67560535D01*
X47428005Y-67331727D01*
X47533314Y-67077490D01*
X47574216Y-66871860D01*
X54120001Y-73417646D01*
G37*
X54120001Y-73417646D02*
X54120000Y-84169248D01*
X54115356Y-84216400D01*
X54120000Y-84263552D01*
X54120000Y-84263561D01*
X54133890Y-84404592D01*
X54188784Y-84585553D01*
X54277927Y-84752328D01*
X54397893Y-84898507D01*
X54434531Y-84928575D01*
X62829328Y-93323373D01*
X62859393Y-93360007D01*
X62896026Y-93390071D01*
X63005571Y-93479973D01*
X63172346Y-93569116D01*
X63353307Y-93624010D01*
X63494338Y-93637900D01*
X63494347Y-93637900D01*
X63541499Y-93642544D01*
X63588651Y-93637900D01*
X65580256Y-93637900D01*
X71424283Y-99481928D01*
X70880000Y-99481928D01*
X70755518Y-99494188D01*
X70635820Y-99530498D01*
X70525506Y-99589463D01*
X70428815Y-99668815D01*
X70349463Y-99765506D01*
X70290498Y-99875820D01*
X70254188Y-99995518D01*
X70241928Y-100120000D01*
X70241928Y-101489027D01*
X67986404Y-99233503D01*
X67962601Y-99204499D01*
X67846876Y-99109526D01*
X67714847Y-99038954D01*
X67571586Y-98995497D01*
X67459933Y-98984500D01*
X67459922Y-98984500D01*
X67422600Y-98980824D01*
X67385278Y-98984500D01*
X66613602Y-98984500D01*
X64781573Y-97152471D01*
X64965131Y-97042385D01*
X65173519Y-96853414D01*
X65341037Y-96627420D01*
X65461246Y-96373087D01*
X65501904Y-96239039D01*
X65379915Y-96017000D01*
X64237000Y-96017000D01*
X64237000Y-96037000D01*
X63983000Y-96037000D01*
X63983000Y-96017000D01*
X63963000Y-96017000D01*
X63963000Y-95763000D01*
X63983000Y-95763000D01*
X63983000Y-94619376D01*
X64237000Y-94619376D01*
X64237000Y-95763000D01*
X65379915Y-95763000D01*
X65501904Y-95540961D01*
X65461246Y-95406913D01*
X65341037Y-95152580D01*
X65173519Y-94926586D01*
X64965131Y-94737615D01*
X64723881Y-94592930D01*
X64459040Y-94498091D01*
X64237000Y-94619376D01*
X63983000Y-94619376D01*
X63760960Y-94498091D01*
X63496119Y-94592930D01*
X63254869Y-94737615D01*
X63046481Y-94926586D01*
X62878963Y-95152580D01*
X62847741Y-95218639D01*
X47496198Y-79867097D01*
X47533314Y-79777490D01*
X47587000Y-79507592D01*
X47587000Y-79232408D01*
X47533314Y-78962510D01*
X47428005Y-78708273D01*
X47275120Y-78479465D01*
X47080535Y-78284880D01*
X46851727Y-78131995D01*
X46774485Y-78100000D01*
X46851727Y-78068005D01*
X47080535Y-77915120D01*
X47275120Y-77720535D01*
X47428005Y-77491727D01*
X47533314Y-77237490D01*
X47587000Y-76967592D01*
X47587000Y-76692408D01*
X47533314Y-76422510D01*
X47428005Y-76168273D01*
X47275120Y-75939465D01*
X47080535Y-75744880D01*
X46851727Y-75591995D01*
X46774485Y-75560000D01*
X46851727Y-75528005D01*
X47080535Y-75375120D01*
X47275120Y-75180535D01*
X47428005Y-74951727D01*
X47533314Y-74697490D01*
X47587000Y-74427592D01*
X47587000Y-74152408D01*
X47533314Y-73882510D01*
X47428005Y-73628273D01*
X47275120Y-73399465D01*
X47080535Y-73204880D01*
X46851727Y-73051995D01*
X46780057Y-73022308D01*
X46793023Y-73017636D01*
X46908980Y-72955656D01*
X46975960Y-72715565D01*
X46190000Y-71929605D01*
X46175858Y-71943748D01*
X45996253Y-71764143D01*
X46010395Y-71750000D01*
X46369605Y-71750000D01*
X47155565Y-72535960D01*
X47395656Y-72468980D01*
X47512756Y-72219952D01*
X47579023Y-71952865D01*
X47591910Y-71677983D01*
X47550922Y-71405867D01*
X47457636Y-71146977D01*
X47395656Y-71031020D01*
X47155565Y-70964040D01*
X46369605Y-71750000D01*
X46010395Y-71750000D01*
X45996253Y-71735858D01*
X46175858Y-71556253D01*
X46190000Y-71570395D01*
X46975960Y-70784435D01*
X46908980Y-70544344D01*
X46773240Y-70480515D01*
X46851727Y-70448005D01*
X47080535Y-70295120D01*
X47275120Y-70100535D01*
X47428005Y-69871727D01*
X47533314Y-69617490D01*
X47587000Y-69347592D01*
X47587000Y-69072408D01*
X47533314Y-68802510D01*
X47428005Y-68548273D01*
X47275120Y-68319465D01*
X47080535Y-68124880D01*
X46851727Y-67971995D01*
X46774485Y-67940000D01*
X46851727Y-67908005D01*
X47080535Y-67755120D01*
X47275120Y-67560535D01*
X47428005Y-67331727D01*
X47533314Y-67077490D01*
X47574216Y-66871860D01*
X54120001Y-73417646D01*
M02*
