M48
; DRILL file {KiCad 5.1.5+dfsg1-2build2} date 2021年12月20日 12時55分22秒
; FORMAT={3:3/ absolute / metric / suppress leading zeros}
; #@! TF.CreationDate,2021-12-20T12:55:22+09:00
; #@! TF.GenerationSoftware,Kicad,Pcbnew,5.1.5+dfsg1-2build2
FMAT,2
METRIC,TZ
T1C0.400
T2C0.762
T3C0.800
T4C1.000
T5C1.100
T6C2.200
%
G90
G05
T1
X59080Y-86690
X78444Y-110766
T2
X80500Y-66610
X80500Y-69150
X80500Y-71690
X80500Y-74230
X80500Y-76770
X80500Y-79310
X80500Y-81850
X80500Y-84390
X80500Y-86930
X80500Y-89470
X80500Y-92010
X80500Y-94550
X80500Y-97090
X80500Y-99630
X80500Y-102170
X80500Y-104710
X47600Y-100970
X47600Y-108590
X47600Y-111130
X50140Y-100970
X52680Y-100970
X55220Y-100970
X57760Y-100970
X60300Y-100970
X62840Y-100970
X62840Y-108590
X62840Y-111130
X46190Y-61590
X46190Y-64130
X46190Y-66670
X46190Y-69210
X46190Y-71750
X46190Y-74290
X46190Y-76830
X46190Y-79370
X46190Y-81910
X46190Y-84450
X46190Y-86990
X46190Y-89530
X63970Y-61590
X63970Y-64130
X63970Y-66670
X63970Y-69210
X63970Y-71750
X63970Y-74290
X63970Y-76830
X63970Y-79370
X63970Y-81910
X63970Y-84450
X63970Y-86990
X63970Y-89530
T3
X67920Y-70490
X75540Y-70490
X67920Y-74300
X75540Y-74300
X46330Y-95890
X53950Y-95890
X67920Y-66680
X75540Y-66680
X67920Y-62870
X75540Y-62870
X56490Y-95890
X64110Y-95890
X67920Y-78110
X75540Y-78110
T4
X89510Y-110660
X92050Y-110660
X94590Y-110660
X97130Y-110660
X99670Y-110660
X102210Y-110660
X104750Y-110660
X107290Y-110660
X109830Y-110660
X112370Y-110660
X114910Y-110660
X117450Y-110660
X71730Y-100970
X74270Y-100970
T5
X69190Y-106050
X69190Y-110550
X75690Y-106050
X75690Y-110550
T6
X127000Y-111000
X43000Y-111000
X124000Y-65600
X43000Y-62000
T0
M30
